<svg xmlns="http://www.w3.org/2000/svg" viewBox="0 0 506 751" preserveAspectRatio="xMidYMid meet" style="width: 100%; height: 100%; transform: translate3d(0px, 0px, 0px);"><defs><clipPath id="__lottie_element_10486"><rect width="506" height="751" x="0" y="0"/></clipPath><clipPath id="__lottie_element_10488"><path d="M0,0 L506,0 L506,922 L0,922z"/></clipPath><clipPath id="__lottie_element_10491"><path d="M0,0 L506,0 L506,922 L0,922z"/></clipPath><clipPath id="__lottie_element_10599"><path d="M0,0 L506,0 L506,922 L0,922z"/></clipPath></defs><g clip-path="url(#__lottie_element_10486)"><g clip-path="url(#__lottie_element_10488)" transform="matrix(1,0,0,1,0,0)" opacity="1" style="display: block;"><g clip-path="url(#__lottie_element_10599)" style="display: none;"><g style="display: none;"><g><path/></g></g><g style="display: none;"><g><path/></g></g><g style="display: none;"><g><path/></g></g><g style="display: none;"><g><path/></g></g><g style="display: none;"><path/></g><g style="display: none;"><g><path/></g></g><g style="display: none;"><g><path/></g></g><g style="display: none;"><g><path/></g></g><g style="display: none;"><g><path/></g></g><g style="display: none;"><g><path/></g></g><g style="display: none;"><g><path/></g></g><g style="display: none;"><g><path/></g></g><g style="display: none;"><g><path/></g></g><g style="display: none;"><g><path/></g></g><g style="display: none;"><g><path/></g></g><g style="display: none;"><g><path/></g></g><g style="display: none;"><g><path/></g></g><g style="display: none;"><g><path/></g></g><g style="display: none;"><g><path/></g></g><g style="display: none;"><g><path/></g></g><g style="display: none;"><g><path/></g></g><g style="display: none;"><g><path/></g></g><g style="display: none;"><g><path/></g></g><g style="display: none;"><g><path/></g></g><g style="display: none;"><g><path/></g></g><g style="display: none;"><g><path/></g></g><g style="display: none;"><g><path/></g></g><g style="display: none;"><g><path/></g></g><g style="display: none;"><g><path/></g></g><g style="display: none;"><g><path/></g></g><g style="display: none;"><g><path/></g></g><g style="display: none;"><g><path/></g></g><g style="display: none;"><g><path/></g></g><g style="display: none;"><g><path/></g></g><g style="display: none;"><g><path/></g></g><g style="display: none;"><g><path/></g></g><g style="display: none;"><g><path/></g></g><g style="display: none;"><g><path/></g></g><g style="display: none;"><g><path/></g></g><g style="display: none;"><g><path/></g></g><g style="display: none;"><g><path/></g></g><g style="display: none;"><path stroke-linecap="round" stroke-linejoin="miter" fill-opacity="0" stroke-miterlimit="4"/></g><g style="display: none;"><g><path/></g></g><g style="display: none;"><g><path/></g></g><g style="display: none;"><g><path stroke-linecap="round" stroke-linejoin="miter" fill-opacity="0" stroke-miterlimit="4"/></g></g><g style="display: none;"><g><path stroke-linecap="round" stroke-linejoin="round" fill-opacity="0"/></g></g><g style="display: none;"><g><path stroke-linecap="round" stroke-linejoin="miter" fill-opacity="0" stroke-miterlimit="4"/></g></g><g style="display: none;"><g><path/></g></g><g style="display: none;"><g><path/></g></g><g style="display: none;"><g><path/></g></g><g style="display: none;"><g><path/></g></g></g><g clip-path="url(#__lottie_element_10491)" transform="matrix(1.0700000524520874,0,0,1.0700000524520874,-17.71002197265625,-64.330078125)" opacity="1" style="display: block;"><g transform="matrix(1,0,0,1,150.51123046875,908.7601318359375)" opacity="1" style="display: block;"><g opacity="1" transform="matrix(1,0,0,1,0,0)"><path fill="rgb(255,75,75)" fill-opacity="1" d=" M-28.260000228881836,-13.359000205993652 C-35.63800048828125,-13.359000205993652 -41.61899948120117,-7.377999782562256 -41.61899948120117,0 C-41.61899948120117,7.377999782562256 -35.63800048828125,13.359000205993652 -28.260000228881836,13.359000205993652 C-28.260000228881836,13.359000205993652 28.260000228881836,13.359000205993652 28.260000228881836,13.359000205993652 C35.63800048828125,13.359000205993652 41.61899948120117,7.377999782562256 41.61899948120117,0 C41.61899948120117,-7.377999782562256 35.63800048828125,-13.359000205993652 28.260000228881836,-13.359000205993652 C28.260000228881836,-13.359000205993652 -28.260000228881836,-13.359000205993652 -28.260000228881836,-13.359000205993652z"/></g></g><g transform="matrix(1,0,0,1,298.8689880371094,908.5850219726562)" opacity="1" style="display: block;"><g opacity="1" transform="matrix(1,0,0,1,0,0)"><path fill="rgb(255,75,75)" fill-opacity="1" d=" M-28.260000228881836,-13.359000205993652 C-35.63800048828125,-13.359000205993652 -41.61899948120117,-7.377999782562256 -41.61899948120117,0 C-41.61899948120117,7.377999782562256 -35.63800048828125,13.359000205993652 -28.260000228881836,13.359000205993652 C-28.260000228881836,13.359000205993652 28.260000228881836,13.359000205993652 28.260000228881836,13.359000205993652 C35.63800048828125,13.359000205993652 41.61899948120117,7.377999782562256 41.61899948120117,0 C41.61899948120117,-7.377999782562256 35.63800048828125,-13.359000205993652 28.260000228881836,-13.359000205993652 C28.260000228881836,-13.359000205993652 -28.260000228881836,-13.359000205993652 -28.260000228881836,-13.359000205993652z"/></g></g><g transform="matrix(1,0,0,1,141,371.61700439453125)" opacity="1" style="display: block;"><g opacity="1" transform="matrix(1,0,0,1,0,0)"><path fill="rgb(164,102,72)" fill-opacity="1" d=" M0,25.177000045776367 C13.904999732971191,25.177000045776367 25.177000045776367,13.904999732971191 25.177000045776367,0 C25.177000045776367,-13.904999732971191 13.904999732971191,-25.177000045776367 0,-25.177000045776367 C-13.904999732971191,-25.177000045776367 -25.177000045776367,-13.904999732971191 -25.177000045776367,0 C-25.177000045776367,13.904999732971191 -13.904999732971191,25.177000045776367 0,25.177000045776367z"/></g></g><g transform="matrix(1,0,0,1,363.9440002441406,371.49700927734375)" opacity="1" style="display: block;"><g opacity="1" transform="matrix(1,0,0,1,0,0)"><path fill="rgb(164,102,72)" fill-opacity="1" d=" M0,25.177000045776367 C13.904999732971191,25.177000045776367 25.177000045776367,13.904999732971191 25.177000045776367,0 C25.177000045776367,-13.904999732971191 13.904999732971191,-25.177000045776367 0,-25.177000045776367 C-13.904999732971191,-25.177000045776367 -25.177000045776367,-13.904999732971191 -25.177000045776367,0 C-25.177000045776367,13.904999732971191 -13.904999732971191,25.177000045776367 0,25.177000045776367z"/></g></g><g transform="matrix(2.2799999713897705,0,0,2.2799999713897705,253,272)" opacity="1" style="display: block;"><path fill="rgb(61,61,61)" fill-opacity="1" d=" M0,-50 C27.61400032043457,-50 50,-27.61400032043457 50,0 C50,27.61400032043457 27.61400032043457,50 0,50 C-27.61400032043457,50 -50,27.61400032043457 -50,0 C-50,-27.61400032043457 -27.61400032043457,-50 0,-50z"/></g><g transform="matrix(1.0000079870224,0,0,1.0000079870224,163.22955322265625,209.5489501953125)" opacity="1" style="display: block;"><g opacity="1" transform="matrix(1,0,0,1,0,0)"><path fill="rgb(61,61,61)" fill-opacity="1" d=" M-41.45600128173828,57.79100036621094 C-20.44300079345703,79.81999969482422 14.449000358581543,80.64299774169922 36.47800064086914,59.630001068115234 C36.47800064086914,59.630001068115234 57.84299850463867,39.25 57.84299850463867,39.25 C79.87200164794922,18.23699951171875 80.69499969482422,-16.655000686645508 59.68199920654297,-38.683998107910156 C59.68199920654297,-38.683998107910156 41.45600128173828,-57.79100036621094 41.45600128173828,-57.79100036621094 C20.44300079345703,-79.81999969482422 -14.449000358581543,-80.64299774169922 -36.47800064086914,-59.630001068115234 C-36.47800064086914,-59.630001068115234 -57.84299850463867,-39.25 -57.84299850463867,-39.25 C-79.87200164794922,-18.23699951171875 -80.69499969482422,16.655000686645508 -59.68199920654297,38.683998107910156 C-59.68199920654297,38.683998107910156 -41.45600128173828,57.79100036621094 -41.45600128173828,57.79100036621094z"/></g></g><g transform="matrix(1.0000079870224,0,0,1.0000079870224,341.7793273925781,209.5489501953125)" opacity="1" style="display: block;"><g opacity="1" transform="matrix(1,0,0,1,0,0)"><path fill="rgb(61,61,61)" fill-opacity="1" d=" M41.45600128173828,57.79100036621094 C20.44300079345703,79.81999969482422 -14.449000358581543,80.64299774169922 -36.47800064086914,59.630001068115234 C-36.47800064086914,59.630001068115234 -57.84299850463867,39.25 -57.84299850463867,39.25 C-79.87200164794922,18.23699951171875 -80.69499969482422,-16.655000686645508 -59.68199920654297,-38.683998107910156 C-59.68199920654297,-38.683998107910156 -41.45600128173828,-57.79100036621094 -41.45600128173828,-57.79100036621094 C-20.44300079345703,-79.81999969482422 14.449000358581543,-80.64299774169922 36.47800064086914,-59.630001068115234 C36.47800064086914,-59.630001068115234 57.84299850463867,-39.25 57.84299850463867,-39.25 C79.87200164794922,-18.23699951171875 80.69499969482422,16.655000686645508 59.68199920654297,38.683998107910156 C59.68199920654297,38.683998107910156 41.45600128173828,57.79100036621094 41.45600128173828,57.79100036621094z"/></g></g><g transform="matrix(1.0000079870224,0,0,1.0000079870224,252.5006866455078,193.99981689453125)" opacity="1" style="display: block;"><g opacity="1" transform="matrix(1,0,0,1,0,0)"><path fill="rgb(61,61,61)" fill-opacity="1" d=" M-19.87700080871582,-104 C-50.31999969482422,-104 -75,-79.31999969482422 -75,-48.87699890136719 C-75,-48.87699890136719 -75,48.87699890136719 -75,48.87699890136719 C-75,79.31999969482422 -50.31999969482422,104 -19.87700080871582,104 C-19.87700080871582,104 19.87700080871582,104 19.87700080871582,104 C50.31999969482422,104 75,79.31999969482422 75,48.87699890136719 C75,48.87699890136719 75,-48.87699890136719 75,-48.87699890136719 C75,-79.31999969482422 50.31999969482422,-104 19.87700080871582,-104 C19.87700080871582,-104 -19.87700080871582,-104 -19.87700080871582,-104z"/></g></g><g transform="matrix(1,0,0,1,253,477.5)" opacity="1" style="display: block;"><g opacity="1" transform="matrix(1,0,0,1,0,0)"><path fill="rgb(164,102,72)" fill-opacity="1" d=" M0,-67.5 C-19.606000900268555,-67.5 -35.5,-51.60599899291992 -35.5,-32 C-35.5,-32 -35.5,32 -35.5,32 C-35.5,51.60599899291992 -19.606000900268555,67.5 0,67.5 C19.606000900268555,67.5 35.5,51.60599899291992 35.5,32 C35.5,32 35.5,-32 35.5,-32 C35.5,-51.60599899291992 19.606000900268555,-67.5 0,-67.5z"/></g></g><g transform="matrix(1,0,0,1,271.5,518.5)" opacity="1" style="display: block;"><g opacity="1" transform="matrix(1,0,0,1,-18.493999481201172,0)"><path fill="rgb(253,176,42)" fill-opacity="1" d=" M-37.7599983215332,-44.5 C-40.37799835205078,-44.5 -42.5,-42.37799835205078 -42.5,-39.7599983215332 C-42.5,-39.7599983215332 -42.5,2 -42.5,2 C-42.5,25.472000122070312 -23.472000122070312,44.5 0,44.5 C23.472000122070312,44.5 42.5,25.472000122070312 42.5,2 C42.5,2 42.5,-39.7599983215332 42.5,-39.7599983215332 C42.5,-42.37799835205078 40.37799835205078,-44.5 37.7599983215332,-44.5 C37.7599983215332,-44.5 -37.7599983215332,-44.5 -37.7599983215332,-44.5z"/></g></g><g transform="matrix(1,0,0,1,252.5,381.72601318359375)" opacity="1" style="display: block;"><g opacity="1" transform="matrix(1,0,0,1,0,0)"><path fill="rgb(164,102,72)" fill-opacity="1" d=" M111,-56.275001525878906 C111,-79.59500122070312 92.09500122070312,-98.5 68.7750015258789,-98.5 C68.7750015258789,-98.5 -68.7750015258789,-98.5 -68.7750015258789,-98.5 C-92.09500122070312,-98.5 -111,-79.59500122070312 -111,-56.275001525878906 C-111,-56.275001525878906 -111,48.8849983215332 -111,48.8849983215332 C-111,76.28600311279297 -88.78600311279297,98.5 -61.3849983215332,98.5 C-61.3849983215332,98.5 61.3849983215332,98.5 61.3849983215332,98.5 C88.78600311279297,98.5 111,76.28600311279297 111,48.8849983215332 C111,48.8849983215332 111,-56.275001525878906 111,-56.275001525878906z"/></g></g><g transform="matrix(1,0,0,1,216.5,362.22601318359375)" opacity="1" style="display: block;"><g opacity="1" transform="matrix(1,0,0,1,0,0)"><path fill="rgb(255,255,255)" fill-opacity="1" d=" M0,-37 C-15.46399974822998,-37 -28,-24.464000701904297 -28,-9 C-28,-9 -28,9 -28,9 C-28,24.464000701904297 -15.46399974822998,37 0,37 C15.46399974822998,37 28,24.464000701904297 28,9 C28,9 28,-9 28,-9 C28,-24.464000701904297 15.46399974822998,-37 0,-37z"/></g></g><g transform="matrix(1,0,0,1,226,363.22601318359375)" opacity="1" style="display: block;"><g opacity="1" transform="matrix(1,0,0,1,0,0)"><path fill="rgb(61,61,61)" fill-opacity="1" d=" M-2.364000082015991,-13.944999694824219 C-2.364000082015991,-8.336999893188477 -6.8979997634887695,-3.7890000343322754 -12.5,-3.7660000324249268 C-12.5,-3.7660000324249268 -12.5,7.5 -12.5,7.5 C-12.5,14.404000282287598 -6.9039998054504395,20 0,20 C6.9039998054504395,20 12.5,14.404000282287598 12.5,7.5 C12.5,7.5 12.5,-7.5 12.5,-7.5 C12.5,-14.404000282287598 6.9039998054504395,-20 0,-20 C-1.371999979019165,-20 -2.693000078201294,-19.77899932861328 -3.927999973297119,-19.3700008392334 C-2.937000036239624,-17.799999237060547 -2.364000082015991,-15.939000129699707 -2.364000082015991,-13.944999694824219z"/></g></g><g transform="matrix(1,0,0,1,289.5,362.22601318359375)" opacity="1" style="display: block;"><g opacity="1" transform="matrix(1,0,0,1,0,0)"><path fill="rgb(255,255,255)" fill-opacity="1" d=" M0,-37 C-15.46399974822998,-37 -28,-24.464000701904297 -28,-9 C-28,-9 -28,9 -28,9 C-28,24.464000701904297 -15.46399974822998,37 0,37 C15.46399974822998,37 28,24.464000701904297 28,9 C28,9 28,-9 28,-9 C28,-24.464000701904297 15.46399974822998,-37 0,-37z"/></g></g><g transform="matrix(1,0,0,1,279.9930114746094,363.1610107421875)" opacity="1" style="display: block;"><g opacity="1" transform="matrix(1,0,0,1,0,0)"><path fill="rgb(61,61,61)" fill-opacity="1" d=" M-2.5439999103546143,-13.880999565124512 C-2.5439999103546143,-8.336000442504883 -6.9770002365112305,-3.8259999752044678 -12.493000030517578,-3.7039999961853027 C-12.493000030517578,-3.7039999961853027 -12.493000030517578,7.866000175476074 -12.493000030517578,7.866000175476074 C-12.493000030517578,14.765999794006348 -6.900000095367432,20.358999252319336 0,20.358999252319336 C6.900000095367432,20.358999252319336 12.493000030517578,14.765999794006348 12.493000030517578,7.866000175476074 C12.493000030517578,7.866000175476074 12.493000030517578,-7.866000175476074 12.493000030517578,-7.866000175476074 C12.493000030517578,-14.765999794006348 6.900000095367432,-20.358999252319336 0,-20.358999252319336 C-1.5110000371932983,-20.358999252319336 -2.9590001106262207,-20.090999603271484 -4.300000190734863,-19.599000930786133 C-3.190999984741211,-17.9689998626709 -2.5439999103546143,-16.000999450683594 -2.5439999103546143,-13.880999565124512z"/></g></g><g style="display: none;"><g><path/></g></g><g style="display: none;"><g><path/></g></g><g style="display: none;"><g><path/></g></g><g style="display: none;"><g><path/></g></g><g transform="matrix(-0.3746066391468048,-0.9271838665008545,0.9271838665008545,-0.3746066391468048,163.2296905517578,677.5142211914062)" opacity="1" style="display: block;"><g opacity="1" transform="matrix(1,0,0,1,0,0)"><path fill="rgb(164,102,72)" fill-opacity="1" d=" M-10.75,-17.655000686645508 C-5.489999771118164,-20.857999801635742 1.371000051498413,-19.190000534057617 4.573999881744385,-13.930000305175781 C4.573999881744385,-13.930000305175781 14.475000381469727,2.3310000896453857 14.475000381469727,2.3310000896453857 C17.67799949645996,7.591000080108643 16.010000228881836,14.45199966430664 10.75,17.655000686645508 C5.489999771118164,20.857999801635742 -1.371000051498413,19.190000534057617 -4.573999881744385,13.930000305175781 C-4.573999881744385,13.930000305175781 -14.475000381469727,-2.3310000896453857 -14.475000381469727,-2.3310000896453857 C-17.67799949645996,-7.591000080108643 -16.010000228881836,-14.45199966430664 -10.75,-17.655000686645508z"/></g></g><g transform="matrix(0.30901700258255005,-0.9510565400123596,0.9510565400123596,0.30901700258255005,172.3384246826172,680.6095581054688)" opacity="1" style="display: block;"><g opacity="1" transform="matrix(1,0,0,1,0,0)"><path fill="rgb(164,102,72)" fill-opacity="1" d=" M-21.5,28 C-36.9640007019043,28 -49.5,15.46399974822998 -49.5,0 C-49.5,-15.46399974822998 -36.9640007019043,-28 -21.5,-28 C-21.5,-28 21.5,-28 21.5,-28 C36.9640007019043,-28 49.5,-15.46399974822998 49.5,0 C49.5,15.46399974822998 36.9640007019043,28 21.5,28 C21.5,28 -21.5,28 -21.5,28z"/></g></g><g transform="matrix(0.30901700258255005,-0.9510565400123596,0.9510565400123596,0.30901700258255005,189.0253448486328,629.2525024414062)" opacity="1" style="display: block;"><g opacity="1" transform="matrix(1,0,0,1,0,0)"><path fill="rgb(164,102,72)" fill-opacity="1" d=" M-32.5,28 C-47.9640007019043,28 -60.5,15.46399974822998 -60.5,0 C-60.5,-15.46399974822998 -47.9640007019043,-28 -32.5,-28 C-32.5,-28 32.5,-28 32.5,-28 C47.9640007019043,-28 60.5,-15.46399974822998 60.5,0 C60.5,15.46399974822998 47.9640007019043,28 32.5,28 C32.5,28 -32.5,28 -32.5,28z"/></g></g><g transform="matrix(0.30901700258255005,-0.9510565400123596,0.9510565400123596,0.30901700258255005,209.1114501953125,567.433837890625)" opacity="1" style="display: block;"><g opacity="1" transform="matrix(1,0,0,1,0,0)"><path fill="rgb(164,102,72)" fill-opacity="1" d=" M-32.5,28 C-47.9640007019043,28 -60.5,15.46399974822998 -60.5,0 C-60.5,-15.46399974822998 -47.9640007019043,-28 -32.5,-28 C-32.5,-28 32.5,-28 32.5,-28 C47.9640007019043,-28 60.5,-15.46399974822998 60.5,0 C60.5,15.46399974822998 47.9640007019043,28 32.5,28 C32.5,28 -32.5,28 -32.5,28z"/></g></g><g transform="matrix(0.9781476259231567,0.2079116851091385,-0.2079116851091385,0.9781476259231567,187.66213989257812,770.4953002929688)" opacity="1" style="display: block;"><g opacity="1" transform="matrix(1,0,0,1,0,0)"><path fill="rgb(28,176,246)" fill-opacity="1" d=" M0,-86.5 C-22.090999603271484,-86.5 -40,-68.59100341796875 -40,-46.5 C-40,-46.5 -40,86.5 -40,86.5 C-40,86.5 40,86.5 40,86.5 C40,86.5 40,-46.5 40,-46.5 C40,-68.59100341796875 22.090999603271484,-86.5 0,-86.5z"/></g></g><g transform="matrix(0.9781476259231567,0.2079116851091385,-0.2079116851091385,0.9781476259231567,206.89398193359375,680.0166625976562)" opacity="1" style="display: block;"><g opacity="1" transform="matrix(1,0,0,1,0,0)"><path fill="rgb(28,176,246)" fill-opacity="1" d=" M0,-86 C-22.090999603271484,-86 -40,-68.09100341796875 -40,-46 C-40,-46 -40,46 -40,46 C-40,68.09100341796875 -22.090999603271484,86 0,86 C22.090999603271484,86 40,68.09100341796875 40,46 C40,46 40,-46 40,-46 C40,-68.09100341796875 22.090999603271484,-86 0,-86z"/></g></g><g transform="matrix(1,0,0,1,289.25,773.5)" opacity="1" style="display: block;"><g opacity="1" transform="matrix(1,0,0,1,0,0)"><path fill="rgb(28,176,246)" fill-opacity="1" d=" M0,-86.5 C-22.090999603271484,-86.5 -40,-68.59100341796875 -40,-46.5 C-40,-46.5 -40,86.5 -40,86.5 C-40,86.5 40,86.5 40,86.5 C40,86.5 40,-46.5 40,-46.5 C40,-68.59100341796875 22.090999603271484,-86.5 0,-86.5z"/></g></g><g transform="matrix(1,0,0,1,289.25,681)" opacity="1" style="display: block;"><g opacity="1" transform="matrix(1,0,0,1,0,0)"><path fill="rgb(28,176,246)" fill-opacity="1" d=" M0,-86 C-22.090999603271484,-86 -40,-68.09100341796875 -40,-46 C-40,-46 -40,46 -40,46 C-40,68.09100341796875 -22.090999603271484,86 0,86 C22.090999603271484,86 40,68.09100341796875 40,46 C40,46 40,-46 40,-46 C40,-68.09100341796875 22.090999603271484,-86 0,-86z"/></g></g><g transform="matrix(1,0,0,1,168.3565673828125,864.9136962890625)" opacity="1" style="display: block;"><g opacity="1" transform="matrix(1,0,0,1,0,0)"><path fill="rgb(76,197,255)" fill-opacity="1" d=" M-41.33399963378906,-21 C-44.73899841308594,-21 -47.5,-18.23900032043457 -47.5,-14.833999633789062 C-47.5,-14.833999633789062 -47.5,14.833999633789062 -47.5,14.833999633789062 C-47.5,18.23900032043457 -44.73899841308594,21 -41.33399963378906,21 C-41.33399963378906,21 41.33399963378906,21 41.33399963378906,21 C44.73899841308594,21 47.5,18.23900032043457 47.5,14.833999633789062 C47.5,14.833999633789062 47.5,-14.833999633789062 47.5,-14.833999633789062 C47.5,-18.23900032043457 44.73899841308594,-21 41.33399963378906,-21 C41.33399963378906,-21 -41.33399963378906,-21 -41.33399963378906,-21z"/></g></g><g transform="matrix(1,0,0,1,288.75,864)" opacity="1" style="display: block;"><g opacity="1" transform="matrix(1,0,0,1,0,0)"><path fill="rgb(76,197,255)" fill-opacity="1" d=" M-41.33399963378906,-21 C-44.73899841308594,-21 -47.5,-18.23900032043457 -47.5,-14.833999633789062 C-47.5,-14.833999633789062 -47.5,14.833999633789062 -47.5,14.833999633789062 C-47.5,18.23900032043457 -44.73899841308594,21 -41.33399963378906,21 C-41.33399963378906,21 41.33399963378906,21 41.33399963378906,21 C44.73899841308594,21 47.5,18.23900032043457 47.5,14.833999633789062 C47.5,14.833999633789062 47.5,-14.833999633789062 47.5,-14.833999633789062 C47.5,-18.23900032043457 44.73899841308594,-21 41.33399963378906,-21 C41.33399963378906,-21 -41.33399963378906,-21 -41.33399963378906,-21z"/></g></g><g transform="matrix(1,0,0,1,253,638)" opacity="1" style="display: block;"><g opacity="1" transform="matrix(1,0,0,1,0,0)"><path fill="rgb(28,176,246)" fill-opacity="1" d=" M-30.5,-46 C-55.904998779296875,-46 -76.5,-25.405000686645508 -76.5,0 C-76.5,25.405000686645508 -55.904998779296875,46 -30.5,46 C-30.5,46 30.5,46 30.5,46 C55.904998779296875,46 76.5,25.405000686645508 76.5,0 C76.5,-25.405000686645508 55.904998779296875,-46 30.5,-46 C30.5,-46 -30.5,-46 -30.5,-46z"/></g></g><g transform="matrix(1,0,0,1,252.5,629.5)" opacity="1" style="display: block;"><g opacity="1" transform="matrix(1,0,0,1,0,0)"><path fill="rgb(28,176,246)" fill-opacity="1" d=" M0,-60.5 C33.41299819946289,-60.5 60.5,-33.41299819946289 60.5,0 C60.5,33.41299819946289 33.41299819946289,35.5 0,35.5 C-33.41299819946289,35.5 -60.5,33.41299819946289 -60.5,0 C-60.5,-33.41299819946289 -33.41299819946289,-60.5 0,-60.5z"/></g></g><g transform="matrix(1,0,0,1,253,586.5)" opacity="1" style="display: block;"><g opacity="1" transform="matrix(1,0,0,1,0,0)"><path fill="rgb(255,75,75)" fill-opacity="1" d=" M51.5,-10.5 C51.5,-10.5 22,-10.5 -0.25,-10.5 C-22.5,-10.5 -51.5,-10.5 -51.5,-10.5 C-51.5,-10.5 -51.5,10.5 -51.5,10.5 C-51.5,10.5 -21.5,10.5 0.25,10.5 C22,10.5 51.5,10.5 51.5,10.5 C51.5,10.5 51.5,-10.5 51.5,-10.5z"/></g></g><g transform="matrix(1,0,0,1,228,588.2260131835938)" opacity="1" style="display: block;"><g opacity="1" transform="matrix(1,0,0,1,0,0)"><path fill="rgb(28,176,246)" fill-opacity="1" d=" M5.5,-9 C5.5,-9 -5.5,-9 -5.5,-9 C-5.5,-9 -5.5,14.75 -5.5,14.75 C-5.5,14.75 5.5,14.75 5.5,14.75 C5.5,14.75 5.5,-9 5.5,-9z"/></g></g><g transform="matrix(1,0,0,1,278.1520080566406,590.458984375)" opacity="1" style="display: block;"><g opacity="1" transform="matrix(1,0,0,1,0,0)"><path fill="rgb(28,176,246)" fill-opacity="1" d=" M5.6519999504089355,-11.303999900817871 C5.6519999504089355,-11.303999900817871 -5.6519999504089355,-11.303999900817871 -5.6519999504089355,-11.303999900817871 C-5.6519999504089355,-11.303999900817871 -5.6519999504089355,12.553999900817871 -5.6519999504089355,12.553999900817871 C-5.6519999504089355,12.553999900817871 5.705999851226807,12.553999900817871 5.705999851226807,12.553999900817871 C5.705999851226807,12.553999900817871 5.6519999504089355,-11.303999900817871 5.6519999504089355,-11.303999900817871z"/></g></g><g transform="matrix(1,0,0,1,252.89300537109375,540.2760009765625)" opacity="1" style="display: block;"><g opacity="1" transform="matrix(1,0,0,1,0,0)"><path fill="rgb(253,176,42)" fill-opacity="1" d=" M-14.321000099182129,-39.04999923706055 C-45.28900146484375,-39.04999923706055 -70.39299774169922,-13.946000099182129 -70.39299774169922,17.02199935913086 C-70.39299774169922,29.187999725341797 -60.53099822998047,39.04999923706055 -48.3650016784668,39.04999923706055 C-48.3650016784668,39.04999923706055 48.3650016784668,39.04999923706055 48.3650016784668,39.04999923706055 C60.53099822998047,39.04999923706055 70.39299774169922,29.187999725341797 70.39299774169922,17.02199935913086 C70.39299774169922,-13.946000099182129 45.28900146484375,-39.04999923706055 14.321000099182129,-39.04999923706055 C14.321000099182129,-39.04999923706055 -14.321000099182129,-39.04999923706055 -14.321000099182129,-39.04999923706055z"/></g></g><g transform="matrix(0.8571673631668091,0.5150380730628967,-0.5150380730628967,0.8571673631668091,340.3599853515625,588.4000244140625)" opacity="1" style="display: block;"><g opacity="1" transform="matrix(1,0,0,1,0,0)"><path fill="rgb(164,102,72)" fill-opacity="1" d=" M10.75,-17.655000686645508 C5.489999771118164,-20.857999801635742 -1.371000051498413,-19.190000534057617 -4.573999881744385,-13.930000305175781 C-4.573999881744385,-13.930000305175781 -14.475000381469727,2.3310000896453857 -14.475000381469727,2.3310000896453857 C-17.67799949645996,7.591000080108643 -16.010000228881836,14.45199966430664 -10.75,17.655000686645508 C-5.489999771118164,20.857999801635742 1.371000051498413,19.190000534057617 4.573999881744385,13.930000305175781 C4.573999881744385,13.930000305175781 14.475000381469727,-2.3310000896453857 14.475000381469727,-2.3310000896453857 C17.67799949645996,-7.591000080108643 16.010000228881836,-14.45199966430664 10.75,-17.655000686645508z"/></g></g><g transform="matrix(0.8571673631668091,0.5150380730628967,-0.5150380730628967,0.8571673631668091,333.0097961425781,613.7852783203125)" opacity="1" style="display: block;"><g opacity="1" transform="matrix(1,0,0,1,0,0)"><path fill="rgb(164,102,72)" fill-opacity="1" d=" M2.7209999561309814,28.784000396728516 C18.184999465942383,28.784000396728516 30.72100067138672,16.24799919128418 30.72100067138672,0.7839999794960022 C30.72100067138672,-14.680000305175781 18.184999465942383,-27.215999603271484 2.7209999561309814,-27.215999603271484 C2.7209999561309814,-27.215999603271484 -21.5,-28 -21.5,-28 C-36.9640007019043,-28 -49.5,-15.46399974822998 -49.5,0 C-49.5,15.46399974822998 -36.9640007019043,28 -21.5,28 C-21.5,28 2.7209999561309814,28.784000396728516 2.7209999561309814,28.784000396728516z"/></g></g><g transform="matrix(-0.6819983720779419,0.7313537001609802,-0.7313537001609802,-0.6819983720779419,335.97607421875,579.0510864257812)" opacity="1" style="display: block;"><g opacity="1" transform="matrix(1,0,0,1,0,0)"><path fill="rgb(164,102,72)" fill-opacity="1" d=" M32.5,28 C47.9640007019043,28 60.5,15.46399974822998 60.5,0 C60.5,-15.46399974822998 47.9640007019043,-28 32.5,-28 C32.5,-28 -32.5,-28 -32.5,-28 C-47.9640007019043,-28 -60.5,-15.46399974822998 -60.5,0 C-60.5,15.46399974822998 -47.9640007019043,28 -32.5,28 C-32.5,28 32.5,28 32.5,28z"/></g></g><g transform="matrix(0.9612616896629333,0.27563735842704773,-0.27563735842704773,0.9612616896629333,327.72161865234375,546.0960693359375)" opacity="1" style="display: block;"><g opacity="1" transform="matrix(1,0,0,1,0,0)"><path fill="rgb(164,102,72)" fill-opacity="1" d=" M32.5,28 C47.9640007019043,28 60.5,15.46399974822998 60.5,0 C60.5,-15.46399974822998 47.9640007019043,-28 32.5,-28 C32.5,-28 -32.5,-28 -32.5,-28 C-47.9640007019043,-28 -60.5,-15.46399974822998 -60.5,0 C-60.5,15.46399974822998 -47.9640007019043,28 -32.5,28 C-32.5,28 32.5,28 32.5,28z"/></g></g><g transform="matrix(-1,0,0,-1,253,424)" opacity="1" style="display: block;"><g opacity="1" transform="matrix(1,0,0,1,0,0)"><path fill="rgb(164,102,72)" fill-opacity="1" d=" M-29.393999099731445,-24 C-52.09600067138672,-24 -70.5,-5.5960001945495605 -70.5,17.106000900268555 C-70.5,17.106000900268555 -70.5,24 -70.5,24 C-70.5,24 -48.75,24 -36,24 C-23.25,24 -6,24 -6,24 C-6,24 0,24 0,24 C0,24 5.25,24 5.25,24 C5.25,24 16.118000030517578,22.97800064086914 24.351999282836914,26.83099937438965 C37,32.75 38.02199935913086,33.63999938964844 45.25,34.25 C66,36 70.5,24 70.5,24 C70.5,24 70.5,17.106000900268555 70.5,17.106000900268555 C70.5,-5.5960001945495605 52.09600067138672,-24 29.393999099731445,-24 C29.393999099731445,-24 -29.393999099731445,-24 -29.393999099731445,-24z"/></g></g><g transform="matrix(1,0,0,1,253,346)" opacity="1" style="display: block;"><g opacity="1" transform="matrix(1,0,0,1,0,0)"><path fill="rgb(164,102,72)" fill-opacity="1" d=" M-29.393999099731445,-24 C-52.09600067138672,-24 -70.5,-5.5960001945495605 -70.5,17.106000900268555 C-70.5,17.106000900268555 -70.5,24 -70.5,24 C-70.5,24 -34.79800033569336,24 -34.79800033569336,24 C-34.79800033569336,24 -0.27900001406669617,24 -0.27900001406669617,24 C-0.27900001406669617,24 0.375,24 0.375,24 C0.375,24 1.1139999628067017,24 1.1139999628067017,24 C1.1139999628067017,24 33.44300079345703,24 33.44300079345703,24 C33.44300079345703,24 70.5,24 70.5,24 C70.5,24 70.5,17.106000900268555 70.5,17.106000900268555 C70.5,-5.5960001945495605 52.09600067138672,-24 29.393999099731445,-24 C29.393999099731445,-24 -29.393999099731445,-24 -29.393999099731445,-24z"/></g></g><g style="display: none;" transform="matrix(0.5099999904632568,0,0,0.5099999904632568,289.5,365.38525390625)" opacity="1"><path stroke-linecap="round" stroke-linejoin="miter" fill-opacity="0" stroke-miterlimit="4" stroke="rgb(136,71,39)" stroke-opacity="1" stroke-width="17" d=" M-98.5,0 C-98.5,0 -98.5,0 -98.5,0 C-98.5,23.45574951171875 -117.54425048828125,42.5 -141,42.5 C-164.45599365234375,42.5 -183.5,23.45599937438965 -183.5,0 M42.5,0 C42.5,0 42.5,0 42.5,0 C42.5,23.45574951171875 23.45574951171875,42.5 0,42.5 C-23.45574951171875,42.5 -42.5,23.45574951171875 -42.5,0 C-42.5,0 -42.5,0 -42.5,0"/></g><g transform="matrix(1,0,0,1,253,401.72601318359375)" opacity="1" style="display: block;"><g opacity="1" transform="matrix(1,0,0,1,0,0)"><path fill="rgb(134,64,31)" fill-opacity="1" d=" M-4,-9.5 C-9.246999740600586,-9.5 -13.5,-5.247000217437744 -13.5,0 C-13.5,5.247000217437744 -9.246999740600586,9.5 -4,9.5 C-4,9.5 4,9.5 4,9.5 C9.246999740600586,9.5 13.5,5.247000217437744 13.5,0 C13.5,-5.247000217437744 9.246999740600586,-9.5 4,-9.5 C4,-9.5 -4,-9.5 -4,-9.5z"/></g></g><g transform="matrix(1,0,0,1,252.72799682617188,395.29901123046875)" opacity="1" style="display: block;"><g opacity="1" transform="matrix(1,0,0,1,0,0)"><path fill="rgb(134,64,31)" fill-opacity="1" d=" M0,13.072999954223633 C-5.0960001945495605,13.072999954223633 -9.227999687194824,8.940999984741211 -9.227999687194824,3.8450000286102295 C-9.227999687194824,-1.2510000467300415 -0.3840000033378601,-13.072999954223633 0,-13.072999954223633 C0.3840000033378601,-13.072999954223633 9.227999687194824,-1.2510000467300415 9.227999687194824,3.8450000286102295 C9.227999687194824,8.940999984741211 5.0960001945495605,13.072999954223633 0,13.072999954223633z"/></g></g><g transform="matrix(1,0,0,1,283.5,350.22601318359375)" opacity="1" style="display: block;"><g opacity="1" transform="matrix(1,0,0,1,0,0)"><path stroke-linecap="round" stroke-linejoin="miter" fill-opacity="0" stroke-miterlimit="4" stroke="rgb(136,71,39)" stroke-opacity="1" stroke-width="9" d=" M-17.75,0.27399998903274536 C-17.75,0.27399998903274536 -0.75,0.27399998903274536 -0.75,0.27399998903274536 C-0.75,0.27399998903274536 17.75,0.27399998903274536 17.75,0.27399998903274536"/></g></g><g transform="matrix(1,0,0,1,222.93399047851562,331.7860107421875)" opacity="1" style="display: block;"><g opacity="1" transform="matrix(1,0,0,1,0,0)"><path stroke-linecap="round" stroke-linejoin="round" fill-opacity="0" stroke="rgb(136,70,39)" stroke-opacity="1" stroke-width="9.249" d=" M-20.954999923706055,-0.41999998688697815 C-2.3580000400543213,-8.413000106811523 14.734000205993652,-0.8579999804496765 20.954999923706055,3.9179999828338623"/></g></g><g transform="matrix(1,0,0,1,253.5,383.5)" opacity="1" style="display: block;"><g opacity="1" transform="matrix(1,0,0,1,0,0)"><path stroke-linecap="round" stroke-linejoin="miter" fill-opacity="0" stroke-miterlimit="4" stroke="rgb(136,71,39)" stroke-opacity="1" stroke-width="9" d=" M-34.40999984741211,30.947999954223633 C-27.70199966430664,40.202999114990234 -17.128000259399414,46.47200012207031 -5.058000087738037,47.3849983215332"/></g></g><g transform="matrix(1,0,0,1,192.6280059814453,309.8709716796875)" opacity="1" style="display: block;"><g opacity="1" transform="matrix(1,0,0,1,0,0)"><path fill="rgb(253,176,42)" fill-opacity="1" d=" M64.87200164794922,-36.64500045776367 C64.87200164794922,-36.64500045776367 -64.91500091552734,-36.64500045776367 -64.91500091552734,-36.64500045776367 C-64.91500091552734,-36.64500045776367 -51.084999084472656,36.64500045776367 -51.084999084472656,36.64500045776367 C-51.084999084472656,36.64500045776367 64.91500091552734,-24.624000549316406 64.91500091552734,-24.624000549316406 C64.91500091552734,-24.624000549316406 64.87200164794922,-36.64500045776367 64.87200164794922,-36.64500045776367z"/></g></g><g transform="matrix(1,0,0,1,312.4150085449219,309.8709716796875)" opacity="1" style="display: block;"><g opacity="1" transform="matrix(1,0,0,1,0,0)"><path fill="rgb(253,176,42)" fill-opacity="1" d=" M-64.87200164794922,-36.64500045776367 C-64.87200164794922,-36.64500045776367 64.91500091552734,-36.64500045776367 64.91500091552734,-36.64500045776367 C64.91500091552734,-36.64500045776367 51.084999084472656,36.64500045776367 51.084999084472656,36.64500045776367 C51.084999084472656,36.64500045776367 -64.91500091552734,-24.624000549316406 -64.91500091552734,-24.624000549316406 C-64.91500091552734,-24.624000549316406 -64.87200164794922,-36.64500045776367 -64.87200164794922,-36.64500045776367z"/></g></g><g transform="matrix(1,0,0,1,269.22698974609375,253.10498046875)" opacity="1" style="display: block;"><g opacity="1" transform="matrix(1,0,0,1,0,0)"><path fill="rgb(253,176,42)" fill-opacity="1" d=" M23.60700035095215,-25.458999633789062 C0.10599999874830246,-27.466999053955078 -20.573999404907227,-10.043999671936035 -22.582000732421875,13.456999778747559 C-22.582000732421875,13.456999778747559 -23.60700035095215,25.458999633789062 -23.60700035095215,25.458999633789062 C-0.10599999874830246,27.466999053955078 20.573999404907227,10.043999671936035 22.582000732421875,-13.456999778747559 C22.582000732421875,-13.456999778747559 23.60700035095215,-25.458999633789062 23.60700035095215,-25.458999633789062z"/></g></g><g transform="matrix(1,0,0,1,236.77200317382812,252.68597412109375)" opacity="1" style="display: block;"><g opacity="1" transform="matrix(1,0,0,1,0,0)"><path fill="rgb(253,176,42)" fill-opacity="1" d=" M23.60700035095215,25.458999633789062 C0.10599999874830246,27.466999053955078 -20.573999404907227,10.043999671936035 -22.582000732421875,-13.456999778747559 C-22.582000732421875,-13.456999778747559 -23.60700035095215,-25.458999633789062 -23.60700035095215,-25.458999633789062 C-0.10599999874830246,-27.466999053955078 20.573999404907227,-10.043999671936035 22.582000732421875,13.456999778747559 C22.582000732421875,13.456999778747559 23.60700035095215,25.458999633789062 23.60700035095215,25.458999633789062z"/></g></g></g></g></g></svg>