<svg xmlns="http://www.w3.org/2000/svg" viewBox="0 0 118 175" preserveAspectRatio="xMidYMid meet" style="width: 100%; height: 100%; transform: translate3d(0px, 0px, 0px);"><defs><clipPath id="__lottie_element_3992"><rect width="118" height="175" x="0" y="0"/></clipPath><clipPath id="__lottie_element_3994"><path d="M0,0 L236,0 L236,430 L0,430z"/></clipPath><clipPath id="__lottie_element_4032"><path d="M0,0 L236,0 L236,430 L0,430z"/></clipPath><mask id="__lottie_element_4034" mask-type="alpha"><g transform="matrix(0.7381500005722046,0,0,0.7381500005722046,101.70500183105469,151.5850067138672)" opacity="1" style="display: block;"><g opacity="1" transform="matrix(2,0,0,2,0,0)"><path fill="rgb(112,35,35)" fill-opacity="1" d=" M-6.063000202178955,-7.989999771118164 C-3.493000030517578,-8.84000015258789 -0.7429999709129333,-7.699999809265137 0.5170000195503235,-5.400000095367432 C1.347000002861023,-4.260000228881836 2.556999921798706,-3.190000057220459 4.247000217437744,-2.819999933242798 C4.247000217437744,-2.819999933242798 4.5269999504089355,-2.7899999618530273 4.5269999504089355,-2.7899999618530273 C4.5269999504089355,-2.7899999618530273 4.5269999504089355,-2.7899999618530273 4.5269999504089355,-2.7899999618530273 C4.5269999504089355,-2.7899999618530273 4.896999835968018,-2.75 4.896999835968018,-2.75 C7.896999835968018,-2.440000057220459 10.097000122070312,0.2199999988079071 9.82699966430664,3.2300000190734863 C9.567000389099121,6.269999980926514 6.88700008392334,8.510000228881836 3.8469998836517334,8.25 C-2.86299991607666,7.659999847412109 -7.7230000495910645,4.579999923706055 -9.572999954223633,-1.0099999904632568 C-10.532999992370605,-3.9000000953674316 -8.963000297546387,-7.03000020980835 -6.063000202178955,-7.989999771118164z"/></g></g></mask><clipPath id="__lottie_element_4039"><path d="M0,0 L236,0 L236,430 L0,430z"/></clipPath><mask id="__lottie_element_4070" mask-type="alpha"><g transform="matrix(1,0,0,1,115.73500061035156,154.98399353027344)" opacity="1" style="display: block;"><g opacity="1" transform="matrix(2,0,0,2,0,0)"><path fill="rgb(255,198,182)" fill-opacity="1" d=" M-15.543999671936035,-31.309999465942383 C-15.543999671936035,-31.309999465942383 15.545999526977539,-31.309999465942383 15.545999526977539,-31.309999465942383 C22.035999298095703,-31.309999465942383 27.29599952697754,-26.049999237060547 27.29599952697754,-19.559999465942383 C27.29599952697754,-19.559999465942383 27.29599952697754,31.309999465942383 27.29599952697754,31.309999465942383 C27.29599952697754,31.309999465942383 -27.29400062561035,31.309999465942383 -27.29400062561035,31.309999465942383 C-27.29400062561035,31.309999465942383 -27.29400062561035,-19.559999465942383 -27.29400062561035,-19.559999465942383 C-27.29400062561035,-26.049999237060547 -22.034000396728516,-31.309999465942383 -15.543999671936035,-31.309999465942383z"/></g></g></mask><mask id="__lottie_element_4100" mask-type="alpha"><g transform="matrix(1,0,0,1,117.51699829101562,276.5039978027344)" opacity="1" style="display: block;"><g opacity="1" transform="matrix(2,0,0,2,0,0)"><path fill="rgb(255,75,75)" fill-opacity="1" d=" M-24.56100082397461,-29.152999877929688 C-24.56100082397461,-29.152999877929688 24.55900001525879,-29.152999877929688 24.55900001525879,-29.152999877929688 C31.878999710083008,-29.152999877929688 37.79899978637695,-23.222999572753906 37.79899978637695,-15.913000106811523 C37.79899978637695,-14.932999610900879 37.68899917602539,-13.95300006866455 37.479000091552734,-12.993000030517578 C37.479000091552734,-12.993000030517578 30.27899932861328,18.836999893188477 30.27899932861328,18.836999893188477 C28.91900062561035,24.867000579833984 23.55900001525879,29.156999588012695 17.368999481201172,29.156999588012695 C17.368999481201172,29.156999588012695 -17.361000061035156,29.156999588012695 -17.361000061035156,29.156999588012695 C-23.551000595092773,29.156999588012695 -28.910999298095703,24.867000579833984 -30.2810001373291,18.836999893188477 C-30.2810001373291,18.836999893188477 -37.47100067138672,-12.993000030517578 -37.47100067138672,-12.993000030517578 C-39.08100128173828,-20.12299919128418 -34.611000061035156,-27.21299934387207 -27.481000900268555,-28.822999954223633 C-26.520999908447266,-29.042999267578125 -25.541000366210938,-29.152999877929688 -24.56100082397461,-29.152999877929688z"/></g></g></mask></defs><g clip-path="url(#__lottie_element_3992)"><g clip-path="url(#__lottie_element_3994)" transform="matrix(0.5,0,0,0.5,0,0)" opacity="1" style="display: block;"><g style="display: none;"><g><path/></g></g><g style="display: none;"><g><path/></g></g><g transform="matrix(1,0,0,1,94.01000213623047,421.97198486328125)" opacity="1" style="display: block;"><g opacity="1" transform="matrix(2,0,0,2,0,0)"><path fill="rgb(255,75,75)" fill-opacity="1" d=" M-7.804999828338623,-4.015999794006348 C-7.804999828338623,-4.015999794006348 7.804999828338623,-4.015999794006348 7.804999828338623,-4.015999794006348 C10.024999618530273,-4.015999794006348 11.824999809265137,-2.2160000801086426 11.824999809265137,0.004000000189989805 C11.824999809265137,2.2139999866485596 10.024999618530273,4.013999938964844 7.804999828338623,4.013999938964844 C7.804999828338623,4.013999938964844 -7.804999828338623,4.013999938964844 -7.804999828338623,4.013999938964844 C-10.024999618530273,4.013999938964844 -11.824999809265137,2.2139999866485596 -11.824999809265137,0.004000000189989805 C-11.824999809265137,-2.2160000801086426 -10.024999618530273,-4.015999794006348 -7.804999828338623,-4.015999794006348z"/></g></g><g transform="matrix(1,0,0,1,143.11300659179688,421.97198486328125)" opacity="1" style="display: block;"><g opacity="1" transform="matrix(2,0,0,2,0,0)"><path fill="rgb(255,75,75)" fill-opacity="1" d=" M-7.804999828338623,-4.015999794006348 C-7.804999828338623,-4.015999794006348 7.804999828338623,-4.015999794006348 7.804999828338623,-4.015999794006348 C10.024999618530273,-4.015999794006348 11.824999809265137,-2.2160000801086426 11.824999809265137,0.004000000189989805 C11.824999809265137,2.2139999866485596 10.024999618530273,4.013999938964844 7.804999828338623,4.013999938964844 C7.804999828338623,4.013999938964844 -7.804999828338623,4.013999938964844 -7.804999828338623,4.013999938964844 C-10.024999618530273,4.013999938964844 -11.824999809265137,2.2139999866485596 -11.824999809265137,0.004000000189989805 C-11.824999809265137,-2.2160000801086426 -10.024999618530273,-4.015999794006348 -7.804999828338623,-4.015999794006348z"/></g></g><g transform="matrix(1,0,0,1,118,214.25)" opacity="1" style="display: block;"><g opacity="1" transform="matrix(1,0,0,1,0,0)"><path stroke-linecap="round" stroke-linejoin="round" fill-opacity="0" stroke="rgb(255,198,183)" stroke-opacity="1" stroke-width="29" d=" M14,179.5 C14,179.5 14,155.75 14,155.75 C14,155.75 14,120.75 14,120.75"/></g></g><g transform="matrix(1,0,0,1,90.25,214.25)" opacity="1" style="display: block;"><g opacity="1" transform="matrix(1,0,0,1,0,0)"><path stroke-linecap="round" stroke-linejoin="round" fill-opacity="0" stroke="rgb(255,198,183)" stroke-opacity="1" stroke-width="29" d=" M14,179.5 C14,179.5 14,155.75 14,155.75 C14,155.75 14,120.75 14,120.75"/></g></g><g transform="matrix(1,0,0,1,104.43099975585938,346.14599609375)" opacity="1" style="display: block;"><g opacity="1" transform="matrix(2,0,0,2,0,0)"><path fill="rgb(209,33,33)" fill-opacity="1" d=" M-9.034000396728516,-19.575000762939453 C-9.034000396728516,-19.575000762939453 8.965999603271484,-19.575000762939453 8.965999603271484,-19.575000762939453 C9.53600025177002,-19.575000762939453 10.005999565124512,-19.104999542236328 10.005999565124512,-18.53499984741211 C10.005999565124512,-18.53499984741211 10.039999961853027,4.909999847412109 10.039999961853027,4.909999847412109 C10.039999961853027,5.480000019073486 9.569999694824219,5.949999809265137 9,5.949999809265137 C9,5.949999809265137 -9,5.949999809265137 -9,5.949999809265137 C-9.569999694824219,5.949999809265137 -10.039999961853027,5.480000019073486 -10.039999961853027,4.909999847412109 C-10.039999961853027,4.909999847412109 -10.074000358581543,-18.53499984741211 -10.074000358581543,-18.53499984741211 C-10.074000358581543,-19.104999542236328 -9.604000091552734,-19.575000762939453 -9.034000396728516,-19.575000762939453z"/></g></g><g transform="matrix(1,0,0,1,132.3939971923828,346.14599609375)" opacity="1" style="display: block;"><g opacity="1" transform="matrix(2,0,0,2,0,0)"><path fill="rgb(209,33,33)" fill-opacity="1" d=" M-9.069000244140625,-19.511999130249023 C-9.069000244140625,-19.511999130249023 8.930999755859375,-19.511999130249023 8.930999755859375,-19.511999130249023 C9.50100040435791,-19.511999130249023 9.970999717712402,-19.04199981689453 9.970999717712402,-18.472000122070312 C9.970999717712402,-18.472000122070312 10.039999961853027,4.909999847412109 10.039999961853027,4.909999847412109 C10.039999961853027,5.480000019073486 9.569999694824219,5.949999809265137 9,5.949999809265137 C9,5.949999809265137 -9,5.949999809265137 -9,5.949999809265137 C-9.569999694824219,5.949999809265137 -10.039999961853027,5.480000019073486 -10.039999961853027,4.909999847412109 C-10.039999961853027,4.909999847412109 -10.109000205993652,-18.472000122070312 -10.109000205993652,-18.472000122070312 C-10.109000205993652,-19.04199981689453 -9.638999938964844,-19.511999130249023 -9.069000244140625,-19.511999130249023z"/></g></g><g transform="matrix(1,0,0,1,116.35975646972656,202.6228485107422)" opacity="1" style="display: block;"><g opacity="1" transform="matrix(2,0,0,2,0,0)"><path fill="rgb(255,177,0)" fill-opacity="1" d=" M-41.72200012207031,-6.0980000495910645 C-41.72200012207031,-6.0980000495910645 41.71799850463867,-6.0980000495910645 41.71799850463867,-6.0980000495910645 C41.71799850463867,0.6420000195503235 36.257999420166016,6.1020002365112305 29.527999877929688,6.1020002365112305 C29.527999877929688,6.1020002365112305 -29.52199935913086,6.1020002365112305 -29.52199935913086,6.1020002365112305 C-36.1619987487793,6.1020002365112305 -41.551998138427734,0.8019999861717224 -41.72200012207031,-5.788000106811523 C-41.72200012207031,-5.788000106811523 -41.72200012207031,-6.0980000495910645 -41.72200012207031,-6.0980000495910645z"/><path stroke-linecap="butt" stroke-linejoin="round" fill-opacity="0" stroke="rgb(255,177,0)" stroke-opacity="1" stroke-width="1.339" d=" M-41.72200012207031,-6.0980000495910645 C-41.72200012207031,-6.0980000495910645 41.71799850463867,-6.0980000495910645 41.71799850463867,-6.0980000495910645 C41.71799850463867,0.6420000195503235 36.257999420166016,6.1020002365112305 29.527999877929688,6.1020002365112305 C29.527999877929688,6.1020002365112305 -29.52199935913086,6.1020002365112305 -29.52199935913086,6.1020002365112305 C-36.1619987487793,6.1020002365112305 -41.551998138427734,0.8019999861717224 -41.72200012207031,-5.788000106811523 C-41.72200012207031,-5.788000106811523 -41.72200012207031,-6.0980000495910645 -41.72200012207031,-6.0980000495910645z"/></g></g><g transform="matrix(1,0,0,1,50.170753479003906,186.3208465576172)" opacity="1" style="display: block;"><g opacity="1" transform="matrix(2,0,0,2,0,0)"><path fill="rgb(255,177,0)" fill-opacity="1" d=" M1.1890000104904175,-2.930000066757202 C1.1890000104904175,-1.75 1.1690000295639038,1.350000023841858 -2.2309999465942383,1.350000023841858 C-0.020999999716877937,3.509999990463257 0.20900000631809235,3.240000009536743 0.20900000631809235,3.240000009536743 C0.20900000631809235,3.240000009536743 1.7990000247955322,2.4000000953674316 1.7990000247955322,2.4000000953674316 C1.7990000247955322,2.4000000953674316 2.2290000915527344,-1.1699999570846558 2.2290000915527344,-1.1699999570846558 C2.2290000915527344,-1.1699999570846558 1.1890000104904175,-4.110000133514404 1.1890000104904175,-2.930000066757202z"/></g></g><g transform="matrix(1,0,0,1,183.4417724609375,186.3208465576172)" opacity="1" style="display: block;"><g opacity="1" transform="matrix(2,0,0,2,0,0)"><path fill="rgb(255,177,0)" fill-opacity="1" d=" M-1.190999984741211,-3.009999990463257 C-1.190999984741211,-3.009999990463257 -1.190999984741211,-2.559999942779541 -1.190999984741211,-2.559999942779541 C-1.1610000133514404,-1.2000000476837158 -0.8610000014305115,1.350000023841858 2.2290000915527344,1.350000023841858 C2.2290000915527344,1.350000023841858 1.6890000104904175,1.8700000047683716 1.6890000104904175,1.8700000047683716 C0.5590000152587891,2.940000057220459 -0.07100000232458115,3.4000000953674316 -0.210999995470047,3.240000009536743 C-0.210999995470047,3.240000009536743 -1.8009999990463257,2.4000000953674316 -1.8009999990463257,2.4000000953674316 C-1.8009999990463257,2.4000000953674316 -2.2309999465942383,-1.1699999570846558 -2.2309999465942383,-1.1699999570846558 C-2.2309999465942383,-1.1699999570846558 -1.9509999752044678,-1.9299999475479126 -1.9509999752044678,-1.9299999475479126 C-1.4709999561309814,-3.2200000286102295 -1.2109999656677246,-3.5799999237060547 -1.190999984741211,-3.009999990463257 C-1.190999984741211,-3.009999990463257 -1.190999984741211,-3.009999990463257 -1.190999984741211,-3.009999990463257z"/></g></g><g transform="matrix(1,0,0,1,117.46399688720703,257.7330017089844)" opacity="1" style="display: block;"><g opacity="1" transform="matrix(2,0,0,2,0,0)"><path fill="rgb(255,75,75)" fill-opacity="1" d=" M-36.86199951171875,-19.625 C-36.86199951171875,-19.625 36.858001708984375,-19.625 36.858001708984375,-19.625 C41.55799865722656,-19.625 45.77799987792969,-16.78499984741211 47.56800079345703,-12.444999694824219 C47.56800079345703,-12.444999694824219 52.678001403808594,-0.004999999888241291 52.678001403808594,-0.004999999888241291 C55.65800094604492,7.264999866485596 52.1879997253418,15.574999809265137 44.917999267578125,18.55500030517578 C43.198001861572266,19.264999389648438 41.36800003051758,19.625 39.518001556396484,19.625 C39.518001556396484,19.625 -39.52199935913086,19.625 -39.52199935913086,19.625 C-47.37200164794922,19.625 -53.742000579833984,13.255000114440918 -53.742000579833984,5.40500020980835 C-53.742000579833984,3.5450000762939453 -53.38199996948242,1.715000033378601 -52.672000885009766,-0.004999999888241291 C-52.672000885009766,-0.004999999888241291 -47.571998596191406,-12.444999694824219 -47.571998596191406,-12.444999694824219 C-45.78200149536133,-16.78499984741211 -41.5620002746582,-19.625 -36.86199951171875,-19.625z"/></g></g><g transform="matrix(1,0,0,1,116.77607727050781,134.160400390625)" opacity="1" style="display: block;"><g opacity="1" transform="matrix(2,0,0,2,0,0)"><path fill="rgb(255,177,0)" fill-opacity="1" d=" M-19.63800048828125,-29.524999618530273 C-19.63800048828125,-29.524999618530273 19.631999969482422,-29.524999618530273 19.631999969482422,-29.524999618530273 C26.531999588012695,-29.524999618530273 32.13199996948242,-23.934999465942383 32.13199996948242,-17.03499984741211 C32.13199996948242,-17.03499984741211 32.08700180053711,34.775001525878906 32.08700180053711,34.775001525878906 C32.08700180053711,34.775001525878906 -32.17300033569336,34.775001525878906 -32.17300033569336,34.775001525878906 C-32.17300033569336,34.775001525878906 -32.12799835205078,-17.03499984741211 -32.12799835205078,-17.03499984741211 C-32.12799835205078,-23.934999465942383 -26.538000106811523,-29.524999618530273 -19.63800048828125,-29.524999618530273z"/></g></g><g transform="matrix(1,0,0,1,56.23884582519531,133.2678680419922)" opacity="1" style="display: block;"><g opacity="1" transform="matrix(2,0,0,2,0,0)"><path fill="rgb(255,198,182)" fill-opacity="1" d=" M0,-6.02400016784668 C3.324645757675171,-6.02400016784668 6.02400016784668,-3.324645757675171 6.02400016784668,0 C6.02400016784668,3.324645757675171 3.324645757675171,6.02400016784668 0,6.02400016784668 C-3.324645757675171,6.02400016784668 -6.02400016784668,3.324645757675171 -6.02400016784668,0 C-6.02400016784668,-3.324645757675171 -3.324645757675171,-6.02400016784668 0,-6.02400016784668z"/></g></g><g transform="matrix(1,0,0,1,176.12335205078125,133.26824951171875)" opacity="1" style="display: block;"><g opacity="1" transform="matrix(2,0,0,2,0,0)"><path fill="rgb(255,198,182)" fill-opacity="1" d=" M0,-6.02400016784668 C3.324645757675171,-6.02400016784668 6.02400016784668,-3.324645757675171 6.02400016784668,0 C6.02400016784668,3.324645757675171 3.324645757675171,6.02400016784668 0,6.02400016784668 C-3.324645757675171,6.02400016784668 -6.02400016784668,3.324645757675171 -6.02400016784668,0 C-6.02400016784668,-3.324645757675171 -3.324645757675171,-6.02400016784668 0,-6.02400016784668z"/></g></g><g transform="matrix(1,0,0,1,115.75,217.5)" opacity="1" style="display: block;"><path fill="rgb(255,198,183)" fill-opacity="1" d=" M0,-55 C30.35449981689453,-55 55,-30.35449981689453 55,0 C55,30.35449981689453 30.35449981689453,55 0,55 C-30.35449981689453,55 -55,30.35449981689453 -55,0 C-55,-30.35449981689453 -30.35449981689453,-55 0,-55z"/></g><g transform="matrix(1,0,0,1,115.73500061035156,154.98399353027344)" opacity="1" style="display: block;"><g opacity="1" transform="matrix(2,0,0,2,0,0)"><path fill="rgb(255,198,182)" fill-opacity="1" d=" M-15.543999671936035,-31.309999465942383 C-15.543999671936035,-31.309999465942383 15.545999526977539,-31.309999465942383 15.545999526977539,-31.309999465942383 C22.035999298095703,-31.309999465942383 27.29599952697754,-26.049999237060547 27.29599952697754,-19.559999465942383 C27.29599952697754,-19.559999465942383 27.29599952697754,31.309999465942383 27.29599952697754,31.309999465942383 C27.29599952697754,31.309999465942383 -27.29400062561035,31.309999465942383 -27.29400062561035,31.309999465942383 C-27.29400062561035,31.309999465942383 -27.29400062561035,-19.559999465942383 -27.29400062561035,-19.559999465942383 C-27.29400062561035,-26.049999237060547 -22.034000396728516,-31.309999465942383 -15.543999671936035,-31.309999465942383z"/></g></g><g transform="matrix(1,0,0,1,117.51699829101562,276.5039978027344)" opacity="1" style="display: block;"><g opacity="1" transform="matrix(2,0,0,2,0,0)"><path fill="rgb(255,75,75)" fill-opacity="1" d=" M-24.56100082397461,-29.152999877929688 C-24.56100082397461,-29.152999877929688 24.55900001525879,-29.152999877929688 24.55900001525879,-29.152999877929688 C31.878999710083008,-29.152999877929688 37.79899978637695,-23.222999572753906 37.79899978637695,-15.913000106811523 C37.79899978637695,-14.932999610900879 37.68899917602539,-13.95300006866455 37.479000091552734,-12.993000030517578 C37.479000091552734,-12.993000030517578 30.27899932861328,18.836999893188477 30.27899932861328,18.836999893188477 C28.91900062561035,24.867000579833984 23.55900001525879,29.156999588012695 17.368999481201172,29.156999588012695 C17.368999481201172,29.156999588012695 -17.361000061035156,29.156999588012695 -17.361000061035156,29.156999588012695 C-23.551000595092773,29.156999588012695 -28.910999298095703,24.867000579833984 -30.2810001373291,18.836999893188477 C-30.2810001373291,18.836999893188477 -37.47100067138672,-12.993000030517578 -37.47100067138672,-12.993000030517578 C-39.08100128173828,-20.12299919128418 -34.611000061035156,-27.21299934387207 -27.481000900268555,-28.822999954223633 C-26.520999908447266,-29.042999267578125 -25.541000366210938,-29.152999877929688 -24.56100082397461,-29.152999877929688z"/></g></g><g mask="url(#__lottie_element_4100)" style="display: block;"><g transform="matrix(1,0,0,1,116.76699829101562,329.80999755859375)" opacity="1"><g opacity="1" transform="matrix(2,0,0,2,0,0)"><path fill="rgb(209,33,33)" fill-opacity="1" d=" M-48.19200134277344,-16.43600082397461 C-48.19200134277344,-16.43600082397461 48.1879997253418,-16.43600082397461 48.1879997253418,-16.43600082397461 C48.1879997253418,-16.43600082397461 48.1879997253418,16.43400001525879 48.1879997253418,16.43400001525879 C48.1879997253418,16.43400001525879 -48.19200134277344,16.43400001525879 -48.19200134277344,16.43400001525879 C-48.19200134277344,16.43400001525879 -48.19200134277344,-16.43600082397461 -48.19200134277344,-16.43600082397461z"/></g></g></g><g style="display: none;"><g><path/></g></g><g style="display: none;"><g><path/></g></g><g transform="matrix(1,0,0,1,60.85649871826172,109.02301025390625)" opacity="1" style="display: block;"><g opacity="1" transform="matrix(2,0,0,2,0,0)"><path fill="rgb(255,177,0)" fill-opacity="1" d=" M0.08699999749660492,-10.560999870300293 C3.496999979019165,-10.560999870300293 6.177000045776367,-7.801000118255615 6.177000045776367,-4.390999794006348 C6.177000045776367,-4.390999794006348 6.177000045776367,4.388999938964844 6.177000045776367,4.388999938964844 C6.177000045776367,7.798999786376953 3.4070000648498535,10.559000015258789 -0.003000000026077032,10.559000015258789 C0.07100000232458115,7.675000190734863 0.041999999433755875,7.817999839782715 0.041999999433755875,4.4079999923706055 C0.041999999433755875,4.4079999923706055 0.06199999898672104,-4.38100004196167 0.06199999898672104,-4.38100004196167 C0.06199999898672104,-7.790999889373779 0.07100000232458115,-8.63700008392334 0.08699999749660492,-10.560999870300293z"/></g></g><g transform="matrix(1,0,0,1,170.30389404296875,109.02354431152344)" opacity="1" style="display: block;"><g opacity="1" transform="matrix(2,0,0,2,0,0)"><path fill="rgb(255,177,0)" fill-opacity="1" d=" M-0.13899999856948853,-10.560999870300293 C-0.15199999511241913,-8.355999946594238 -0.13500000536441803,-7.796999931335449 -0.13500000536441803,-4.38700008392334 C-0.13500000536441803,-4.38700008392334 -0.13500000536441803,4.376999855041504 -0.13500000536441803,4.376999855041504 C-0.13500000536441803,7.7870001792907715 -0.15199999511241913,8.11299991607666 -0.1589999943971634,10.559000015258789 C-3.569000005722046,10.559000015258789 -6.172999858856201,7.798999786376953 -6.172999858856201,4.388999938964844 C-6.172999858856201,4.388999938964844 -6.172999858856201,-4.390999794006348 -6.172999858856201,-4.390999794006348 C-6.172999858856201,-7.801000118255615 -3.5490000247955322,-10.560999870300293 -0.13899999856948853,-10.560999870300293z"/></g></g><g transform="matrix(1,0,0,1,104.94743347167969,155.02212524414062)" opacity="1" style="display: block;"><g opacity="1" transform="matrix(2,0,0,2,0,0)"><path fill="rgb(242,165,119)" fill-opacity="1" d=" M-5.979000091552734,-4.099999904632568 C-5.519000053405762,-4.260000228881836 -5.019000053405762,-4.03000020980835 -4.848999977111816,-3.569999933242798 C-3.2690000534057617,0.8199999928474426 0.14100000262260437,2.759999990463257 5.611000061035156,2.3399999141693115 C6.091000080108643,2.299999952316284 6.520999908447266,2.6600000858306885 6.560999870300293,3.140000104904175 C6.591000080108643,3.630000114440918 6.230999946594238,4.050000190734863 5.750999927520752,4.090000152587891 C-0.4690000116825104,4.570000171661377 -4.638999938964844,2.200000047683716 -6.508999824523926,-2.9700000286102295 C-6.669000148773193,-3.430000066757202 -6.439000129699707,-3.930000066757202 -5.979000091552734,-4.099999904632568z"/></g></g><g transform="matrix(1,0,0,1,100.69081115722656,125.987548828125)" opacity="1" style="display: block;"><g opacity="1" transform="matrix(2,0,0,2,0,0)"><path fill="rgb(255,255,255)" fill-opacity="1" d=" M-0.003000000026077032,-9.145999908447266 C3.877000093460083,-9.145999908447266 7.017000198364258,-6.00600004196167 7.017000198364258,-2.135999917984009 C7.017000198364258,-2.135999917984009 7.017000198364258,2.134000062942505 7.017000198364258,2.134000062942505 C7.017000198364258,6.004000186920166 3.877000093460083,9.144000053405762 -0.003000000026077032,9.144000053405762 C-3.872999906539917,9.144000053405762 -7.013000011444092,6.004000186920166 -7.013000011444092,2.134000062942505 C-7.013000011444092,2.134000062942505 -7.013000011444092,-2.135999917984009 -7.013000011444092,-2.135999917984009 C-7.013000011444092,-6.00600004196167 -3.872999906539917,-9.145999908447266 -0.003000000026077032,-9.145999908447266z"/></g></g><g transform="matrix(1,0,0,1,133.70985412597656,125.98757934570312)" opacity="1" style="display: block;"><g opacity="1" transform="matrix(2,0,0,2,0,0)"><path fill="rgb(255,255,255)" fill-opacity="1" d=" M-0.003000000026077032,-9.145999908447266 C3.877000093460083,-9.145999908447266 7.017000198364258,-6.00600004196167 7.017000198364258,-2.135999917984009 C7.017000198364258,-2.135999917984009 7.017000198364258,2.134000062942505 7.017000198364258,2.134000062942505 C7.017000198364258,6.004000186920166 3.877000093460083,9.144000053405762 -0.003000000026077032,9.144000053405762 C-3.872999906539917,9.144000053405762 -7.013000011444092,6.004000186920166 -7.013000011444092,2.134000062942505 C-7.013000011444092,2.134000062942505 -7.013000011444092,-2.135999917984009 -7.013000011444092,-2.135999917984009 C-7.013000011444092,-6.00600004196167 -3.872999906539917,-9.145999908447266 -0.003000000026077032,-9.145999908447266z"/></g></g><g transform="matrix(1,0,0,1,104.31369018554688,126.27589416503906)" opacity="1" style="display: block;"><g opacity="1" transform="matrix(2,0,0,2,0,0)"><path fill="rgb(61,61,61)" fill-opacity="1" d=" M0.0010000000474974513,-5.125999927520752 C1.7410000562667847,-5.125999927520752 3.1519999504089355,-3.7160000801086426 3.1519999504089355,-1.9759999513626099 C3.1519999504089355,-1.9759999513626099 3.1519999504089355,1.9739999771118164 3.1519999504089355,1.9739999771118164 C3.1519999504089355,3.7139999866485596 1.7410000562667847,5.124000072479248 0.0010000000474974513,5.124000072479248 C-1.7389999628067017,5.124000072479248 -3.1480000019073486,3.7139999866485596 -3.1480000019073486,1.9739999771118164 C-3.1480000019073486,1.9739999771118164 -3.1480000019073486,-1.9759999513626099 -3.1480000019073486,-1.9759999513626099 C-3.1480000019073486,-2.0460000038146973 -3.1489999294281006,-2.115999937057495 -3.1389999389648438,-2.186000108718872 C-3.0290000438690186,-2.1659998893737793 -2.8989999294281006,-2.1559998989105225 -2.7790000438690186,-2.1559998989105225 C-1.4989999532699585,-2.1559998989105225 -0.4690000116825104,-3.186000108718872 -0.4690000116825104,-4.455999851226807 C-0.4690000116825104,-4.676000118255615 -0.49900001287460327,-4.875999927520752 -0.5590000152587891,-5.076000213623047 C-0.3790000081062317,-5.105999946594238 -0.1889999955892563,-5.125999927520752 0.0010000000474974513,-5.125999927520752z"/></g></g><g transform="matrix(1,0,0,1,129.60142517089844,126.18980407714844)" opacity="1" style="display: block;"><g opacity="1" transform="matrix(2,0,0,2,0,0)"><path fill="rgb(61,61,61)" fill-opacity="1" d=" M0.0010000000474974513,-5.125999927520752 C1.7410000562667847,-5.125999927520752 3.1519999504089355,-3.7160000801086426 3.1519999504089355,-1.9759999513626099 C3.1519999504089355,-1.9759999513626099 3.1519999504089355,1.9739999771118164 3.1519999504089355,1.9739999771118164 C3.1519999504089355,3.7139999866485596 1.7410000562667847,5.124000072479248 0.0010000000474974513,5.124000072479248 C-1.7389999628067017,5.124000072479248 -3.1480000019073486,3.7139999866485596 -3.1480000019073486,1.9739999771118164 C-3.1480000019073486,1.9739999771118164 -3.1480000019073486,-1.9759999513626099 -3.1480000019073486,-1.9759999513626099 C-3.1480000019073486,-2.0460000038146973 -3.1489999294281006,-2.115999937057495 -3.1389999389648438,-2.186000108718872 C-3.0290000438690186,-2.1659998893737793 -2.8989999294281006,-2.1559998989105225 -2.7790000438690186,-2.1559998989105225 C-1.4989999532699585,-2.1559998989105225 -0.4690000116825104,-3.186000108718872 -0.4690000116825104,-4.455999851226807 C-0.4690000116825104,-4.676000118255615 -0.49900001287460327,-4.875999927520752 -0.5590000152587891,-5.076000213623047 C-0.3790000081062317,-5.105999946594238 -0.1889999955892563,-5.125999927520752 0.0010000000474974513,-5.125999927520752z"/></g></g><g style="display: none;" transform="matrix(1,0,0,1,100.49919128417969,126.00033569335938)" opacity="1"><g opacity="1" transform="matrix(1,0,0,1,0,0)"><path fill="rgb(255,198,183)" fill-opacity="1" d=" M10.923211097717285,17.714963912963867 C8.691693305969238,20.240930557250977 4.810773849487305,21 0,21 C-14.039875030517578,21 -16,9.906068801879883 -16,9.906068801879883 C-16,9.906068801879883 -8.200846672058105,9.1378755569458 0.26343294978141785,11.903670310974121 C6.4378981590271,13.758295059204102 10.923211097717285,17.714963912963867 10.923211097717285,17.714963912963867z"/></g><g opacity="1" transform="matrix(1,0,0,1,0,0)"><path fill="rgb(255,198,183)" fill-opacity="1" d=" M21.38019371032715,17.4923152923584 C23.669830322265625,20.159563064575195 27.715421676635742,21 33.0321044921875,21 C47.498294830322266,21 49.5,9.818889617919922 49.5,9.818889617919922 C49.5,9.818889617919922 41.507598876953125,9.042228698730469 32.76142120361328,11.65490436553955 C26.088333129882812,13.447319030761719 21.38019371032715,17.4923152923584 21.38019371032715,17.4923152923584z"/></g></g><g style="display: none;" transform="matrix(1,0,0,1,133.49978637695312,126.00064086914062)" opacity="1"><g opacity="1" transform="matrix(1,0,0,1,0,0)"><path fill="rgb(255,198,183)" fill-opacity="1" d=" M16,-5.375123500823975 C16,-5.375123500823975 16,1.2559571266174316 16,1.2559571266174316 C16,1.2559571266174316 10.544041633605957,-4.355313301086426 -0.125,-4.355313301086426 C-9.687000274658203,-4.355313301086426 -16,-1.7639216184616089 -16,-1.7639216184616089 C-16,-1.7639216184616089 -16,-5.375123500823975 -16,-5.375123500823975 C-16,-14.21212387084961 -8.836999893188477,-21 0,-21 C8.836999893188477,-21 16,-14.21212387084961 16,-5.375123500823975z"/></g><g opacity="1" transform="matrix(1,0,0,1,-33.45000076293945,0)"><path fill="rgb(255,198,183)" fill-opacity="1" d=" M16,-5.375123500823975 C16,-5.375123500823975 16,-1.7146075963974 16,-1.7146075963974 C16,-1.7146075963974 9.44918155670166,-4.355313301086426 -0.125,-3.539991855621338 C-9.650659561157227,-2.7293295860290527 -16,1.555134654045105 -16,1.555134654045105 C-16,1.555134654045105 -16,-5.375123500823975 -16,-5.375123500823975 C-16,-14.21212387084961 -8.836999893188477,-21 0,-21 C8.836999893188477,-21 16,-14.21212387084961 16,-5.375123500823975z"/></g></g><g transform="matrix(1,0,0,1,116.99760437011719,142.9331817626953)" opacity="1" style="display: block;"><g opacity="1" transform="matrix(2,0,0,2,0,0)"><path fill="rgb(242,165,118)" fill-opacity="1" d=" M-0.004000000189989805,4.458000183105469 C1.7259999513626099,4.458000183105469 3.125999927520752,3.068000078201294 3.125999927520752,1.3380000591278076 C3.125999927520752,-0.38199999928474426 -0.004000000189989805,-4.461999893188477 -0.004000000189989805,-4.461999893188477 C-0.004000000189989805,-4.461999893188477 -0.39399999380111694,-3.931999921798706 -0.39399999380111694,-3.931999921798706 C-1.2339999675750732,-2.76200008392334 -3.124000072479248,-0.0020000000949949026 -3.124000072479248,1.3380000591278076 C-3.124000072479248,3.068000078201294 -1.7239999771118164,4.458000183105469 -0.004000000189989805,4.458000183105469z"/></g></g><g transform="matrix(1,0,0,1,97.03080749511719,143.11276245117188)" opacity="1" style="display: block;"><g opacity="1" transform="matrix(2,0,0,2,0,0)"><path fill="rgb(255,198,182)" fill-opacity="1" d=" M-4.761000156402588,-3.433000087738037 C-0.8510000109672546,-3.203000068664551 2.3289999961853027,-1.562999963760376 4.689000129699707,1.437000036239624 C4.689000129699707,1.437000036239624 4.919000148773193,1.746999979019165 4.919000148773193,1.746999979019165 C4.919000148773193,1.746999979019165 2.6589999198913574,3.437000036239624 2.6589999198913574,3.437000036239624 C0.8389999866485596,0.996999979019165 -1.5410000085830688,-0.3330000042915344 -4.580999851226807,-0.5830000042915344 C-4.580999851226807,-0.5830000042915344 -4.921000003814697,-0.6129999756813049 -4.921000003814697,-0.6129999756813049 C-4.921000003814697,-0.6129999756813049 -4.761000156402588,-3.433000087738037 -4.761000156402588,-3.433000087738037z"/></g></g><g style="display: block;" transform="matrix(1,0,0,1,118.32942962646484,152.85841369628906)" opacity="1"><g opacity="1" transform="matrix(2,0,0,2,0,0)"><path fill="rgb(255,198,182)" fill-opacity="1" d=" M15.065999984741211,-3.433000087738037 C10.967000007629395,-3.203000068664551 7.633999824523926,-1.562999963760376 5.159999847412109,1.437000036239624 C5.159999847412109,1.437000036239624 4.919000148773193,1.746999979019165 4.919000148773193,1.746999979019165 C4.919000148773193,1.746999979019165 6.572999954223633,5.822999954223633 6.572999954223633,5.822999954223633 C8.480999946594238,3.382999897003174 13.47599983215332,2.0280001163482666 16.663000106811523,1.777999997138977 C16.663000106811523,1.777999997138977 17.018999099731445,1.7480000257492065 17.018999099731445,1.7480000257492065 C17.018999099731445,1.7480000257492065 15.065999984741211,-3.433000087738037 15.065999984741211,-3.433000087738037z"/></g></g><g mask="url(#__lottie_element_4070)" style="display: block;"><g transform="matrix(0.9999921917915344,-0.003961886744946241,0.003961886744946241,0.9999921917915344,117.28526306152344,118.74827575683594)" opacity="1"><path fill="rgb(255,198,183)" fill-opacity="1" d=" M33.64500045776367,-38.013999938964844 C33.64500045776367,-38.013999938964844 33.64500045776367,-11.513999938964844 33.64500045776367,-11.513999938964844 C33.64500045776367,-11.513999938964844 -39.35499954223633,-11.51200008392334 -39.35499954223633,-11.51200008392334 C-39.35499954223633,-11.51200008392334 -39.35499954223633,-38.012001037597656 -39.35499954223633,-38.012001037597656 C-39.35499954223633,-38.012001037597656 33.64500045776367,-38.013999938964844 33.64500045776367,-38.013999938964844z"/></g></g><g transform="matrix(1,0,0,1,116.76438903808594,94.89324951171875)" opacity="1" style="display: block;"><g opacity="1" transform="matrix(2,0,0,2,0,0)"><path fill="rgb(255,75,75)" fill-opacity="1" d=" M-31.976999282836914,-3.941999912261963 C-31.976999282836914,-3.941999912261963 31.972999572753906,-3.941999912261963 31.972999572753906,-3.941999912261963 C33.042999267578125,-3.941999912261963 33.90299987792969,-3.072000026702881 33.90299987792969,-2.01200008392334 C33.90299987792969,-2.01200008392334 33.90299987792969,2.007999897003174 33.90299987792969,2.007999897003174 C33.90299987792969,3.078000068664551 33.042999267578125,3.937999963760376 31.972999572753906,3.937999963760376 C31.972999572753906,3.937999963760376 -31.976999282836914,3.937999963760376 -31.976999282836914,3.937999963760376 C-33.0369987487793,3.937999963760376 -33.90700149536133,3.078000068664551 -33.90700149536133,2.007999897003174 C-33.90700149536133,2.007999897003174 -33.90700149536133,-2.01200008392334 -33.90700149536133,-2.01200008392334 C-33.90700149536133,-3.072000026702881 -33.0369987487793,-3.941999912261963 -31.976999282836914,-3.941999912261963z"/></g></g><g style="display: none;"><g><path/></g></g><g transform="matrix(1,0,0,1,116.77555084228516,73.02890014648438)" opacity="1" style="display: block;"><g opacity="1" transform="matrix(2,0,0,2,0,0)"><path fill="rgb(255,177,0)" fill-opacity="1" d=" M0.003000000026077032,-13.38700008392334 C7.39300012588501,-13.38700008392334 13.383000373840332,-7.396999835968018 13.383000373840332,0.003000000026077032 C13.383000373840332,7.39300012588501 7.39300012588501,13.383000373840332 0.003000000026077032,13.383000373840332 C-7.396999835968018,13.383000373840332 -13.38700008392334,7.39300012588501 -13.38700008392334,0.003000000026077032 C-13.38700008392334,-7.396999835968018 -7.396999835968018,-13.38700008392334 0.003000000026077032,-13.38700008392334z"/></g></g><g transform="matrix(1,0,0,1,98.27754974365234,70.07391357421875)" opacity="1" style="display: block;"><g opacity="1" transform="matrix(2,0,0,2,0,0)"><path fill="rgb(255,177,0)" fill-opacity="1" d=" M-4.790999889373779,-8.37600040435791 C-4.790999889373779,-8.37600040435791 7.999000072479248,5.564000129699707 7.999000072479248,5.564000129699707 C8.668999671936035,6.314000129699707 8.418999671936035,7.504000186920166 7.508999824523926,7.9039998054504395 C3.1089999675750732,9.87399959564209 -2.1410000324249268,8.763999938964844 -5.451000213623047,5.084000110626221 C-8.75100040435791,1.3940000534057617 -9.300999641418457,-3.946000099182129 -6.901000022888184,-8.12600040435791 C-6.401000022888184,-8.996000289916992 -5.4710001945495605,-9.12600040435791 -4.790999889373779,-8.37600040435791z"/></g></g><g transform="matrix(1,0,0,1,116.0326919555664,212.84365844726562)" opacity="1" style="display: block;"><g opacity="1" transform="matrix(2,0,0,2,0,0)"><path fill="rgb(255,75,75)" fill-opacity="1" d=" M-28.33099937438965,-4.461999893188477 C-28.33099937438965,-4.461999893188477 28.339000701904297,-4.461999893188477 28.339000701904297,-4.461999893188477 C29.23900032043457,-4.461999893188477 29.9689998626709,-3.7320001125335693 29.9689998626709,-2.822000026702881 C29.9689998626709,-2.822000026702881 29.9689998626709,2.828000068664551 29.9689998626709,2.828000068664551 C29.9689998626709,3.7279999256134033 29.23900032043457,4.458000183105469 28.339000701904297,4.458000183105469 C28.339000701904297,4.458000183105469 -28.33099937438965,4.458000183105469 -28.33099937438965,4.458000183105469 C-29.240999221801758,4.458000183105469 -29.97100067138672,3.7279999256134033 -29.97100067138672,2.828000068664551 C-29.97100067138672,2.828000068664551 -29.97100067138672,-2.822000026702881 -29.97100067138672,-2.822000026702881 C-29.97100067138672,-3.7320001125335693 -29.240999221801758,-4.461999893188477 -28.33099937438965,-4.461999893188477z"/></g></g><g transform="matrix(1,0,0,1,117.22169494628906,250.18951416015625)" opacity="1" style="display: block;"><g opacity="1" transform="matrix(2,0,0,2,0,0)"><path fill="rgb(235,226,226)" fill-opacity="1" d=" M-2.007999897003174,-23.43199920654297 C-2.007999897003174,-23.43199920654297 2.01200008392334,-23.43199920654297 2.01200008392334,-23.43199920654297 C2.01200008392334,-23.43199920654297 2.003999948501587,17.92799949645996 2.003999948501587,17.92799949645996 C2.003999948501587,17.92799949645996 -2.0160000324249268,17.92799949645996 -2.0160000324249268,17.92799949645996 C-2.0160000324249268,17.92799949645996 -2.007999897003174,-23.43199920654297 -2.007999897003174,-23.43199920654297z"/></g></g><g transform="matrix(1,0,0,1,117.22269439697266,215.6696319580078)" opacity="1" style="display: block;"><g opacity="1" transform="matrix(2,0,0,2,0,0)"><path fill="rgb(235,226,226)" fill-opacity="1" d=" M-1.815999984741211,-6.172999858856201 C-1.815999984741211,-6.172999858856201 1.8140000104904175,-6.172999858856201 1.8140000104904175,-6.172999858856201 C2.364000082015991,-6.172999858856201 2.8440001010894775,-5.793000221252441 2.9739999771118164,-5.263000011444092 C2.9739999771118164,-5.263000011444092 5.374000072479248,4.706999778747559 5.374000072479248,4.706999778747559 C5.52400016784668,5.3470001220703125 5.133999824523926,5.986999988555908 4.49399995803833,6.13700008392334 C4.4039998054504395,6.1570000648498535 4.314000129699707,6.177000045776367 4.214000225067139,6.177000045776367 C4.214000225067139,6.177000045776367 -4.216000080108643,6.177000045776367 -4.216000080108643,6.177000045776367 C-4.875999927520752,6.177000045776367 -5.406000137329102,5.63700008392334 -5.406000137329102,4.986999988555908 C-5.406000137329102,4.88700008392334 -5.395999908447266,4.796999931335449 -5.375999927520752,4.706999778747559 C-5.375999927520752,4.706999778747559 -2.9760000705718994,-5.263000011444092 -2.9760000705718994,-5.263000011444092 C-2.8459999561309814,-5.793000221252441 -2.365999937057495,-6.172999858856201 -1.815999984741211,-6.172999858856201z"/></g></g><g transform="matrix(1,0,0,1,138.78431701660156,267.9072265625)" opacity="1" style="display: block;"><g opacity="1" transform="matrix(2,0,0,2,0,0)"><path fill="rgb(255,75,75)" fill-opacity="1" d=" M-12.788000106811523,-13.50100040435791 C-12.788000106811523,-13.50100040435791 27.802000045776367,-4.870999813079834 27.802000045776367,-4.870999813079834 C32.93199920654297,-3.7809998989105225 36.21200180053711,1.2589999437332153 35.12200164794922,6.388999938964844 C34.02199935913086,11.529000282287598 28.98200035095215,14.798999786376953 23.851999282836914,13.708999633789062 C23.851999282836914,13.708999633789062 -35.327999114990234,1.128999948501587 -35.327999114990234,1.128999948501587 C-33.14799880981445,-9.130999565124512 -23.058000564575195,-15.680999755859375 -12.788000106811523,-13.50100040435791z"/></g></g><g transform="matrix(1,0,0,1,72.99932098388672,257.2552490234375)" opacity="1" style="display: block;"><g opacity="1" transform="matrix(2,0,0,2,0,0)"><path fill="rgb(255,198,182)" fill-opacity="1" d=" M0,-9.5 C5.25,-9.5 9.5,-5.25 9.5,0 C9.5,5.25 5.25,9.5 0,9.5 C-5.25,9.5 -9.5,5.25 -9.5,0 C-9.5,-5.25 -5.25,-9.5 0,-9.5z"/></g></g><g transform="matrix(1,0,0,1,161.02432250976562,255.26223754882812)" opacity="1" style="display: block;"><g opacity="1" transform="matrix(2,0,0,2,0,0)"><path fill="rgb(255,198,182)" fill-opacity="1" d=" M0.2290000021457672,-9.5 C4.439000129699707,-9.5 8.008999824523926,-6.760000228881836 9.258999824523926,-2.9700000286102295 C9.559000015258789,-2.0399999618530273 5.479000091552734,9.5 0.2290000021457672,9.5 C-5.020999908447266,9.5 -9.270999908447266,5.25 -9.270999908447266,0 C-9.270999908447266,-5.25 -5.020999908447266,-9.5 0.2290000021457672,-9.5z"/></g></g><g transform="matrix(1,0,0,1,109.14531707763672,275.990234375)" opacity="1" style="display: block;"><g opacity="1" transform="matrix(2,0,0,2,0,0)"><path fill="rgb(255,75,75)" fill-opacity="1" d=" M-30.440000534057617,-10.5 C-30.440000534057617,-10.5 30.440000534057617,-10.5 30.440000534057617,-10.5 C33.2400016784668,-10.5 35.5,-8.239999771118164 35.5,-5.440000057220459 C35.5,-5.440000057220459 35.5,5.440000057220459 35.5,5.440000057220459 C35.5,8.239999771118164 33.2400016784668,10.5 30.440000534057617,10.5 C30.440000534057617,10.5 -30.440000534057617,10.5 -30.440000534057617,10.5 C-33.2400016784668,10.5 -35.5,8.239999771118164 -35.5,5.440000057220459 C-35.5,5.440000057220459 -35.5,-5.440000057220459 -35.5,-5.440000057220459 C-35.5,-8.239999771118164 -33.2400016784668,-10.5 -30.440000534057617,-10.5z"/></g></g><g transform="matrix(1,0,0,1,163.27731323242188,252.2312469482422)" opacity="1" style="display: block;"><g opacity="1" transform="matrix(2,0,0,2,0,0)"><path fill="rgb(255,198,182)" fill-opacity="1" d=" M-8.496000289916992,-2.253000020980835 C-8.496000289916992,-2.253000020980835 -0.5360000133514404,-5.322999954223633 -0.5360000133514404,-5.322999954223633 C2.74399995803833,-6.583000183105469 6.434000015258789,-5.123000144958496 7.964000225067139,-1.9630000591278076 C9.244000434875488,0.6869999766349792 8.133999824523926,3.867000102996826 5.484000205993652,5.146999835968018 C5.234000205993652,5.267000198364258 4.984000205993652,5.367000102996826 4.714000225067139,5.447000026702881 C4.714000225067139,5.447000026702881 4.593999862670898,5.486999988555908 4.593999862670898,5.486999988555908 C1.3639999628067017,6.4670000076293945 -2.0859999656677246,4.867000102996826 -3.4260001182556152,1.7769999504089355 C-4.076000213623047,0.2669999897480011 -4.665999889373779,-0.652999997138977 -5.176000118255615,-0.9729999899864197 C-6.145999908447266,-1.5829999446868896 -7.25600004196167,-2.013000011444092 -8.496000289916992,-2.253000020980835z"/></g></g><g clip-path="url(#__lottie_element_4032)" transform="matrix(1,0,0,1,0.603607177734375,10.0072021484375)" opacity="0" style="display: block;"><g transform="matrix(0.7381500005722046,0,0,0.7381500005722046,101.70500183105469,151.5850067138672)" opacity="1" style="display: block;"><g opacity="1" transform="matrix(2,0,0,2,0,0)"><path fill="rgb(112,35,35)" fill-opacity="1" d=" M-6.063000202178955,-7.989999771118164 C-3.493000030517578,-8.84000015258789 -0.7429999709129333,-7.699999809265137 0.5170000195503235,-5.400000095367432 C1.347000002861023,-4.260000228881836 2.556999921798706,-3.190000057220459 4.247000217437744,-2.819999933242798 C4.247000217437744,-2.819999933242798 4.5269999504089355,-2.7899999618530273 4.5269999504089355,-2.7899999618530273 C4.5269999504089355,-2.7899999618530273 4.5269999504089355,-2.7899999618530273 4.5269999504089355,-2.7899999618530273 C4.5269999504089355,-2.7899999618530273 4.896999835968018,-2.75 4.896999835968018,-2.75 C7.896999835968018,-2.440000057220459 10.097000122070312,0.2199999988079071 9.82699966430664,3.2300000190734863 C9.567000389099121,6.269999980926514 6.88700008392334,8.510000228881836 3.8469998836517334,8.25 C-2.86299991607666,7.659999847412109 -7.7230000495910645,4.579999923706055 -9.572999954223633,-1.0099999904632568 C-10.532999992370605,-3.9000000953674316 -8.963000297546387,-7.03000020980835 -6.063000202178955,-7.989999771118164z"/></g></g><g mask="url(#__lottie_element_4034)" style="display: block;"><g clip-path="url(#__lottie_element_4039)" transform="matrix(1,0,0,1,0,0)" opacity="1"><g transform="matrix(1,0,0,1,116.81600189208984,176.28599548339844)" opacity="1" style="display: block;"><g opacity="1" transform="matrix(2,0,0,2,0,0)"><path fill="rgb(178,50,50)" fill-opacity="1" d=" M0,-9.993499755859375 C5.515412330627441,-9.993499755859375 9.993499755859375,-5.515412330627441 9.993499755859375,0 C9.993499755859375,5.515412330627441 5.515412330627441,9.993499755859375 0,9.993499755859375 C-5.515412330627441,9.993499755859375 -9.993499755859375,5.515412330627441 -9.993499755859375,0 C-9.993499755859375,-5.515412330627441 -5.515412330627441,-9.993499755859375 0,-9.993499755859375z"/></g></g><g transform="matrix(1,0,0,1,97.96900177001953,140.1929931640625)" opacity="1" style="display: block;"><g opacity="1" transform="matrix(2,0,0,2,0,0)"><path fill="rgb(255,255,255)" fill-opacity="1" d=" M-2.680999994277954,-3.6559998989105225 C-1.6610000133514404,-3.6559998989105225 -0.7710000276565552,-3.135999917984009 -0.2409999966621399,-2.3459999561309814 C-0.2409999966621399,-2.3459999561309814 -0.2409999966621399,-3.00600004196167 -0.2409999966621399,-3.00600004196167 C-0.2409999966621399,-3.00600004196167 4.959000110626221,-3.00600004196167 4.959000110626221,-3.00600004196167 C6.568999767303467,-3.00600004196167 7.879000186920166,-1.6959999799728394 7.879000186920166,-0.0860000029206276 C7.879000186920166,-0.0860000029206276 7.879000186920166,0.734000027179718 7.879000186920166,0.734000027179718 C7.879000186920166,2.3440001010894775 6.568999767303467,3.6540000438690186 4.959000110626221,3.6540000438690186 C4.959000110626221,3.6540000438690186 2.678999900817871,3.6540000438690186 2.678999900817871,3.6540000438690186 C1.4789999723434448,3.6540000438690186 0.4490000009536743,2.934000015258789 -0.0010000000474974513,1.9040000438690186 C-0.45100000500679016,2.934000015258789 -1.4809999465942383,3.6540000438690186 -2.680999994277954,3.6540000438690186 C-2.680999994277954,3.6540000438690186 -4.960999965667725,3.6540000438690186 -4.960999965667725,3.6540000438690186 C-6.571000099182129,3.6540000438690186 -7.88100004196167,2.3440001010894775 -7.88100004196167,0.734000027179718 C-7.88100004196167,0.734000027179718 -7.88100004196167,-0.7360000014305115 -7.88100004196167,-0.7360000014305115 C-7.88100004196167,-2.3459999561309814 -6.571000099182129,-3.6559998989105225 -4.960999965667725,-3.6559998989105225 C-4.960999965667725,-3.6559998989105225 -2.680999994277954,-3.6559998989105225 -2.680999994277954,-3.6559998989105225z"/></g></g></g></g></g><g style="display: none;"><g><path/></g></g><g style="display: none;"><g><path/></g></g><g style="display: none;"><g><path/></g></g><g style="display: none;"><g><path/></g></g><g style="display: none;"><g><path/></g></g><g style="display: none;"><g><path/></g></g><g style="display: none;" transform="matrix(1,0,0,1,99.85167694091797,130.34725952148438)" opacity="1"><g opacity="1" transform="matrix(1,0,0,1,0,0)"><path stroke-linecap="round" stroke-linejoin="miter" fill-opacity="0" stroke-miterlimit="4" stroke="rgb(243,165,119)" stroke-opacity="1" stroke-width="5" d=" M-8.661999702453613,-4.998000144958496 C-6.932000160217285,-7.986999988555908 -3.6989998817443848,-10 0,-10 C0,-10 0,-10 0,-10 C5.519000053405762,-10 10,-5.519000053405762 10,0 C10,0.7120000123977661 9.925000190734863,1.406999945640564 9.784000396728516,2.0769999027252197"/></g><g opacity="1" transform="matrix(1,0,0,1,34.02899932861328,0)"><path stroke-linecap="round" stroke-linejoin="miter" fill-opacity="0" stroke-miterlimit="4" stroke="rgb(243,165,119)" stroke-opacity="1" stroke-width="5" d=" M-9.848999977111816,1.7380000352859497 C-9.947999954223633,1.1740000247955322 -10,0.5929999947547913 -10,0 C-10,-5.519000053405762 -5.519000053405762,-10 0,-10 C0,-10 0,-10 0,-10 C3.822000026702881,-10 7.146999835968018,-7.85099983215332 8.829000473022461,-4.696000099182129"/></g></g><g style="display: none;" transform="matrix(0.14444054663181305,0.10741011798381805,-0.10741011798381805,0.14444054663181305,110.99810028076172,166.10792541503906)" opacity="1"><path stroke-linecap="round" stroke-linejoin="miter" fill-opacity="0" stroke-miterlimit="4" stroke="rgb(241,173,155)" stroke-opacity="1" stroke-width="20" d=" M59.95100021362305,4.64300012588501 C57.577999114990234,35.6619987487793 31.62299919128418,60.12799835205078 0,60.12799835205078 C-12.159000396728516,60.12799835205078 -23.479999542236328,56.51100158691406 -32.94499969482422,50.29499816894531"/></g><g style="display: none;" transform="matrix(0.14444054663181305,0.10741011798381805,-0.10741011798381805,0.14444054663181305,110.99810028076172,166.10792541503906)" opacity="1"><path fill="rgb(112,35,35)" fill-opacity="1" d=" M0,-30.925710678100586 C17.067899703979492,-30.925710678100586 30.925710678100586,-17.067899703979492 30.925710678100586,0 C30.925710678100586,17.067899703979492 17.067899703979492,30.925710678100586 0,30.925710678100586 C-17.067899703979492,30.925710678100586 -30.925710678100586,17.067899703979492 -30.925710678100586,0 C-30.925710678100586,-17.067899703979492 -17.067899703979492,-30.925710678100586 0,-30.925710678100586z"/></g></g></g></svg>