<svg xmlns="http://www.w3.org/2000/svg" viewBox="0 0 118 175" preserveAspectRatio="xMidYMid meet" style="width: 100%; height: 100%; transform: translate3d(0px, 0px, 0px);"><defs><clipPath id="__lottie_element_18707"><rect width="118" height="175" x="0" y="0"/></clipPath><clipPath id="__lottie_element_18709"><path d="M0,0 L236,0 L236,430 L0,430z"/></clipPath><clipPath id="__lottie_element_18719"><path d="M0,0 L236,0 L236,430 L0,430z"/></clipPath><mask id="__lottie_element_18731" mask-type="alpha"><g transform="matrix(1,0,0,1,117.96150207519531,291.780517578125)" opacity="1" style="display: block;"><g opacity="1" transform="matrix(2,0,0,2,0,0)"><path fill="rgb(255,255,255)" fill-opacity="1" d=" M-0.0010000000474974513,-47.119998931884766 C20.7189998626709,-47.119998931884766 37.51900100708008,-30.31999969482422 37.51900100708008,-9.600000381469727 C37.51900100708008,-9.600000381469727 37.51900100708008,41.34000015258789 37.51900100708008,41.34000015258789 C37.51900100708008,44.529998779296875 34.92900085449219,47.119998931884766 31.73900032043457,47.119998931884766 C31.73900032043457,47.119998931884766 -31.740999221801758,47.119998931884766 -31.740999221801758,47.119998931884766 C-34.930999755859375,47.119998931884766 -37.520999908447266,44.529998779296875 -37.520999908447266,41.34000015258789 C-37.520999908447266,41.34000015258789 -37.520999908447266,-9.600000381469727 -37.520999908447266,-9.600000381469727 C-37.520999908447266,-30.31999969482422 -20.72100067138672,-47.119998931884766 -0.0010000000474974513,-47.119998931884766z"/></g></g></mask><mask id="__lottie_element_18738" mask-type="alpha"><g transform="matrix(1,0,0,1,121.00050354003906,140.50048828125)" opacity="1" style="display: block;"><path stroke-linecap="round" stroke-linejoin="miter" fill-opacity="0" stroke-miterlimit="4" stroke="rgb(178,50,50)" stroke-opacity="1" stroke-width="19" d=" M19.819000244140625,14.39799976348877 C16.222000122070312,19.339000701904297 10.822999954223633,22.88599967956543 4.591000080108643,24.06999969482422"/></g></mask><clipPath id="__lottie_element_18741"><path d="M0,0 L236,0 L236,430 L0,430z"/></clipPath><mask id="__lottie_element_18781" mask-type="alpha"><g transform="matrix(1.0700000524520874,0,0,1.0700000524520874,135.11351013183594,123.5474853515625)" opacity="1" style="display: block;"><g opacity="1" transform="matrix(2,0,0,2,0,0)"><path fill="rgb(255,255,255)" fill-opacity="1" d=" M-0.004000000189989805,-9.98900032043457 C4.216000080108643,-9.98900032043457 7.636000156402588,-6.568999767303467 7.636000156402588,-2.3589999675750732 C7.636000156402588,-2.3589999675750732 7.636000156402588,2.3510000705718994 7.636000156402588,2.3510000705718994 C7.636000156402588,6.571000099182129 4.216000080108643,9.991000175476074 -0.004000000189989805,9.991000175476074 C-4.214000225067139,9.991000175476074 -7.633999824523926,6.571000099182129 -7.633999824523926,2.3510000705718994 C-7.633999824523926,2.3510000705718994 -7.633999824523926,-2.3589999675750732 -7.633999824523926,-2.3589999675750732 C-7.633999824523926,-6.568999767303467 -4.214000225067139,-9.98900032043457 -0.004000000189989805,-9.98900032043457z"/></g></g></mask><mask id="__lottie_element_18785" mask-type="alpha"><g transform="matrix(1.0299999713897705,0,0,1.0299999713897705,99.11349487304688,123.2974853515625)" opacity="1" style="display: block;"><g opacity="1" transform="matrix(2,0,0,2,0,0)"><path fill="rgb(255,255,255)" fill-opacity="1" d=" M-0.004000000189989805,-9.98900032043457 C4.216000080108643,-9.98900032043457 7.636000156402588,-6.568999767303467 7.636000156402588,-2.3589999675750732 C7.636000156402588,-2.3589999675750732 7.636000156402588,2.3510000705718994 7.636000156402588,2.3510000705718994 C7.636000156402588,6.571000099182129 4.216000080108643,9.991000175476074 -0.004000000189989805,9.991000175476074 C-4.214000225067139,9.991000175476074 -7.633999824523926,6.571000099182129 -7.633999824523926,2.3510000705718994 C-7.633999824523926,2.3510000705718994 -7.633999824523926,-2.3589999675750732 -7.633999824523926,-2.3589999675750732 C-7.633999824523926,-6.568999767303467 -4.214000225067139,-9.98900032043457 -0.004000000189989805,-9.98900032043457z"/></g></g></mask><mask id="__lottie_element_18801" mask-type="alpha"><g transform="matrix(1,0,0,1,117.90650177001953,134.8074951171875)" opacity="1" style="display: block;"><g opacity="1" transform="matrix(2,0,0,2,0,0)"><path fill="rgb(255,202,163)" fill-opacity="1" d=" M-15.645000457763672,-23.636999130249023 C-15.645000457763672,-23.636999130249023 15.645000457763672,-23.636999130249023 15.645000457763672,-23.636999130249023 C28.344999313354492,-23.636999130249023 38.6349983215332,-13.347000122070312 38.6349983215332,-0.6470000147819519 C38.6349983215332,-0.6470000147819519 38.6349983215332,0.652999997138977 38.6349983215332,0.652999997138977 C38.6349983215332,13.343000411987305 28.344999313354492,23.632999420166016 15.645000457763672,23.632999420166016 C15.645000457763672,23.632999420166016 -15.645000457763672,23.632999420166016 -15.645000457763672,23.632999420166016 C-28.344999313354492,23.632999420166016 -38.6349983215332,13.343000411987305 -38.6349983215332,0.652999997138977 C-38.6349983215332,0.652999997138977 -38.6349983215332,-0.6470000147819519 -38.6349983215332,-0.6470000147819519 C-38.6349983215332,-13.347000122070312 -28.344999313354492,-23.636999130249023 -15.645000457763672,-23.636999130249023z"/></g></g></mask></defs><g clip-path="url(#__lottie_element_18707)"><g clip-path="url(#__lottie_element_18709)" transform="matrix(0.5,0,0,0.5,0,0.75)" opacity="1" style="display: block;"><g transform="matrix(1,0,0,1,88.09300231933594,419.8840026855469)" opacity="1" style="display: block;"><g opacity="1" transform="matrix(2,0,0,2,0,0)"><path fill="rgb(255,177,0)" fill-opacity="1" d=" M-9.194999694824219,-3.6010000705718994 C-9.194999694824219,-3.6010000705718994 9.194999694824219,-3.6010000705718994 9.194999694824219,-3.6010000705718994 C11.1850004196167,-3.6010000705718994 12.795000076293945,-1.9910000562667847 12.795000076293945,-0.0010000000474974513 C12.795000076293945,1.9889999628067017 11.1850004196167,3.5989999771118164 9.194999694824219,3.5989999771118164 C9.194999694824219,3.5989999771118164 -9.194999694824219,3.5989999771118164 -9.194999694824219,3.5989999771118164 C-11.1850004196167,3.5989999771118164 -12.795000076293945,1.9889999628067017 -12.795000076293945,-0.0010000000474974513 C-12.795000076293945,-1.9910000562667847 -11.1850004196167,-3.6010000705718994 -9.194999694824219,-3.6010000705718994z"/></g></g><g transform="matrix(1,0,0,1,147.85400390625,419.8840026855469)" opacity="1" style="display: block;"><g opacity="1" transform="matrix(2,0,0,2,0,0)"><path fill="rgb(255,177,0)" fill-opacity="1" d=" M-9.194999694824219,-3.6010000705718994 C-9.194999694824219,-3.6010000705718994 9.194999694824219,-3.6010000705718994 9.194999694824219,-3.6010000705718994 C11.1850004196167,-3.6010000705718994 12.795000076293945,-1.9910000562667847 12.795000076293945,-0.0010000000474974513 C12.795000076293945,1.9889999628067017 11.1850004196167,3.5989999771118164 9.194999694824219,3.5989999771118164 C9.194999694824219,3.5989999771118164 -9.194999694824219,3.5989999771118164 -9.194999694824219,3.5989999771118164 C-11.1850004196167,3.5989999771118164 -12.795000076293945,1.9889999628067017 -12.795000076293945,-0.0010000000474974513 C-12.795000076293945,-1.9910000562667847 -11.1850004196167,-3.6010000705718994 -9.194999694824219,-3.6010000705718994z"/></g></g><g transform="matrix(1,0,0,1,179.11549377441406,254.7135009765625)" opacity="1" style="display: block;"><g opacity="1" transform="matrix(2,0,0,2,0,0)"><path fill="rgb(200,105,1)" fill-opacity="1" d=" M-16.922000885009766,-17.5310001373291 C-13.182000160217285,-21.141000747680664 -7.211999893188477,-21.041000366210938 -3.6019999980926514,-17.291000366210938 C-3.6019999980926514,-17.291000366210938 17.158000946044922,4.198999881744385 17.158000946044922,4.198999881744385 C20.777999877929688,7.948999881744385 20.667999267578125,13.909000396728516 16.92799949645996,17.52899932861328 C13.178000450134277,21.138999938964844 7.2179999351501465,21.038999557495117 3.5980000495910645,17.288999557495117 C3.5980000495910645,17.288999557495117 -17.16200065612793,-4.201000213623047 -17.16200065612793,-4.201000213623047 C-20.77199935913086,-7.940999984741211 -20.672000885009766,-13.91100025177002 -16.922000885009766,-17.5310001373291 C-16.922000885009766,-17.5310001373291 -16.922000885009766,-17.5310001373291 -16.922000885009766,-17.5310001373291z"/></g></g><g transform="matrix(1,0,0,1,57.11649703979492,254.7135009765625)" opacity="1" style="display: block;"><g opacity="1" transform="matrix(2,0,0,2,0,0)"><path fill="rgb(200,105,1)" fill-opacity="1" d=" M16.92799949645996,-17.5310001373291 C20.667999267578125,-13.91100025177002 20.777999877929688,-7.940999984741211 17.158000946044922,-4.201000213623047 C17.158000946044922,-4.201000213623047 -3.6019999980926514,17.288999557495117 -3.6019999980926514,17.288999557495117 C-7.211999893188477,21.038999557495117 -13.182000160217285,21.138999938964844 -16.922000885009766,17.52899932861328 C-20.672000885009766,13.909000396728516 -20.77199935913086,7.948999881744385 -17.16200065612793,4.198999881744385 C-17.16200065612793,4.198999881744385 3.5980000495910645,-17.291000366210938 3.5980000495910645,-17.291000366210938 C7.2179999351501465,-21.041000366210938 13.178000450134277,-21.141000747680664 16.92799949645996,-17.5310001373291 C16.92799949645996,-17.5310001373291 16.92799949645996,-17.5310001373291 16.92799949645996,-17.5310001373291z"/></g></g><g transform="matrix(1,0,0,1,117.69750213623047,351.38848876953125)" opacity="1" style="display: block;"><g opacity="1" transform="matrix(2,0,0,2,0,0)"><path fill="rgb(115,63,7)" fill-opacity="1" d=" M-20.231000900268555,-28.04199981689453 C-20.231000900268555,-28.04199981689453 20.229000091552734,-28.04199981689453 20.229000091552734,-28.04199981689453 C22.16900062561035,-28.04199981689453 23.749000549316406,-26.461999893188477 23.749000549316406,-24.52199935913086 C23.749000549316406,-24.52199935913086 23.749000549316406,24.51799964904785 23.749000549316406,24.51799964904785 C23.749000549316406,26.468000411987305 22.16900062561035,28.038000106811523 20.229000091552734,28.038000106811523 C20.229000091552734,28.038000106811523 -20.231000900268555,28.038000106811523 -20.231000900268555,28.038000106811523 C-22.17099952697754,28.038000106811523 -23.750999450683594,26.468000411987305 -23.750999450683594,24.51799964904785 C-23.750999450683594,24.51799964904785 -23.750999450683594,-24.52199935913086 -23.750999450683594,-24.52199935913086 C-23.750999450683594,-26.461999893188477 -22.17099952697754,-28.04199981689453 -20.231000900268555,-28.04199981689453z"/></g></g><g transform="matrix(1,0,0,1,92.46649169921875,89.427001953125)" opacity="1" style="display: block;"><g opacity="1" transform="matrix(2,0,0,2,0,0)"><path fill="rgb(61,61,61)" fill-opacity="1" d=" M28.958999633789062,-0.003000000026077032 C28.958999633789062,12.54699993133545 18.788999557495117,22.716999053955078 6.249000072479248,22.716999053955078 C6.249000072479248,22.716999053955078 -6.250999927520752,22.716999053955078 -6.250999927520752,22.716999053955078 C-18.791000366210938,22.716999053955078 -28.961000442504883,12.54699993133545 -28.961000442504883,-0.003000000026077032 C-28.961000442504883,-12.543000221252441 -18.791000366210938,-22.71299934387207 -6.250999927520752,-22.71299934387207 C-6.250999927520752,-22.71299934387207 6.249000072479248,-22.71299934387207 6.249000072479248,-22.71299934387207 C18.788999557495117,-22.71299934387207 28.958999633789062,-12.543000221252441 28.958999633789062,-0.003000000026077032z"/></g></g><g transform="matrix(1,0,0,1,117.96150207519531,291.780517578125)" opacity="1" style="display: block;"><g opacity="1" transform="matrix(2,0,0,2,0,0)"><path fill="rgb(200,105,2)" fill-opacity="1" d=" M-0.0010000000474974513,-47.119998931884766 C20.7189998626709,-47.119998931884766 37.51900100708008,-30.31999969482422 37.51900100708008,-9.600000381469727 C37.51900100708008,-9.600000381469727 37.51900100708008,41.34000015258789 37.51900100708008,41.34000015258789 C37.51900100708008,44.529998779296875 34.92900085449219,47.119998931884766 31.73900032043457,47.119998931884766 C31.73900032043457,47.119998931884766 -31.740999221801758,47.119998931884766 -31.740999221801758,47.119998931884766 C-34.930999755859375,47.119998931884766 -37.520999908447266,44.529998779296875 -37.520999908447266,41.34000015258789 C-37.520999908447266,41.34000015258789 -37.520999908447266,-9.600000381469727 -37.520999908447266,-9.600000381469727 C-37.520999908447266,-30.31999969482422 -20.72100067138672,-47.119998931884766 -0.0010000000474974513,-47.119998931884766z"/></g></g><g mask="url(#__lottie_element_18731)" style="display: block;"><g clip-path="url(#__lottie_element_18719)" transform="matrix(1,0,0,1,0.0005035400390625,0.00048828125)" opacity="1"><g transform="matrix(1,0,0,1,117.96099853515625,291.7799987792969)" opacity="1" style="display: block;"><g opacity="1" transform="matrix(2,0,0,2,0,0)"><path fill="rgb(255,255,255)" fill-opacity="1" d=" M-0.0010000000474974513,-47.119998931884766 C8.015999794006348,-47.119998931884766 15.446999549865723,-44.60499954223633 21.54400062561035,-40.31999969482422 C31.204999923706055,-33.53200149536133 20.520000457763672,47.119998931884766 20.520000457763672,47.119998931884766 C20.520000457763672,47.119998931884766 -20.229999542236328,47.119998931884766 -20.229999542236328,47.119998931884766 C-20.229999542236328,47.119998931884766 -29.55699920654297,-36.27199935913086 -17.83300018310547,-42.61800003051758 C-12.529000282287598,-45.48899841308594 -6.454999923706055,-47.119998931884766 -0.0010000000474974513,-47.119998931884766z"/></g></g><g transform="matrix(1,0,0,1,125.94100189208984,199.072998046875)" opacity="1" style="display: block;"><g opacity="1" transform="matrix(2,0,0,2,0,0)"><path fill="rgb(255,202,163)" fill-opacity="1" d=" M0,-17.4685001373291 C9.640865325927734,-17.4685001373291 17.4685001373291,-9.640865325927734 17.4685001373291,0 C17.4685001373291,9.640865325927734 9.640865325927734,17.4685001373291 0,17.4685001373291 C-9.640865325927734,17.4685001373291 -17.4685001373291,9.640865325927734 -17.4685001373291,0 C-17.4685001373291,-9.640865325927734 -9.640865325927734,-17.4685001373291 0,-17.4685001373291z"/></g></g><g transform="matrix(1,0,0,1,187.38800048828125,291.7799987792969)" opacity="1" style="display: block;"><g opacity="1" transform="matrix(2,0,0,2,0,0)"><path fill="rgb(200,105,1)" fill-opacity="1" d=" M-22.448999404907227,-50.183998107910156 C-22.448999404907227,-50.183998107910156 22.451000213623047,-50.183998107910156 22.451000213623047,-50.183998107910156 C22.451000213623047,-50.183998107910156 22.451000213623047,50.18600082397461 22.451000213623047,50.18600082397461 C22.451000213623047,50.18600082397461 -22.448999404907227,50.18600082397461 -22.448999404907227,50.18600082397461 C-22.448999404907227,50.18600082397461 -22.448999404907227,-50.183998107910156 -22.448999404907227,-50.183998107910156z"/></g></g><g transform="matrix(1,0,0,1,47.332000732421875,291.7799987792969)" opacity="1" style="display: block;"><g opacity="1" transform="matrix(2,0,0,2,0,0)"><path fill="rgb(200,105,1)" fill-opacity="1" d=" M-22.909000396728516,-50.183998107910156 C-22.909000396728516,-50.183998107910156 22.910999298095703,-50.183998107910156 22.910999298095703,-50.183998107910156 C22.910999298095703,-50.183998107910156 22.910999298095703,50.18600082397461 22.910999298095703,50.18600082397461 C22.910999298095703,50.18600082397461 -22.909000396728516,50.18600082397461 -22.909000396728516,50.18600082397461 C-22.909000396728516,50.18600082397461 -22.909000396728516,-50.183998107910156 -22.909000396728516,-50.183998107910156z"/></g></g><g transform="matrix(1,0,0,1,117.78900146484375,327.177001953125)" opacity="1" style="display: block;"><g opacity="1" transform="matrix(2,0,0,2,0,0)"><path fill="rgb(115,63,7)" fill-opacity="1" d=" M-12.411999702453613,-31.260000228881836 C-12.411999702453613,-31.260000228881836 12.407999992370605,-31.260000228881836 12.407999992370605,-31.260000228881836 C12.407999992370605,-31.260000228881836 12.407999992370605,31.260000228881836 12.407999992370605,31.260000228881836 C12.407999992370605,31.260000228881836 -12.411999702453613,31.260000228881836 -12.411999702453613,31.260000228881836 C-12.411999702453613,31.260000228881836 -12.411999702453613,-31.260000228881836 -12.411999702453613,-31.260000228881836z"/></g></g></g></g><g transform="matrix(1,0,0,1,117.86650085449219,181.7375030517578)" opacity="1" style="display: block;"><g opacity="1" transform="matrix(2,0,0,2,0,0)"><path fill="rgb(255,202,163)" fill-opacity="1" d=" M0.004000000189989805,-25.5 C6.794000148773193,-25.5 12.303999900817871,-19.989999771118164 12.303999900817871,-13.1899995803833 C12.303999900817871,-13.1899995803833 12.303999900817871,13.1899995803833 12.303999900817871,13.1899995803833 C12.303999900817871,19.989999771118164 6.794000148773193,25.5 0.004000000189989805,25.5 C-6.796000003814697,25.5 -12.305999755859375,19.989999771118164 -12.305999755859375,13.1899995803833 C-12.305999755859375,13.1899995803833 -12.305999755859375,-13.1899995803833 -12.305999755859375,-13.1899995803833 C-12.305999755859375,-19.989999771118164 -6.796000003814697,-25.5 0.004000000189989805,-25.5z"/></g></g><g transform="matrix(1,0,0,1,197.17449951171875,132.968994140625)" opacity="1" style="display: block;"><g opacity="1" transform="matrix(2,0,0,2,0,0)"><path fill="rgb(255,202,163)" fill-opacity="1" d=" M0,-6.742499828338623 C3.7211856842041016,-6.742499828338623 6.742499828338623,-3.7211856842041016 6.742499828338623,0 C6.742499828338623,3.7211856842041016 3.7211856842041016,6.742499828338623 0,6.742499828338623 C-3.7211856842041016,6.742499828338623 -6.742499828338623,3.7211856842041016 -6.742499828338623,0 C-6.742499828338623,-3.7211856842041016 -3.7211856842041016,-6.742499828338623 0,-6.742499828338623z"/></g></g><g transform="matrix(1,0,0,1,35.35900115966797,132.968994140625)" opacity="1" style="display: block;"><g opacity="1" transform="matrix(2,0,0,2,0,0)"><path fill="rgb(255,202,163)" fill-opacity="1" d=" M0,-6.742499828338623 C3.7211856842041016,-6.742499828338623 6.742499828338623,-3.7211856842041016 6.742499828338623,0 C6.742499828338623,3.7211856842041016 3.7211856842041016,6.742499828338623 0,6.742499828338623 C-3.7211856842041016,6.742499828338623 -6.742499828338623,3.7211856842041016 -6.742499828338623,0 C-6.742499828338623,-3.7211856842041016 -3.7211856842041016,-6.742499828338623 0,-6.742499828338623z"/></g></g><g transform="matrix(1,0,0,1,36.89099884033203,147.281005859375)" opacity="1" style="display: block;"><g opacity="1" transform="matrix(2,0,0,2,0,0)"><path fill="rgb(200,105,1)" fill-opacity="1" d=" M0,-3.2179999351501465 C1.7760142087936401,-3.2179999351501465 3.2179999351501465,-1.7760142087936401 3.2179999351501465,0 C3.2179999351501465,1.7760142087936401 1.7760142087936401,3.2179999351501465 0,3.2179999351501465 C-1.7760142087936401,3.2179999351501465 -3.2179999351501465,1.7760142087936401 -3.2179999351501465,0 C-3.2179999351501465,-1.7760142087936401 -1.7760142087936401,-3.2179999351501465 0,-3.2179999351501465z"/></g></g><g transform="matrix(1,0,0,1,117.90650177001953,134.8074951171875)" opacity="1" style="display: block;"><g opacity="1" transform="matrix(2,0,0,2,0,0)"><path fill="rgb(255,202,163)" fill-opacity="1" d=" M-15.645000457763672,-23.636999130249023 C-15.645000457763672,-23.636999130249023 15.645000457763672,-23.636999130249023 15.645000457763672,-23.636999130249023 C28.344999313354492,-23.636999130249023 38.6349983215332,-13.347000122070312 38.6349983215332,-0.6470000147819519 C38.6349983215332,-0.6470000147819519 38.6349983215332,0.652999997138977 38.6349983215332,0.652999997138977 C38.6349983215332,13.343000411987305 28.344999313354492,23.632999420166016 15.645000457763672,23.632999420166016 C15.645000457763672,23.632999420166016 -15.645000457763672,23.632999420166016 -15.645000457763672,23.632999420166016 C-28.344999313354492,23.632999420166016 -38.6349983215332,13.343000411987305 -38.6349983215332,0.652999997138977 C-38.6349983215332,0.652999997138977 -38.6349983215332,-0.6470000147819519 -38.6349983215332,-0.6470000147819519 C-38.6349983215332,-13.347000122070312 -28.344999313354492,-23.636999130249023 -15.645000457763672,-23.636999130249023z"/></g></g><g mask="url(#__lottie_element_18801)" style="display: block;"><g transform="matrix(1,0,0,1,189.7775115966797,81.07550048828125)" opacity="0.6900000000000001"><g opacity="1" transform="matrix(2,0,0,2,0,0)"><path fill="rgb(195,195,195)" fill-opacity="1" d=" M-11.12399959564209,-16.106000900268555 C-11.12399959564209,-16.106000900268555 11.12600040435791,-16.106000900268555 11.12600040435791,-16.106000900268555 C15.685999870300293,-16.106000900268555 19.38599967956543,-12.406000137329102 19.38599967956543,-7.8460001945495605 C19.38599967956543,-7.8460001945495605 19.38599967956543,7.843999862670898 19.38599967956543,7.843999862670898 C19.38599967956543,12.404000282287598 15.685999870300293,16.104000091552734 11.12600040435791,16.104000091552734 C11.12600040435791,16.104000091552734 -11.12399959564209,16.104000091552734 -11.12399959564209,16.104000091552734 C-15.684000015258789,16.104000091552734 -19.384000778198242,12.404000282287598 -19.384000778198242,7.843999862670898 C-19.384000778198242,7.843999862670898 -19.384000778198242,-7.8460001945495605 -19.384000778198242,-7.8460001945495605 C-19.384000778198242,-12.406000137329102 -15.684000015258789,-16.106000900268555 -11.12399959564209,-16.106000900268555z"/></g></g></g><g transform="matrix(1,0,0,1,99.11349487304688,117.77450561523438)" opacity="1" style="display: block;"><g opacity="1" transform="matrix(2,0,0,2,0,0)"><path fill="rgb(232,154,94)" fill-opacity="1" d=" M-0.004000000189989805,-9.98900032043457 C4.216000080108643,-9.98900032043457 7.636000156402588,-6.568999767303467 7.636000156402588,-2.3589999675750732 C7.636000156402588,-2.3589999675750732 7.636000156402588,2.3510000705718994 7.636000156402588,2.3510000705718994 C7.636000156402588,6.571000099182129 4.216000080108643,9.991000175476074 -0.004000000189989805,9.991000175476074 C-4.214000225067139,9.991000175476074 -7.633999824523926,6.571000099182129 -7.633999824523926,2.3510000705718994 C-7.633999824523926,2.3510000705718994 -7.633999824523926,-2.3589999675750732 -7.633999824523926,-2.3589999675750732 C-7.633999824523926,-6.568999767303467 -4.214000225067139,-9.98900032043457 -0.004000000189989805,-9.98900032043457z"/></g></g><g transform="matrix(1,0,0,1,135.11351013183594,117.77450561523438)" opacity="1" style="display: block;"><g opacity="1" transform="matrix(2,0,0,2,0,0)"><path fill="rgb(232,154,94)" fill-opacity="1" d=" M-0.004000000189989805,-9.98900032043457 C4.216000080108643,-9.98900032043457 7.636000156402588,-6.568999767303467 7.636000156402588,-2.3589999675750732 C7.636000156402588,-2.3589999675750732 7.636000156402588,2.3510000705718994 7.636000156402588,2.3510000705718994 C7.636000156402588,6.571000099182129 4.216000080108643,9.991000175476074 -0.004000000189989805,9.991000175476074 C-4.214000225067139,9.991000175476074 -7.633999824523926,6.571000099182129 -7.633999824523926,2.3510000705718994 C-7.633999824523926,2.3510000705718994 -7.633999824523926,-2.3589999675750732 -7.633999824523926,-2.3589999675750732 C-7.633999824523926,-6.568999767303467 -4.214000225067139,-9.98900032043457 -0.004000000189989805,-9.98900032043457z"/></g></g><g transform="matrix(1,0,0,1,99.11349487304688,123.2974853515625)" opacity="1" style="display: block;"><g opacity="1" transform="matrix(2,0,0,2,0,0)"><path fill="rgb(255,255,255)" fill-opacity="1" d=" M-0.004000000189989805,-9.98900032043457 C4.216000080108643,-9.98900032043457 7.636000156402588,-6.568999767303467 7.636000156402588,-2.3589999675750732 C7.636000156402588,-2.3589999675750732 7.636000156402588,2.3510000705718994 7.636000156402588,2.3510000705718994 C7.636000156402588,6.571000099182129 4.216000080108643,9.991000175476074 -0.004000000189989805,9.991000175476074 C-4.214000225067139,9.991000175476074 -7.633999824523926,6.571000099182129 -7.633999824523926,2.3510000705718994 C-7.633999824523926,2.3510000705718994 -7.633999824523926,-2.3589999675750732 -7.633999824523926,-2.3589999675750732 C-7.633999824523926,-6.568999767303467 -4.214000225067139,-9.98900032043457 -0.004000000189989805,-9.98900032043457z"/></g></g><g transform="matrix(1,0,0,1,135.11351013183594,123.2974853515625)" opacity="1" style="display: block;"><g opacity="1" transform="matrix(2,0,0,2,0,0)"><path fill="rgb(255,255,255)" fill-opacity="1" d=" M-0.004000000189989805,-9.98900032043457 C4.216000080108643,-9.98900032043457 7.636000156402588,-6.568999767303467 7.636000156402588,-2.3589999675750732 C7.636000156402588,-2.3589999675750732 7.636000156402588,2.3510000705718994 7.636000156402588,2.3510000705718994 C7.636000156402588,6.571000099182129 4.216000080108643,9.991000175476074 -0.004000000189989805,9.991000175476074 C-4.214000225067139,9.991000175476074 -7.633999824523926,6.571000099182129 -7.633999824523926,2.3510000705718994 C-7.633999824523926,2.3510000705718994 -7.633999824523926,-2.3589999675750732 -7.633999824523926,-2.3589999675750732 C-7.633999824523926,-6.568999767303467 -4.214000225067139,-9.98900032043457 -0.004000000189989805,-9.98900032043457z"/></g></g><g transform="matrix(1,0,0,1,103.3905029296875,123.55349731445312)" opacity="1" style="display: block;"><g opacity="1" transform="matrix(2,0,0,2,0,0)"><path fill="rgb(61,61,61)" fill-opacity="1" d=" M0.0020000000949949026,-5.5980000495910645 C1.9019999504089355,-5.5980000495910645 3.441999912261963,-4.058000087738037 3.441999912261963,-2.1579999923706055 C3.441999912261963,-2.1579999923706055 3.441999912261963,2.1619999408721924 3.441999912261963,2.1619999408721924 C3.441999912261963,4.061999797821045 1.9019999504089355,5.6020002365112305 0.0020000000949949026,5.6020002365112305 C-1.8980000019073486,5.6020002365112305 -3.437999963760376,4.061999797821045 -3.437999963760376,2.1619999408721924 C-3.437999963760376,2.1619999408721924 -3.437999963760376,-2.1579999923706055 -3.437999963760376,-2.1579999923706055 C-3.437999963760376,-4.058000087738037 -1.8980000019073486,-5.5980000495910645 0.0020000000949949026,-5.5980000495910645z"/></g></g><g transform="matrix(1,0,0,1,131.9654998779297,123.323486328125)" opacity="1" style="display: block;"><g opacity="1" transform="matrix(2,0,0,2,0,0)"><path fill="rgb(61,61,61)" fill-opacity="1" d=" M0.0020000000949949026,-5.5980000495910645 C1.9019999504089355,-5.5980000495910645 3.441999912261963,-4.058000087738037 3.441999912261963,-2.1579999923706055 C3.441999912261963,-2.1579999923706055 3.441999912261963,2.1619999408721924 3.441999912261963,2.1619999408721924 C3.441999912261963,4.061999797821045 1.9019999504089355,5.6020002365112305 0.0020000000949949026,5.6020002365112305 C-1.8980000019073486,5.6020002365112305 -3.437999963760376,4.061999797821045 -3.437999963760376,2.1619999408721924 C-3.437999963760376,2.1619999408721924 -3.437999963760376,-2.1579999923706055 -3.437999963760376,-2.1579999923706055 C-3.437999963760376,-4.058000087738037 -1.8980000019073486,-5.5980000495910645 0.0020000000949949026,-5.5980000495910645z"/></g></g><g mask="url(#__lottie_element_18785)" style="display: block;"><g transform="matrix(1,0,0,1,99.11349487304688,111.0784912109375)" opacity="1"><g opacity="1" transform="matrix(2,0,0,2,0,0)"><path fill="rgb(232,154,94)" fill-opacity="1" d=" M-0.004000000189989805,-4.4629998207092285 C4.216000080108643,-4.4629998207092285 7.636000156402588,-1.0429999828338623 7.636000156402588,3.1670000553131104 C7.636000156402588,3.1670000553131104 7.636000156402588,4.4670000076293945 7.636000156402588,4.4670000076293945 C7.636000156402588,4.4670000076293945 0.35899999737739563,4.4670000076293945 0.35899999737739563,4.4670000076293945 C0.35899999737739563,4.4670000076293945 -7.633999824523926,4.4670000076293945 -7.633999824523926,4.4670000076293945 C-7.633999824523926,4.4670000076293945 -7.633999824523926,3.1670000553131104 -7.633999824523926,3.1670000553131104 C-7.633999824523926,-1.0429999828338623 -4.214000225067139,-4.4629998207092285 -0.004000000189989805,-4.4629998207092285z"/></g></g></g><g mask="url(#__lottie_element_18781)" style="display: block;"><g transform="matrix(1,0,0,1,135.11351013183594,111.0784912109375)" opacity="1"><g opacity="1" transform="matrix(2,0,0,2,0,0)"><path fill="rgb(232,154,94)" fill-opacity="1" d=" M-0.004000000189989805,-4.4629998207092285 C4.216000080108643,-4.4629998207092285 7.636000156402588,-1.0429999828338623 7.636000156402588,3.1670000553131104 C7.636000156402588,3.1670000553131104 7.636000156402588,4.4670000076293945 7.636000156402588,4.4670000076293945 C7.636000156402588,4.4670000076293945 0.35899999737739563,4.4670000076293945 0.35899999737739563,4.4670000076293945 C0.35899999737739563,4.4670000076293945 -7.633999824523926,4.4670000076293945 -7.633999824523926,4.4670000076293945 C-7.633999824523926,4.4670000076293945 -7.633999824523926,3.1670000553131104 -7.633999824523926,3.1670000553131104 C-7.633999824523926,-1.0429999828338623 -4.214000225067139,-4.4629998207092285 -0.004000000189989805,-4.4629998207092285z"/></g></g></g><g transform="matrix(1,0,0,1,117.0155029296875,140.57150268554688)" opacity="1" style="display: block;"><g opacity="1" transform="matrix(2,0,0,2,0,0)"><path fill="rgb(232,154,94)" fill-opacity="1" d=" M0.0020000000949949026,4.5929999351501465 C1.781999945640564,4.5929999351501465 3.2219998836517334,3.1530001163482666 3.2219998836517334,1.3830000162124634 C3.2219998836517334,-0.3970000147819519 0.0020000000949949026,-4.5970001220703125 0.0020000000949949026,-4.5970001220703125 C0.0020000000949949026,-4.5970001220703125 -3.2179999351501465,-0.3970000147819519 -3.2179999351501465,1.3830000162124634 C-3.2179999351501465,3.1530001163482666 -1.777999997138977,4.5929999351501465 0.0020000000949949026,4.5929999351501465z"/></g></g><g transform="matrix(1,0,0,1,141.2534942626953,138.88247680664062)" opacity="1" style="display: block;"><g opacity="1" transform="matrix(2,0,0,2,0,0)"><path fill="rgb(255,202,163)" fill-opacity="1" d=" M4.892000198364258,-2.6050000190734863 C4.081999778747559,-2.6050000190734863 -3.997999906539917,-1.2549999952316284 -7.168000221252441,1.0850000381469727 C-10.338000297546387,3.434999942779541 -1.1979999542236328,3.4049999713897705 -1.1979999542236328,3.4049999713897705 C-1.1979999542236328,3.4049999713897705 7.7220001220703125,2.3350000381469727 7.7220001220703125,2.3350000381469727 C7.7220001220703125,2.3350000381469727 5.711999893188477,-2.6050000190734863 4.892000198364258,-2.6050000190734863z"/></g></g><g style="display: none;"><g><path stroke-linecap="round" stroke-linejoin="miter" fill-opacity="0" stroke-miterlimit="4"/></g><g><path stroke-linecap="round" stroke-linejoin="miter" fill-opacity="0" stroke-miterlimit="4"/></g></g><g transform="matrix(1,0,0,1,118.7864990234375,360.73651123046875)" opacity="1" style="display: block;"><g opacity="1" transform="matrix(2,0,0,2,0,0)"><path fill="rgb(96,52,3)" fill-opacity="1" d=" M-0.9760000109672546,-23.368000030517578 C-0.9760000109672546,-23.368000030517578 0.9739999771118164,-23.368000030517578 0.9739999771118164,-23.368000030517578 C0.9739999771118164,-23.368000030517578 0.9739999771118164,23.371999740600586 0.9739999771118164,23.371999740600586 C0.9739999771118164,23.371999740600586 -0.9760000109672546,23.371999740600586 -0.9760000109672546,23.371999740600586 C-0.9760000109672546,23.371999740600586 -0.9760000109672546,-23.368000030517578 -0.9760000109672546,-23.368000030517578z"/></g></g><g transform="matrix(1,0,0,1,118.7864990234375,313.9525146484375)" opacity="1" style="display: block;"><g opacity="1" transform="matrix(2,0,0,2,0,0)"><path fill="rgb(96,52,3)" fill-opacity="1" d=" M4.396999835968018,0.004000000189989805 C4.396999835968018,0.5440000295639038 3.9570000171661377,0.9739999771118164 3.4170000553131104,0.9739999771118164 C3.4170000553131104,0.9739999771118164 -3.4130001068115234,0.9739999771118164 -3.4130001068115234,0.9739999771118164 C-3.953000068664551,0.9739999771118164 -4.39300012588501,0.5440000295639038 -4.39300012588501,0.004000000189989805 C-4.39300012588501,-0.5360000133514404 -3.953000068664551,-0.9760000109672546 -3.4130001068115234,-0.9760000109672546 C-3.4130001068115234,-0.9760000109672546 3.4170000553131104,-0.9760000109672546 3.4170000553131104,-0.9760000109672546 C3.9570000171661377,-0.9760000109672546 4.396999835968018,-0.5360000133514404 4.396999835968018,0.004000000189989805z"/></g></g><g transform="matrix(1,0,0,1,176.73350524902344,301.8114929199219)" opacity="1" style="display: block;"><g opacity="1" transform="matrix(2,0,0,2,0,0)"><path fill="rgb(255,202,163)" fill-opacity="1" d=" M-5.113999843597412,-7.934999942779541 C-5.113999843597412,-7.934999942779541 -4.314000129699707,-8.395000457763672 -4.314000129699707,-8.395000457763672 C0.19599999487400055,-10.994999885559082 5.955999851226807,-9.444999694824219 8.555999755859375,-4.945000171661377 C11.166000366210938,-0.4350000023841858 9.616000175476074,5.324999809265137 5.105999946594238,7.934999942779541 C5.105999946594238,7.934999942779541 4.315999984741211,8.395000457763672 4.315999984741211,8.395000457763672 C-0.1940000057220459,10.994999885559082 -5.953999996185303,9.444999694824219 -8.564000129699707,4.945000171661377 C-11.163999557495117,0.4350000023841858 -9.61400032043457,-5.324999809265137 -5.113999843597412,-7.934999942779541z"/></g></g><g transform="matrix(1,0,0,1,60.37949752807617,301.7445068359375)" opacity="1" style="display: block;"><g opacity="1" transform="matrix(2,0,0,2,0,0)"><path fill="rgb(255,202,163)" fill-opacity="1" d=" M4.315999984741211,-8.395000457763672 C4.315999984741211,-8.395000457763672 5.105999946594238,-7.934999942779541 5.105999946594238,-7.934999942779541 C9.616000175476074,-5.324999809265137 11.166000366210938,0.4350000023841858 8.555999755859375,4.945000171661377 C5.955999851226807,9.444999694824219 0.19599999487400055,10.994999885559082 -4.314000129699707,8.395000457763672 C-4.314000129699707,8.395000457763672 -5.113999843597412,7.934999942779541 -5.113999843597412,7.934999942779541 C-9.61400032043457,5.324999809265137 -11.163999557495117,-0.4350000023841858 -8.564000129699707,-4.945000171661377 C-5.953999996185303,-9.444999694824219 -0.1940000057220459,-10.994999885559082 4.315999984741211,-8.395000457763672z"/></g></g><g transform="matrix(1,0,0,1,193.11151123046875,284.7095031738281)" opacity="1" style="display: block;"><g opacity="1" transform="matrix(2,0,0,2,0,0)"><path fill="rgb(200,105,1)" fill-opacity="1" d=" M0.6320000290870667,13.27299976348877 C0.6320000290870667,13.27299976348877 -13.14799976348877,0.4230000078678131 -13.14799976348877,0.4230000078678131 C-13.14799976348877,0.4230000078678131 -3.1679999828338623,-10.277000427246094 -3.1679999828338623,-10.277000427246094 C0.38199999928474426,-14.086999893188477 6.3420000076293945,-14.29699993133545 10.152000427246094,-10.746999740600586 C13.961999893188477,-7.197000026702881 14.161999702453613,-1.2369999885559082 10.612000465393066,2.572999954223633 C10.612000465393066,2.572999954223633 0.6320000290870667,13.27299976348877 0.6320000290870667,13.27299976348877z"/></g></g><g transform="matrix(1,0,0,1,66.0094985961914,316.573486328125)" opacity="1" style="display: block;"><g opacity="1" transform="matrix(2,0,0,2,0,0)"><path fill="rgb(179,93,0)" fill-opacity="1" d=" M-11.081000328063965,-1.8960000276565552 C-11.081000328063965,-1.8960000276565552 11.079000473022461,-10.357000350952148 11.079000473022461,-10.357000350952148 C11.079000473022461,-10.357000350952148 11.079000473022461,2.753000020980835 11.079000473022461,2.753000020980835 C11.079000473022461,6.333000183105469 8.33899974822998,9.324000358581543 4.769000053405762,9.62399959564209 C4.769000053405762,9.62399959564209 -3.6010000705718994,10.333000183105469 -3.6010000705718994,10.333000183105469 C-7.401000022888184,10.652999877929688 -10.730999946594238,7.834000110626221 -11.060999870300293,4.044000148773193 C-11.071000099182129,3.8440001010894775 -11.081000328063965,3.6540000438690186 -11.081000328063965,3.4639999866485596 C-11.081000328063965,3.4639999866485596 -11.081000328063965,-1.8960000276565552 -11.081000328063965,-1.8960000276565552z"/></g></g><g transform="matrix(1,0,0,1,75.54350280761719,297.6715087890625)" opacity="1" style="display: block;"><g opacity="1" transform="matrix(2,0,0,2,0,0)"><path fill="rgb(255,202,163)" fill-opacity="1" d=" M0.07599999755620956,-4.015999794006348 C0.07599999755620956,-4.015999794006348 3.7960000038146973,-1.315999984741211 3.7960000038146973,-1.315999984741211 C5.265999794006348,-0.2460000067949295 5.5960001945495605,1.8140000104904175 4.526000022888184,3.2839999198913574 C3.4560000896453857,4.763999938964844 1.3960000276565552,5.084000110626221 -0.07400000095367432,4.013999938964844 C-0.07400000095367432,4.013999938964844 -3.7939999103546143,1.3140000104904175 -3.7939999103546143,1.3140000104904175 C-5.263999938964844,0.24400000274181366 -5.593999862670898,-1.815999984741211 -4.52400016784668,-3.2860000133514404 C-3.4539999961853027,-4.75600004196167 -1.3940000534057617,-5.085999965667725 0.07599999755620956,-4.015999794006348 C0.07599999755620956,-4.015999794006348 0.07599999755620956,-4.015999794006348 0.07599999755620956,-4.015999794006348z"/></g></g><g transform="matrix(1,0,0,1,171.10350036621094,316.54150390625)" opacity="1" style="display: block;"><g opacity="1" transform="matrix(2,0,0,2,0,0)"><path fill="rgb(179,93,0)" fill-opacity="1" d=" M-11.081000328063965,-10.340999603271484 C-11.081000328063965,-10.340999603271484 11.079000473022461,-1.88100004196167 11.079000473022461,-1.88100004196167 C11.079000473022461,-1.88100004196167 11.079000473022461,3.4489998817443848 11.079000473022461,3.4489998817443848 C11.079000473022461,7.249000072479248 7.999000072479248,10.33899974822998 4.189000129699707,10.33899974822998 C3.999000072479248,10.33899974822998 3.809000015258789,10.329000473022461 3.61899995803833,10.319000244140625 C3.61899995803833,10.319000244140625 -4.750999927520752,9.628999710083008 -4.750999927520752,9.628999710083008 C-8.331000328063965,9.329000473022461 -11.081000328063965,6.339000225067139 -11.081000328063965,2.759000062942505 C-11.081000328063965,2.759000062942505 -11.081000328063965,-10.340999603271484 -11.081000328063965,-10.340999603271484z"/></g></g><g transform="matrix(1,0,0,1,44.001502990722656,284.7095031738281)" opacity="1" style="display: block;"><g opacity="1" transform="matrix(2,0,0,2,0,0)"><path fill="rgb(200,105,1)" fill-opacity="1" d=" M-10.14799976348877,-10.746999740600586 C-6.3480000495910645,-14.29699993133545 -0.3779999911785126,-14.086999893188477 3.171999931335449,-10.277000427246094 C3.171999931335449,-10.277000427246094 13.152000427246094,0.4230000078678131 13.152000427246094,0.4230000078678131 C13.152000427246094,0.4230000078678131 -0.6380000114440918,13.27299976348877 -0.6380000114440918,13.27299976348877 C-0.6380000114440918,13.27299976348877 -10.618000030517578,2.572999954223633 -10.618000030517578,2.572999954223633 C-14.168000221252441,-1.2369999885559082 -13.958000183105469,-7.197000026702881 -10.14799976348877,-10.746999740600586z"/></g></g><g transform="matrix(1,0,0,1,161.56849670410156,297.6724853515625)" opacity="1" style="display: block;"><g opacity="1" transform="matrix(2,0,0,2,0,0)"><path fill="rgb(255,202,163)" fill-opacity="1" d=" M-3.7939999103546143,-1.315999984741211 C-3.7939999103546143,-1.315999984741211 -0.07400000095367432,-4.015999794006348 -0.07400000095367432,-4.015999794006348 C1.3960000276565552,-5.085999965667725 3.4560000896453857,-4.75600004196167 4.526000022888184,-3.2860000133514404 C5.5960001945495605,-1.815999984741211 5.265999794006348,0.24400000274181366 3.7960000038146973,1.3140000104904175 C3.7960000038146973,1.3140000104904175 0.07599999755620956,4.013999938964844 0.07599999755620956,4.013999938964844 C-1.3940000534057617,5.084000110626221 -3.4539999961853027,4.763999938964844 -4.52400016784668,3.2839999198913574 C-5.593999862670898,1.8140000104904175 -5.263999938964844,-0.2460000067949295 -3.7939999103546143,-1.315999984741211z"/></g></g><g transform="matrix(1,0,0,1,67.63349914550781,92.33648681640625)" opacity="1" style="display: block;"><g opacity="1" transform="matrix(2,0,0,2,0,0)"><path fill="rgb(61,61,61)" fill-opacity="1" d=" M16.854000091552734,-1.6399999856948853 C16.854000091552734,-1.6399999856948853 16.854000091552734,1.6399999856948853 16.854000091552734,1.6399999856948853 C16.854000091552734,10.949999809265137 9.303999900817871,18.5 0.004000000189989805,18.5 C-9.305999755859375,18.5 -16.856000900268555,10.949999809265137 -16.856000900268555,1.6399999856948853 C-16.856000900268555,1.6399999856948853 -16.856000900268555,-1.6399999856948853 -16.856000900268555,-1.6399999856948853 C-16.856000900268555,-10.949999809265137 -9.305999755859375,-18.5 0.004000000189989805,-18.5 C9.303999900817871,-18.5 16.854000091552734,-10.949999809265137 16.854000091552734,-1.6399999856948853z"/></g></g><g style="display: none;"><path stroke-linecap="round" stroke-linejoin="miter" fill-opacity="0" stroke-miterlimit="4"/></g><g mask="url(#__lottie_element_18738)" style="display: block;"><g clip-path="url(#__lottie_element_18741)" transform="matrix(1,0,0,1,-1.0934982299804688,0.00048828125)" opacity="0"><g transform="matrix(1,0,0,1,121.68199920654297,180.03700256347656)" opacity="1" style="display: block;"><g opacity="1" transform="matrix(2,0,0,2,0,0)"><path fill="rgb(240,76,76)" fill-opacity="1" d=" M0.0020000000949949026,8.371999740600586 C4.622000217437744,8.371999740600586 8.371999740600586,4.622000217437744 8.371999740600586,0.0020000000949949026 C8.371999740600586,-4.618000030517578 4.622000217437744,-8.368000030517578 0.0020000000949949026,-8.368000030517578 C-4.618000030517578,-8.368000030517578 -8.368000030517578,-4.618000030517578 -8.368000030517578,0.0020000000949949026 C-8.368000030517578,4.622000217437744 -4.618000030517578,8.371999740600586 0.0020000000949949026,8.371999740600586z"/></g></g><g transform="matrix(1,0,0,1,134.08799743652344,150.35800170898438)" opacity="1" style="display: block;"><g opacity="1" transform="matrix(2,0,0,2,0,0)"><path fill="rgb(255,255,255)" fill-opacity="1" d=" M-8.96399974822998,-2.7890000343322754 C-8.96399974822998,-2.7890000343322754 6.515999794006348,-2.7890000343322754 6.515999794006348,-2.7890000343322754 C7.866000175476074,-2.7890000343322754 8.965999603271484,-1.6890000104904175 8.965999603271484,-0.33899998664855957 C8.965999603271484,-0.33899998664855957 8.965999603271484,0.3409999907016754 8.965999603271484,0.3409999907016754 C8.965999603271484,1.690999984741211 7.866000175476074,2.7909998893737793 6.515999794006348,2.7909998893737793 C6.515999794006348,2.7909998893737793 -6.513999938964844,2.7909998893737793 -6.513999938964844,2.7909998893737793 C-7.863999843597412,2.7909998893737793 -8.96399974822998,1.690999984741211 -8.96399974822998,0.3409999907016754 C-8.96399974822998,0.3409999907016754 -8.96399974822998,-2.7890000343322754 -8.96399974822998,-2.7890000343322754z"/></g></g></g></g><g transform="matrix(1,0,0,1,129.78750610351562,154.22750854492188)" opacity="1" style="display: block;"><g opacity="1" transform="matrix(2,0,0,2,0,0)"><path fill="rgb(232,154,94)" fill-opacity="1" d=" M-4.1529998779296875,1.8300000429153442 C-0.08299999684095383,1.3200000524520874 2.256999969482422,-0.3199999928474426 3.0769999027252197,-3.0999999046325684 C3.2269999980926514,-3.630000114440918 3.7769999504089355,-3.930000066757202 4.316999912261963,-3.7799999713897705 C4.8470001220703125,-3.630000114440918 5.146999835968018,-3.069999933242798 4.997000217437744,-2.5399999618530273 C3.937000036239624,1.090000033378601 0.8970000147819519,3.2200000286102295 -3.9130001068115234,3.809999942779541 C-4.453000068664551,3.880000114440918 -4.953000068664551,3.490000009536743 -5.0229997634887695,2.940000057220459 C-5.0929999351501465,2.390000104904175 -4.703000068664551,1.899999976158142 -4.1529998779296875,1.8300000429153442z"/></g></g></g></g></svg>