<svg xmlns="http://www.w3.org/2000/svg" viewBox="0 0 118 175" preserveAspectRatio="xMidYMid meet" style="width: 100%; height: 100%; transform: translate3d(0px, 0px, 0px);"><defs><clipPath id="__lottie_element_10858"><rect width="118" height="175" x="0" y="0"/></clipPath><clipPath id="__lottie_element_10860"><path d="M0,0 L236,0 L236,430 L0,430z"/></clipPath><clipPath id="__lottie_element_10898"><path d="M0,0 L63,0 L63,47 L0,47z"/></clipPath></defs><g clip-path="url(#__lottie_element_10858)"><g clip-path="url(#__lottie_element_10860)" transform="matrix(0.5,0,0,0.5,0,0)" opacity="1" style="display: block;"><g transform="matrix(1,0,0,1,118,299)" opacity="1" style="display: block;"><path stroke-linecap="butt" stroke-linejoin="miter" fill-opacity="0" stroke-miterlimit="4" stroke="rgb(255,255,255)" stroke-opacity="1" stroke-width="1" d=" M0,-101.5 C56.01784896850586,-101.5 101.5,-56.01784896850586 101.5,0 C101.5,56.01784896850586 56.01784896850586,101.5 0,101.5 C-56.01784896850586,101.5 -101.5,56.01784896850586 -101.5,0 C-101.5,-56.01784896850586 -56.01784896850586,-101.5 0,-101.5z"/></g><g transform="matrix(1,0,0,1,117.9990005493164,221.48599243164062)" opacity="1" style="display: block;"><g opacity="1" transform="matrix(2,0,0,2,0,0)"><path fill="rgb(47,226,255)" fill-opacity="1" d=" M-44.95199966430664,-11.597000122070312 C-44.95199966430664,-11.597000122070312 44.77799987792969,-11.597000122070312 44.77799987792969,-11.597000122070312 C46.0880012512207,-11.597000122070312 47.198001861572266,-10.647000312805176 47.40800094604492,-9.357000350952148 C47.40800094604492,-9.357000350952148 50.31800079345703,8.503000259399414 50.31800079345703,8.503000259399414 C50.54800033569336,9.95300006866455 49.56800079345703,11.322999954223633 48.108001708984375,11.562999725341797 C47.96799850463867,11.583000183105469 47.827999114990234,11.593000411987305 47.6879997253418,11.593000411987305 C47.6879997253418,11.593000411987305 -47.68199920654297,11.593000411987305 -47.68199920654297,11.593000411987305 C-49.1619987487793,11.593000411987305 -50.35200119018555,10.402999877929688 -50.35200119018555,8.932999610900879 C-50.35200119018555,8.793000221252441 -50.34199905395508,8.663000106811523 -50.321998596191406,8.52299976348877 C-50.321998596191406,8.52299976348877 -47.582000732421875,-9.336999893188477 -47.582000732421875,-9.336999893188477 C-47.391998291015625,-10.63700008392334 -46.27199935913086,-11.597000122070312 -44.95199966430664,-11.597000122070312z"/></g></g><g transform="matrix(1,0,0,1,118,222)" opacity="1" style="display: block;"><path fill="rgb(165,102,68)" fill-opacity="1" d=" M0,-89.5 C49.395050048828125,-89.5 89.5,-49.395050048828125 89.5,0 C89.5,49.395050048828125 49.395050048828125,89.5 0,89.5 C-49.395050048828125,89.5 -89.5,49.395050048828125 -89.5,0 C-89.5,-49.395050048828125 -49.395050048828125,-89.5 0,-89.5z"/></g><g transform="matrix(1,0,0,1,118,220.9340057373047)" opacity="1" style="display: block;"><g opacity="1" transform="matrix(2,0,0,2,0,0)"><path fill="rgb(165,102,68)" fill-opacity="1" d=" M-11.802000045776367,-89.73799896240234 C-11.802000045776367,-89.73799896240234 11.79800033569336,-89.73799896240234 11.79800033569336,-89.73799896240234 C22.70800018310547,-89.73799896240234 32.007999420166016,-81.81800079345703 33.74800109863281,-71.0479965209961 C33.74800109863281,-71.0479965209961 45.29399871826172,0.6510000228881836 45.29399871826172,0.6510000228881836 C45.29399871826172,0.6510000228881836 -0.06199999898672104,1.1169999837875366 -0.06199999898672104,1.1169999837875366 C-0.06199999898672104,1.1169999837875366 -45.26100158691406,0.44600000977516174 -45.26100158691406,0.44600000977516174 C-45.26100158691406,0.44600000977516174 -33.742000579833984,-71.0479965209961 -33.742000579833984,-71.0479965209961 C-32.012001037597656,-81.81800079345703 -22.711999893188477,-89.73799896240234 -11.802000045776367,-89.73799896240234z"/></g></g><g transform="matrix(1,0,0,1,118,220.93399047851562)" opacity="1" style="display: block;"><g opacity="1" transform="matrix(2,0,0,2,0,0)"><path fill="rgb(165,102,68)" fill-opacity="1" d=" M-11.902999877929688,0.7620000243186951 C-11.902999877929688,0.7620000243186951 11.696999549865723,0.7620000243186951 11.696999549865723,0.7620000243186951 C22.60700035095215,0.7620000243186951 45.268001556396484,0.49000000953674316 45.268001556396484,0.49000000953674316 C45.268001556396484,0.49000000953674316 55.20800018310547,62.21200180053711 55.20800018310547,62.21200180053711 C57.28799819946289,75.16200256347656 48.487998962402344,87.35199737548828 35.53799819946289,89.43199920654297 C34.28799819946289,89.64199829101562 33.02799987792969,89.74199676513672 31.76799964904785,89.74199676513672 C31.76799964904785,89.74199676513672 -31.761999130249023,89.74199676513672 -31.761999130249023,89.74199676513672 C-44.88199996948242,89.74199676513672 -55.512001037597656,79.10199737548828 -55.512001037597656,65.99199676513672 C-55.512001037597656,64.73200225830078 -55.4119987487793,63.46200180053711 -55.21200180053711,62.21200180053711 C-55.21200180053711,62.21200180053711 -45.24800109863281,0.36399999260902405 -45.24800109863281,0.36399999260902405 C-45.24800109863281,0.36399999260902405 -22.812999725341797,0.7620000243186951 -11.902999877929688,0.7620000243186951z"/></g></g><g transform="matrix(1,0,0,1,53.15399932861328,38.97100830078125)" opacity="1" style="display: block;"><g opacity="1" transform="matrix(2,0,0,2,0,0)"><path fill="rgb(165,102,68)" fill-opacity="1" d=" M-3.868000030517578,-4.291999816894531 C-1.9079999923706055,-6.061999797821045 1.1119999885559082,-5.9019999504089355 2.881999969482422,-3.941999912261963 C2.881999969482422,-3.941999912261963 4.2220001220703125,-2.4519999027252197 4.2220001220703125,-2.4519999027252197 C5.98199987411499,-0.492000013589859 5.831999778747559,2.5280001163482666 3.871999979019165,4.297999858856201 C1.9019999504089355,6.058000087738037 -1.1180000305175781,5.8979997634887695 -2.878000020980835,3.937999963760376 C-2.878000020980835,3.937999963760376 -4.2179999351501465,2.4579999446868896 -4.2179999351501465,2.4579999446868896 C-5.98799991607666,0.49799999594688416 -5.828000068664551,-2.5320000648498535 -3.868000030517578,-4.291999816894531z"/></g></g><g transform="matrix(1,0,0,1,182.64199829101562,39.03302001953125)" opacity="1" style="display: block;"><g opacity="1" transform="matrix(2,0,0,2,0,0)"><path fill="rgb(165,102,68)" fill-opacity="1" d=" M3.871999979019165,-4.291999816894531 C5.831999778747559,-2.5320000648498535 5.98199987411499,0.49799999594688416 4.2220001220703125,2.4579999446868896 C4.2220001220703125,2.4579999446868896 2.881999969482422,3.937999963760376 2.881999969482422,3.937999963760376 C1.1119999885559082,5.8979997634887695 -1.9079999923706055,6.058000087738037 -3.868000030517578,4.297999858856201 C-5.828000068664551,2.5280001163482666 -5.98799991607666,-0.492000013589859 -4.2179999351501465,-2.4519999027252197 C-4.2179999351501465,-2.4519999027252197 -2.878000020980835,-3.941999912261963 -2.878000020980835,-3.941999912261963 C-1.1180000305175781,-5.9019999504089355 1.9019999504089355,-6.061999797821045 3.871999979019165,-4.291999816894531z"/></g></g><g transform="matrix(1,0,0,1,145.16400146484375,417.9440002441406)" opacity="1" style="display: block;"><g opacity="1" transform="matrix(2,0,0,2,0,0)"><path fill="rgb(165,102,68)" fill-opacity="1" d=" M-12.355999946594238,0.0010000000474974513 C-12.355999946594238,-2.6389999389648438 -10.215999603271484,-4.7789998054504395 -7.576000213623047,-4.7789998054504395 C-7.576000213623047,-4.7789998054504395 7.573999881744385,-4.7789998054504395 7.573999881744385,-4.7789998054504395 C10.21399974822998,-4.7789998054504395 12.354000091552734,-2.6389999389648438 12.354000091552734,0.0010000000474974513 C12.354000091552734,2.6410000324249268 10.21399974822998,4.781000137329102 7.573999881744385,4.781000137329102 C7.573999881744385,4.781000137329102 -7.576000213623047,4.781000137329102 -7.576000213623047,4.781000137329102 C-10.215999603271484,4.781000137329102 -12.355999946594238,2.6410000324249268 -12.355999946594238,0.0010000000474974513z"/></g></g><g transform="matrix(1,0,0,1,91.22100067138672,417.9440002441406)" opacity="1" style="display: block;"><g opacity="1" transform="matrix(2,0,0,2,0,0)"><path fill="rgb(165,102,68)" fill-opacity="1" d=" M-12.355999946594238,0.0010000000474974513 C-12.355999946594238,-2.6389999389648438 -10.215999603271484,-4.7789998054504395 -7.576000213623047,-4.7789998054504395 C-7.576000213623047,-4.7789998054504395 7.573999881744385,-4.7789998054504395 7.573999881744385,-4.7789998054504395 C10.21399974822998,-4.7789998054504395 12.354000091552734,-2.6389999389648438 12.354000091552734,0.0010000000474974513 C12.354000091552734,2.6410000324249268 10.21399974822998,4.781000137329102 7.573999881744385,4.781000137329102 C7.573999881744385,4.781000137329102 -7.576000213623047,4.781000137329102 -7.576000213623047,4.781000137329102 C-10.215999603271484,4.781000137329102 -12.355999946594238,2.6410000324249268 -12.355999946594238,0.0010000000474974513z"/></g></g><g clip-path="url(#__lottie_element_10898)" transform="matrix(1,0,0,1,84,234.99998474121094)" opacity="1" style="display: block;"><g transform="matrix(1,0,0,1,39.768001556396484,23.628999710083008)" opacity="1" style="display: block;"><g opacity="1" transform="matrix(2,0,0,2,0,0)"><path fill="rgb(187,113,73)" fill-opacity="1" d=" M-6.9120001792907715,-6.9120001792907715 C-11.501999855041504,-2.3320000171661377 -12.60200023651123,4.618000030517578 -9.812000274658203,10.357999801635742 C-9.281999588012695,11.428000450134277 -7.861999988555908,11.668000221252441 -7.021999835968018,10.82800006866455 C-7.021999835968018,10.82800006866455 10.82800006866455,-7.021999835968018 10.82800006866455,-7.021999835968018 C11.668000221252441,-7.861999988555908 11.428000450134277,-9.281999588012695 10.357999801635742,-9.812000274658203 C4.618000030517578,-12.60200023651123 -2.3320000171661377,-11.501999855041504 -6.9120001792907715,-6.9120001792907715z"/></g></g><g transform="matrix(1,0,0,1,23.934999465942383,23.628999710083008)" opacity="1" style="display: block;"><g opacity="1" transform="matrix(2,0,0,2,0,0)"><path fill="rgb(187,113,73)" fill-opacity="1" d=" M-10.362000465393066,-9.812000274658203 C-11.432000160217285,-9.281999588012695 -11.661999702453613,-7.861999988555908 -10.821999549865723,-7.021999835968018 C-10.821999549865723,-7.021999835968018 7.0279998779296875,10.82800006866455 7.0279998779296875,10.82800006866455 C7.868000030517578,11.668000221252441 9.288000106811523,11.428000450134277 9.807999610900879,10.357999801635742 C12.607999801635742,4.618000030517578 11.498000144958496,-2.3320000171661377 6.918000221252441,-6.9120001792907715 C2.328000068664551,-11.501999855041504 -4.622000217437744,-12.60200023651123 -10.362000465393066,-9.812000274658203z"/></g></g><g transform="matrix(1,0,0,1,45.5369987487793,28.281999588012695)" opacity="1" style="display: block;"><g opacity="1" transform="matrix(2,0,0,2,0,0)"><path fill="rgb(187,113,73)" fill-opacity="1" d=" M-1.628000020980835,-4.626999855041504 C-5.2779998779296875,-3.6470000743865967 -7.8979997634887695,-0.5569999814033508 -8.208000183105469,3.052999973297119 C-8.317999839782715,4.252999782562256 -7.197999954223633,5.192999839782715 -6.038000106811523,4.873000144958496 C-6.038000106811523,4.873000144958496 6.932000160217285,1.402999997138977 6.932000160217285,1.402999997138977 C8.092000007629395,1.093000054359436 8.592000007629395,-0.2770000100135803 7.9019999504089355,-1.2669999599456787 C5.822000026702881,-4.236999988555908 2.01200008392334,-5.5970001220703125 -1.628000020980835,-4.626999855041504z"/></g></g><g transform="matrix(1,0,0,1,18.79800033569336,28.281999588012695)" opacity="1" style="display: block;"><g opacity="1" transform="matrix(2,0,0,2,0,0)"><path fill="rgb(187,113,73)" fill-opacity="1" d=" M-7.9079999923706055,-1.2669999599456787 C-8.597999572753906,-0.2770000100135803 -8.097999572753906,1.093000054359436 -6.927999973297119,1.402999997138977 C-6.927999973297119,1.402999997138977 6.0320000648498535,4.873000144958496 6.0320000648498535,4.873000144958496 C7.202000141143799,5.192999839782715 8.312000274658203,4.252999782562256 8.211999893188477,3.052999973297119 C7.892000198364258,-0.5569999814033508 5.271999835968018,-3.6470000743865967 1.6319999694824219,-4.626999855041504 C-2.007999897003174,-5.5970001220703125 -5.828000068664551,-4.236999988555908 -7.9079999923706055,-1.2669999599456787z"/></g></g></g><g transform="matrix(1,0,0,1,117.9990005493164,221.48599243164062)" opacity="1" style="display: block;"><g opacity="1" transform="matrix(2,0,0,2,0,0)"><path fill="rgb(47,226,255)" fill-opacity="1" d=" M-44.95199966430664,-11.597000122070312 C-44.95199966430664,-11.597000122070312 44.77799987792969,-11.597000122070312 44.77799987792969,-11.597000122070312 C46.0880012512207,-11.597000122070312 47.198001861572266,-10.647000312805176 47.40800094604492,-9.357000350952148 C47.40800094604492,-9.357000350952148 50.31800079345703,8.503000259399414 50.31800079345703,8.503000259399414 C50.54800033569336,9.95300006866455 49.56800079345703,11.322999954223633 48.108001708984375,11.562999725341797 C47.96799850463867,11.583000183105469 47.827999114990234,11.593000411987305 47.6879997253418,11.593000411987305 C47.6879997253418,11.593000411987305 -47.68199920654297,11.593000411987305 -47.68199920654297,11.593000411987305 C-49.1619987487793,11.593000411987305 -50.35200119018555,10.402999877929688 -50.35200119018555,8.932999610900879 C-50.35200119018555,8.793000221252441 -50.34199905395508,8.663000106811523 -50.321998596191406,8.52299976348877 C-50.321998596191406,8.52299976348877 -47.582000732421875,-9.336999893188477 -47.582000732421875,-9.336999893188477 C-47.391998291015625,-10.63700008392334 -46.27199935913086,-11.597000122070312 -44.95199966430664,-11.597000122070312z"/></g></g><g transform="matrix(1,0,0,1,74.40299987792969,244.67999267578125)" opacity="1" style="display: block;"><g opacity="1" transform="matrix(2,0,0,2,0,0)"><path fill="rgb(47,226,255)" fill-opacity="1" d=" M-3.052999973297119,-26.506999969482422 C-3.052999973297119,-26.506999969482422 9.967000007629395,-26.506999969482422 9.967000007629395,-26.506999969482422 C12.177000045776367,-26.506999969482422 13.97700023651123,-24.716999053955078 13.97700023651123,-22.506999969482422 C13.97700023651123,-22.30699920654297 13.956999778747559,-22.097000122070312 13.927000045776367,-21.89699935913086 C13.927000045776367,-21.89699935913086 12.881999969482422,-13.38700008392334 12.881999969482422,-13.38700008392334 C12.581999778747559,-11.437000274658203 10.902000427246094,-9.996999740600586 8.932000160217285,-9.996999740600586 C8.932000160217285,-9.996999740600586 -4.0980000495910645,-9.996999740600586 -4.0980000495910645,-9.996999740600586 C-6.308000087738037,-9.996999740600586 -8.097999572753906,-11.786999702453613 -8.097999572753906,-13.996999740600586 C-8.097999572753906,-14.196999549865723 -8.07800006866455,-14.397000312805176 -8.04800033569336,-14.597000122070312 C-8.04800033569336,-14.597000122070312 -7.013000011444092,-23.117000579833984 -7.013000011444092,-23.117000579833984 C-6.7129998207092285,-25.066999435424805 -5.0329999923706055,-26.506999969482422 -3.052999973297119,-26.506999969482422z"/></g></g><g transform="matrix(1,0,0,1,74.40299987792969,244.67999267578125)" opacity="1" style="display: block;"><g opacity="1" transform="matrix(2,0,0,2,0,0)"><path fill="rgb(47,226,255)" fill-opacity="1" d=" M-4.927999973297119,-15.506999969482422 C-4.927999973297119,-15.506999969482422 8.092000007629395,-15.506999969482422 8.092000007629395,-15.506999969482422 C10.302000045776367,-15.506999969482422 12.10200023651123,-13.717000007629395 12.10200023651123,-11.506999969482422 C12.10200023651123,-11.307000160217285 12.081999778747559,-11.097000122070312 12.052000045776367,-10.897000312805176 C12.052000045776367,-10.897000312805176 7.006999969482422,23.113000869750977 7.006999969482422,23.113000869750977 C6.706999778747559,25.062999725341797 5.0269999504089355,26.503000259399414 3.056999921798706,26.503000259399414 C3.056999921798706,26.503000259399414 -9.972999572753906,26.503000259399414 -9.972999572753906,26.503000259399414 C-12.182999610900879,26.503000259399414 -13.972999572753906,24.71299934387207 -13.972999572753906,22.503000259399414 C-13.972999572753906,22.30299949645996 -13.95300006866455,22.10300064086914 -13.92300033569336,21.902999877929688 C-13.92300033569336,21.902999877929688 -8.887999534606934,-12.116999626159668 -8.887999534606934,-12.116999626159668 C-8.588000297546387,-14.067000389099121 -6.9079999923706055,-15.506999969482422 -4.927999973297119,-15.506999969482422z"/></g></g><g transform="matrix(1,0,0,1,133.10000610351562,77.21200561523438)" opacity="1" style="display: block;"><g opacity="1" transform="matrix(2,0,0,2,0,0)"><path fill="rgb(255,255,255)" fill-opacity="1" d=" M0.0010000000474974513,-8.48900032043457 C3.5910000801086426,-8.48900032043457 6.511000156402588,-5.578999996185303 6.511000156402588,-1.9789999723434448 C6.511000156402588,-1.9789999723434448 6.511000156402588,1.9809999465942383 6.511000156402588,1.9809999465942383 C6.511000156402588,5.571000099182129 3.5910000801086426,8.491000175476074 0.0010000000474974513,8.491000175476074 C-3.5989999771118164,8.491000175476074 -6.508999824523926,5.571000099182129 -6.508999824523926,1.9809999465942383 C-6.508999824523926,1.9809999465942383 -6.508999824523926,-1.9789999723434448 -6.508999824523926,-1.9789999723434448 C-6.508999824523926,-5.578999996185303 -3.5989999771118164,-8.48900032043457 0.0010000000474974513,-8.48900032043457z"/></g></g><g transform="matrix(1,0,0,1,101.58499908447266,77.21200561523438)" opacity="1" style="display: block;"><g opacity="1" transform="matrix(2,0,0,2,0,0)"><path fill="rgb(255,255,255)" fill-opacity="1" d=" M0.0010000000474974513,-8.48900032043457 C3.5910000801086426,-8.48900032043457 6.511000156402588,-5.578999996185303 6.511000156402588,-1.9789999723434448 C6.511000156402588,-1.9789999723434448 6.511000156402588,1.9809999465942383 6.511000156402588,1.9809999465942383 C6.511000156402588,5.571000099182129 3.5910000801086426,8.491000175476074 0.0010000000474974513,8.491000175476074 C-3.5989999771118164,8.491000175476074 -6.508999824523926,5.571000099182129 -6.508999824523926,1.9809999465942383 C-6.508999824523926,1.9809999465942383 -6.508999824523926,-1.9789999723434448 -6.508999824523926,-1.9789999723434448 C-6.508999824523926,-5.578999996185303 -3.5989999771118164,-8.48900032043457 0.0010000000474974513,-8.48900032043457z"/></g></g><g transform="matrix(1,0,0,1,130.57200622558594,77.48101806640625)" opacity="1" style="display: block;"><g opacity="1" transform="matrix(2,0,0,2,0,0)"><path fill="rgb(61,61,61)" fill-opacity="1" d=" M-0.0020000000949949026,-4.757999897003174 C1.6180000305175781,-4.757999897003174 2.9179999828338623,-3.447999954223633 2.9179999828338623,-1.8380000591278076 C2.9179999828338623,-1.8380000591278076 2.9179999828338623,1.8320000171661377 2.9179999828338623,1.8320000171661377 C2.9179999828338623,3.4519999027252197 1.6180000305175781,4.76200008392334 -0.0020000000949949026,4.76200008392334 C-1.6119999885559082,4.76200008392334 -2.921999931335449,3.4519999027252197 -2.921999931335449,1.8320000171661377 C-2.921999931335449,1.8320000171661377 -2.921999931335449,-1.8380000591278076 -2.921999931335449,-1.8380000591278076 C-2.921999931335449,-3.447999954223633 -1.6119999885559082,-4.757999897003174 -0.0020000000949949026,-4.757999897003174z"/></g></g><g transform="matrix(1,0,0,1,104.90399932861328,77.48101806640625)" opacity="1" style="display: block;"><g opacity="1" transform="matrix(2,0,0,2,0,0)"><path fill="rgb(61,61,61)" fill-opacity="1" d=" M-0.0020000000949949026,-4.757999897003174 C1.6180000305175781,-4.757999897003174 2.9179999828338623,-3.447999954223633 2.9179999828338623,-1.8380000591278076 C2.9179999828338623,-1.8380000591278076 2.9179999828338623,1.8320000171661377 2.9179999828338623,1.8320000171661377 C2.9179999828338623,3.4519999027252197 1.6180000305175781,4.76200008392334 -0.0020000000949949026,4.76200008392334 C-1.6119999885559082,4.76200008392334 -2.921999931335449,3.4519999027252197 -2.921999931335449,1.8320000171661377 C-2.921999931335449,1.8320000171661377 -2.921999931335449,-1.8380000591278076 -2.921999931335449,-1.8380000591278076 C-2.921999931335449,-3.447999954223633 -1.6119999885559082,-4.757999897003174 -0.0020000000949949026,-4.757999897003174z"/></g></g><g transform="matrix(-1,0,0,1,124.46199798583984,69.62200927734375)" opacity="1" style="display: block;"><g opacity="1" transform="matrix(2,0,0,2,0,0)"><path fill="rgb(255,255,255)" fill-opacity="1" d=" M0.003000000026077032,2.3429999351501465 C0.14499999582767487,1.6729999780654907 0.15700000524520874,0.9860000014305115 -0.35100001096725464,0.27799999713897705 C-0.8980000019073486,-0.3919999897480011 -1.718999981880188,-0.7960000038146973 -2.13100004196167,-0.984000027179718 C-2.2699999809265137,-0.6840000152587891 -2.3469998836517334,-0.3499999940395355 -2.3469998836517334,0.003000000026077032 C-2.3469998836517334,1.2929999828338623 -1.2970000505447388,2.3429999351501465 0.003000000026077032,2.3429999351501465z"/></g></g><g transform="matrix(-1,0,0,1,99.61100006103516,69.07000732421875)" opacity="1" style="display: block;"><g opacity="1" transform="matrix(2,0,0,2,0,0)"><path fill="rgb(255,255,255)" fill-opacity="1" d=" M-0.17499999701976776,0.09200000017881393 C0.28600001335144043,0.5210000276565552 0.6179999709129333,1.61899995803833 0.5040000081062317,2.2929999828338623 C0.34200000762939453,2.3289999961853027 0.17299999296665192,2.3469998836517334 0,2.3469998836517334 C-1.2960000038146973,2.3469998836517334 -2.3469998836517334,1.2960000038146973 -2.3469998836517334,0 C-2.3469998836517334,-0.2549999952316284 -2.305999994277954,-0.5 -2.2309999465942383,-0.7300000190734863 C-1.6540000438690186,-0.7789999842643738 -0.593999981880188,-0.2980000078678131 -0.17499999701976776,0.09200000017881393z"/></g></g><g transform="matrix(1,0,0,1,118.00299835205078,68.51800537109375)" opacity="1" style="display: block;"><g opacity="1" transform="matrix(2,0,0,2,0,0)"><path fill="rgb(165,102,68)" fill-opacity="1" d=" M-20.202999114990234,13.77400016784668 C-20.202999114990234,13.77400016784668 20.10700035095215,13.77400016784668 20.10700035095215,13.77400016784668 C20.10700035095215,13.77400016784668 20.059999465942383,30.224000930786133 20.059999465942383,30.224000930786133 C20.059999465942383,30.224000930786133 -20.25,30.224000930786133 -20.25,30.224000930786133 C-20.25,30.224000930786133 -20.202999114990234,13.77400016784668 -20.202999114990234,13.77400016784668z"/></g></g><g transform="matrix(1,0,0,1,118.00299835205078,68.51800537109375)" opacity="1" style="display: block;"><g opacity="1" transform="matrix(2,0,0,2,0,0)"><path fill="rgb(165,102,68)" fill-opacity="1" d=" M-20.156999588012695,-6.35099983215332 C-20.156999588012695,-6.35099983215332 20.152999877929688,-6.35099983215332 20.152999877929688,-6.35099983215332 C20.152999877929688,-6.35099983215332 20.152999877929688,6.348999977111816 20.152999877929688,6.348999977111816 C20.152999877929688,6.348999977111816 -20.156999588012695,6.348999977111816 -20.156999588012695,6.348999977111816 C-20.156999588012695,6.348999977111816 -20.156999588012695,-6.35099983215332 -20.156999588012695,-6.35099983215332z"/></g></g><g style="display: none;"><g><path/></g></g><g style="display: none;"><g><path/></g></g><g style="display: none;"><g><path stroke-linecap="butt" stroke-linejoin="miter" fill-opacity="0" stroke-miterlimit="4"/></g><g><path stroke-linecap="butt" stroke-linejoin="miter" fill-opacity="0" stroke-miterlimit="4"/></g></g><g transform="matrix(1,0,0,1,118.38700103759766,138.0989990234375)" opacity="1" style="display: block;"><g opacity="1" transform="matrix(2,0,0,2,0,0)"><path fill="rgb(228,161,89)" fill-opacity="1" d=" M0,-21.26099967956543 C5.489999771118164,-21.26099967956543 9.9399995803833,-16.81100082397461 9.9399995803833,-11.321000099182129 C9.9399995803833,-11.321000099182129 9.9399995803833,11.319000244140625 9.9399995803833,11.319000244140625 C9.9399995803833,16.80900001525879 5.489999771118164,21.259000778198242 0,21.259000778198242 C-0.03799999877810478,21.259000778198242 -0.07599999755620956,21.257999420166016 -0.11400000005960464,21.257999420166016 C-5.552000045776367,21.19700050354004 -9.9399995803833,16.770999908447266 -9.9399995803833,11.319000244140625 C-9.9399995803833,11.319000244140625 -9.9399995803833,-11.321000099182129 -9.9399995803833,-11.321000099182129 C-9.9399995803833,-16.775999069213867 -5.546999931335449,-21.20400047302246 -0.10499999672174454,-21.260000228881836 C-0.07000000029802322,-21.260000228881836 -0.03500000014901161,-21.26099967956543 0,-21.26099967956543z"/></g></g><g transform="matrix(1,0,0,1,117.83499908447266,101.65200805664062)" opacity="1" style="display: block;"><g opacity="1" transform="matrix(2,0,0,2,0,0)"><path fill="rgb(61,61,61)" fill-opacity="1" d=" M-1.1019999980926514,-3.0369999408721924 C-1.1019999980926514,-3.0369999408721924 1.1080000400543213,-3.0369999408721924 1.1080000400543213,-3.0369999408721924 C2.7780001163482666,-3.0369999408721924 4.138000011444092,-1.6770000457763672 4.138000011444092,0.003000000026077032 C4.138000011444092,1.6729999780654907 2.7780001163482666,3.0329999923706055 1.1080000400543213,3.0329999923706055 C1.1080000400543213,3.0329999923706055 -1.1019999980926514,3.0329999923706055 -1.1019999980926514,3.0329999923706055 C-2.7820000648498535,3.0329999923706055 -4.142000198364258,1.6729999780654907 -4.142000198364258,0.003000000026077032 C-4.142000198364258,-1.6770000457763672 -2.7820000648498535,-3.0369999408721924 -1.1019999980926514,-3.0369999408721924z"/></g></g></g></g></svg>