<svg xmlns="http://www.w3.org/2000/svg" viewBox="0 0 236 350" preserveAspectRatio="xMidYMid meet" style="width: 100%; height: 100%; transform: translate3d(0px, 0px, 0px);"><defs><clipPath id="__lottie_element_4280"><rect width="236" height="350" x="0" y="0"/></clipPath><clipPath id="__lottie_element_4282"><path d="M0,0 L236,0 L236,430 L0,430z"/></clipPath><clipPath id="__lottie_element_4289"><path d="M0,0 L236,0 L236,430 L0,430z"/></clipPath><clipPath id="__lottie_element_4296"><path d="M0,0 L236,0 L236,430 L0,430z"/></clipPath><mask id="__lottie_element_4320" mask-type="alpha"><g style="display: block;" transform="matrix(1,0,0,1,121.42000579833984,142.21299743652344)" opacity="1"><g opacity="1" transform="matrix(2,0,0,2,0,0)"><path fill="rgb(255,197,183)" fill-opacity="1" d=" M0.6819999814033508,-29.400999069213867 C13.942000389099121,-29.400999069213867 25.082000732421875,-19.44099998474121 26.57200050354004,-6.261000156402588 C26.57200050354004,-6.261000156402588 28.98200035095215,15.08899974822998 28.98200035095215,15.08899974822998 C29.781999588012695,22.14900016784668 24.70199966430664,28.518999099731445 17.642000198364258,29.319000244140625 C17.16200065612793,29.378999710083008 16.68199920654297,29.39900016784668 16.20199966430664,29.39900016784668 C16.20199966430664,29.39900016784668 -16.197999954223633,29.39900016784668 -16.197999954223633,29.39900016784668 C-23.308000564575195,29.39900016784668 -29.06800079345703,23.638999938964844 -29.06800079345703,16.538999557495117 C-29.06800079345703,15.918999671936035 -29.027999877929688,15.309000015258789 -28.937999725341797,14.708999633789062 C-28.937999725341797,14.708999633789062 -25.917999267578125,-6.35099983215332 -25.917999267578125,-6.35099983215332 C-24.01799964904785,-19.58099937438965 -12.678000450134277,-29.400999069213867 0.6819999814033508,-29.400999069213867z"/></g></g></mask><mask id="__lottie_element_4331" mask-type="alpha"><g style="display: block;" transform="matrix(1,0,0,1,102.72000122070312,148.10899353027344)" opacity="1"><g opacity="1" transform="matrix(2,0,0,2,0,0)"><path fill="rgb(255,255,255)" fill-opacity="1" d=" M-6.953000068664551,-8.696000099182129 C-6.953000068664551,-8.696000099182129 -0.003000000026077032,-8.696000099182129 -0.003000000026077032,-8.696000099182129 C4.396999835968018,-8.696000099182129 7.9670000076293945,-5.125999927520752 7.9670000076293945,-0.7360000014305115 C7.9670000076293945,-0.7360000014305115 7.9670000076293945,4.644000053405762 7.9670000076293945,4.644000053405762 C7.9670000076293945,6.883999824523926 6.146999835968018,8.694000244140625 3.9070000648498535,8.694000244140625 C3.9070000648498535,8.694000244140625 -0.003000000026077032,8.694000244140625 -0.003000000026077032,8.694000244140625 C-4.39300012588501,8.694000244140625 -7.9629998207092285,5.133999824523926 -7.9629998207092285,0.734000027179718 C-7.9629998207092285,0.734000027179718 -7.9629998207092285,-7.685999870300293 -7.9629998207092285,-7.685999870300293 C-7.9629998207092285,-8.246000289916992 -7.513000011444092,-8.696000099182129 -6.953000068664551,-8.696000099182129z"/></g></g></mask><mask id="__lottie_element_4337" mask-type="alpha"><g style="display: block;" transform="matrix(1,0,0,1,102.72000122070312,148.10899353027344)" opacity="1"><g opacity="1" transform="matrix(2,0,0,2,0,0)"><path fill="rgb(255,255,255)" fill-opacity="1" d=" M-6.953000068664551,-8.696000099182129 C-6.953000068664551,-8.696000099182129 -0.003000000026077032,-8.696000099182129 -0.003000000026077032,-8.696000099182129 C4.396999835968018,-8.696000099182129 7.9670000076293945,-5.125999927520752 7.9670000076293945,-0.7360000014305115 C7.9670000076293945,-0.7360000014305115 7.9670000076293945,4.644000053405762 7.9670000076293945,4.644000053405762 C7.9670000076293945,6.883999824523926 6.146999835968018,8.694000244140625 3.9070000648498535,8.694000244140625 C3.9070000648498535,8.694000244140625 -0.003000000026077032,8.694000244140625 -0.003000000026077032,8.694000244140625 C-4.39300012588501,8.694000244140625 -7.9629998207092285,5.133999824523926 -7.9629998207092285,0.734000027179718 C-7.9629998207092285,0.734000027179718 -7.9629998207092285,-7.685999870300293 -7.9629998207092285,-7.685999870300293 C-7.9629998207092285,-8.246000289916992 -7.513000011444092,-8.696000099182129 -6.953000068664551,-8.696000099182129z"/></g></g></mask><mask id="__lottie_element_4341" mask-type="alpha"><g style="display: block;" transform="matrix(1,0,0,1,138.62200927734375,148.10899353027344)" opacity="1"><g opacity="1" transform="matrix(2,0,0,2,0,0)"><path fill="rgb(255,255,255)" fill-opacity="1" d=" M6.947000026702881,-8.696000099182129 C6.947000026702881,-8.696000099182129 -0.003000000026077032,-8.696000099182129 -0.003000000026077032,-8.696000099182129 C-4.39300012588501,-8.696000099182129 -7.9629998207092285,-5.125999927520752 -7.9629998207092285,-0.7360000014305115 C-7.9629998207092285,-0.7360000014305115 -7.9629998207092285,4.814000129699707 -7.9629998207092285,4.814000129699707 C-7.9629998207092285,6.953999996185303 -6.2230000495910645,8.694000244140625 -4.083000183105469,8.694000244140625 C-4.083000183105469,8.694000244140625 -0.003000000026077032,8.694000244140625 -0.003000000026077032,8.694000244140625 C4.396999835968018,8.694000244140625 7.9670000076293945,5.133999824523926 7.9670000076293945,0.734000027179718 C7.9670000076293945,0.734000027179718 7.9670000076293945,-7.685999870300293 7.9670000076293945,-7.685999870300293 C7.9670000076293945,-8.246000289916992 7.506999969482422,-8.696000099182129 6.947000026702881,-8.696000099182129z"/></g></g></mask><mask id="__lottie_element_4347" mask-type="alpha"><g style="display: block;" transform="matrix(0.9986685514450073,0.05158647894859314,-0.05158647894859314,0.9986685514450073,141.33200073242188,149.73399353027344)" opacity="1"><g opacity="1" transform="matrix(2,0,0,2,0,0)"><path fill="rgb(255,255,255)" fill-opacity="1" d=" M6.947000026702881,-8.696000099182129 C6.947000026702881,-8.696000099182129 -0.003000000026077032,-8.696000099182129 -0.003000000026077032,-8.696000099182129 C-4.39300012588501,-8.696000099182129 -7.9629998207092285,-5.125999927520752 -7.9629998207092285,-0.7360000014305115 C-7.9629998207092285,-0.7360000014305115 -7.9629998207092285,4.814000129699707 -7.9629998207092285,4.814000129699707 C-7.9629998207092285,6.953999996185303 -6.2230000495910645,8.694000244140625 -4.083000183105469,8.694000244140625 C-4.083000183105469,8.694000244140625 -0.003000000026077032,8.694000244140625 -0.003000000026077032,8.694000244140625 C4.396999835968018,8.694000244140625 7.9670000076293945,5.133999824523926 7.9670000076293945,0.734000027179718 C7.9670000076293945,0.734000027179718 7.9670000076293945,-7.685999870300293 7.9670000076293945,-7.685999870300293 C7.9670000076293945,-8.246000289916992 7.506999969482422,-8.696000099182129 6.947000026702881,-8.696000099182129z"/></g></g></mask><clipPath id="__lottie_element_4360"><path d="M0,0 L236,0 L236,430 L0,430z"/></clipPath><clipPath id="__lottie_element_4367"><path d="M0,0 L236,0 L236,430 L0,430z"/></clipPath><clipPath id="__lottie_element_4374"><path d="M0,0 L236,0 L236,430 L0,430z"/></clipPath><mask id="__lottie_element_4398" mask-type="alpha"><g transform="matrix(1,0,0,1,121.42000579833984,142.21299743652344)" opacity="1" style="display: block;"><g opacity="1" transform="matrix(2,0,0,2,0,0)"><path fill="rgb(255,197,183)" fill-opacity="1" d=" M0.6819999814033508,-29.400999069213867 C13.942000389099121,-29.400999069213867 25.082000732421875,-19.44099998474121 26.57200050354004,-6.261000156402588 C26.57200050354004,-6.261000156402588 28.98200035095215,15.08899974822998 28.98200035095215,15.08899974822998 C29.781999588012695,22.14900016784668 24.70199966430664,28.518999099731445 17.642000198364258,29.319000244140625 C17.16200065612793,29.378999710083008 16.68199920654297,29.39900016784668 16.20199966430664,29.39900016784668 C16.20199966430664,29.39900016784668 -16.197999954223633,29.39900016784668 -16.197999954223633,29.39900016784668 C-23.308000564575195,29.39900016784668 -29.06800079345703,23.638999938964844 -29.06800079345703,16.538999557495117 C-29.06800079345703,15.918999671936035 -29.027999877929688,15.309000015258789 -28.937999725341797,14.708999633789062 C-28.937999725341797,14.708999633789062 -25.917999267578125,-6.35099983215332 -25.917999267578125,-6.35099983215332 C-24.01799964904785,-19.58099937438965 -12.678000450134277,-29.400999069213867 0.6819999814033508,-29.400999069213867z"/></g></g></mask><mask id="__lottie_element_4409" mask-type="alpha"><g transform="matrix(1,0,0,1,102.72000122070312,148.10899353027344)" opacity="1" style="display: block;"><g opacity="1" transform="matrix(2,0,0,2,0,0)"><path fill="rgb(255,255,255)" fill-opacity="1" d=" M-6.953000068664551,-8.696000099182129 C-6.953000068664551,-8.696000099182129 -0.003000000026077032,-8.696000099182129 -0.003000000026077032,-8.696000099182129 C4.396999835968018,-8.696000099182129 7.9670000076293945,-5.125999927520752 7.9670000076293945,-0.7360000014305115 C7.9670000076293945,-0.7360000014305115 7.9670000076293945,4.644000053405762 7.9670000076293945,4.644000053405762 C7.9670000076293945,6.883999824523926 6.146999835968018,8.694000244140625 3.9070000648498535,8.694000244140625 C3.9070000648498535,8.694000244140625 -0.003000000026077032,8.694000244140625 -0.003000000026077032,8.694000244140625 C-4.39300012588501,8.694000244140625 -7.9629998207092285,5.133999824523926 -7.9629998207092285,0.734000027179718 C-7.9629998207092285,0.734000027179718 -7.9629998207092285,-7.685999870300293 -7.9629998207092285,-7.685999870300293 C-7.9629998207092285,-8.246000289916992 -7.513000011444092,-8.696000099182129 -6.953000068664551,-8.696000099182129z"/></g></g></mask><mask id="__lottie_element_4415" mask-type="alpha"><g transform="matrix(1,0,0,1,102.72000122070312,148.10899353027344)" opacity="1" style="display: block;"><g opacity="1" transform="matrix(2,0,0,2,0,0)"><path fill="rgb(255,255,255)" fill-opacity="1" d=" M-6.953000068664551,-8.696000099182129 C-6.953000068664551,-8.696000099182129 -0.003000000026077032,-8.696000099182129 -0.003000000026077032,-8.696000099182129 C4.396999835968018,-8.696000099182129 7.9670000076293945,-5.125999927520752 7.9670000076293945,-0.7360000014305115 C7.9670000076293945,-0.7360000014305115 7.9670000076293945,4.644000053405762 7.9670000076293945,4.644000053405762 C7.9670000076293945,6.883999824523926 6.146999835968018,8.694000244140625 3.9070000648498535,8.694000244140625 C3.9070000648498535,8.694000244140625 -0.003000000026077032,8.694000244140625 -0.003000000026077032,8.694000244140625 C-4.39300012588501,8.694000244140625 -7.9629998207092285,5.133999824523926 -7.9629998207092285,0.734000027179718 C-7.9629998207092285,0.734000027179718 -7.9629998207092285,-7.685999870300293 -7.9629998207092285,-7.685999870300293 C-7.9629998207092285,-8.246000289916992 -7.513000011444092,-8.696000099182129 -6.953000068664551,-8.696000099182129z"/></g></g></mask><mask id="__lottie_element_4419" mask-type="alpha"><g transform="matrix(1,0,0,1,138.62200927734375,148.10899353027344)" opacity="1" style="display: block;"><g opacity="1" transform="matrix(2,0,0,2,0,0)"><path fill="rgb(255,255,255)" fill-opacity="1" d=" M6.947000026702881,-8.696000099182129 C6.947000026702881,-8.696000099182129 -0.003000000026077032,-8.696000099182129 -0.003000000026077032,-8.696000099182129 C-4.39300012588501,-8.696000099182129 -7.9629998207092285,-5.125999927520752 -7.9629998207092285,-0.7360000014305115 C-7.9629998207092285,-0.7360000014305115 -7.9629998207092285,4.814000129699707 -7.9629998207092285,4.814000129699707 C-7.9629998207092285,6.953999996185303 -6.2230000495910645,8.694000244140625 -4.083000183105469,8.694000244140625 C-4.083000183105469,8.694000244140625 -0.003000000026077032,8.694000244140625 -0.003000000026077032,8.694000244140625 C4.396999835968018,8.694000244140625 7.9670000076293945,5.133999824523926 7.9670000076293945,0.734000027179718 C7.9670000076293945,0.734000027179718 7.9670000076293945,-7.685999870300293 7.9670000076293945,-7.685999870300293 C7.9670000076293945,-8.246000289916992 7.506999969482422,-8.696000099182129 6.947000026702881,-8.696000099182129z"/></g></g></mask><mask id="__lottie_element_4425" mask-type="alpha"><g transform="matrix(0.9986685514450073,0.05158647894859314,-0.05158647894859314,0.9986685514450073,141.33200073242188,149.73399353027344)" opacity="1" style="display: block;"><g opacity="1" transform="matrix(2,0,0,2,0,0)"><path fill="rgb(255,255,255)" fill-opacity="1" d=" M6.947000026702881,-8.696000099182129 C6.947000026702881,-8.696000099182129 -0.003000000026077032,-8.696000099182129 -0.003000000026077032,-8.696000099182129 C-4.39300012588501,-8.696000099182129 -7.9629998207092285,-5.125999927520752 -7.9629998207092285,-0.7360000014305115 C-7.9629998207092285,-0.7360000014305115 -7.9629998207092285,4.814000129699707 -7.9629998207092285,4.814000129699707 C-7.9629998207092285,6.953999996185303 -6.2230000495910645,8.694000244140625 -4.083000183105469,8.694000244140625 C-4.083000183105469,8.694000244140625 -0.003000000026077032,8.694000244140625 -0.003000000026077032,8.694000244140625 C4.396999835968018,8.694000244140625 7.9670000076293945,5.133999824523926 7.9670000076293945,0.734000027179718 C7.9670000076293945,0.734000027179718 7.9670000076293945,-7.685999870300293 7.9670000076293945,-7.685999870300293 C7.9670000076293945,-8.246000289916992 7.506999969482422,-8.696000099182129 6.947000026702881,-8.696000099182129z"/></g></g></mask><clipPath id="__lottie_element_4438"><path d="M0,0 L236,0 L236,430 L0,430z"/></clipPath><clipPath id="__lottie_element_4445"><path d="M0,0 L236,0 L236,430 L0,430z"/></clipPath><clipPath id="__lottie_element_4452"><path d="M0,0 L236,0 L236,430 L0,430z"/></clipPath><mask id="__lottie_element_4476" mask-type="alpha"><g style="display: none;"><g><path/></g></g></mask><mask id="__lottie_element_4487" mask-type="alpha"><g style="display: none;"><g><path/></g></g></mask><mask id="__lottie_element_4493" mask-type="alpha"><g style="display: none;"><g><path/></g></g></mask><mask id="__lottie_element_4497" mask-type="alpha"><g style="display: none;"><g><path/></g></g></mask><mask id="__lottie_element_4503" mask-type="alpha"><g style="display: none;"><g><path/></g></g></mask></defs><g clip-path="url(#__lottie_element_4280)"><g clip-path="url(#__lottie_element_4438)" style="display: none;"><g style="display: none;"><g><path/></g></g><g style="display: none;"><g><path/></g></g><g style="display: none;"><g><path/></g></g><g style="display: none;"><g><path/></g></g><g style="display: none;"><g><path/></g></g><g style="display: none;"><g><path/></g></g><g style="display: none;"><g><path/></g></g><g mask="url(#__lottie_element_4503)" style="display: none;"><g><g><path/></g></g></g><g mask="url(#__lottie_element_4497)" style="display: none;"><g><g><path/></g></g></g><g style="display: none;"><g><path/></g></g><g mask="url(#__lottie_element_4493)" style="display: none;"><g><g><path/></g></g></g><g mask="url(#__lottie_element_4487)" style="display: none;"><g><g><path/></g></g></g><g style="display: none;"><path/></g><g style="display: none;"><g><path/></g></g><g style="display: none;"><g><path/></g></g><g mask="url(#__lottie_element_4476)" style="display: none;"><g><g><path/></g></g></g><g style="display: none;"><g><path/></g></g><g style="display: none;"><g><path/></g></g><g style="display: none;"><g><path/></g></g><g style="display: none;"><g><path/></g></g><g style="display: none;"><g><path/></g></g><g style="display: none;"><g><path/></g></g><g style="display: none;"><g><path/></g></g><g clip-path="url(#__lottie_element_4452)" style="display: none;"><g style="display: none;"><g><path/></g></g><g style="display: none;"><g><path/></g></g></g><g clip-path="url(#__lottie_element_4445)" style="display: none;"><g style="display: none;"><g><path/></g></g><g style="display: none;"><g><path/></g></g></g><g style="display: none;"><g><path/></g></g><g style="display: none;"><g><path/></g></g></g><g clip-path="url(#__lottie_element_4360)" transform="matrix(1,0,0,1,0,0)" opacity="1" style="display: none;"><g transform="matrix(1,0,0,1,132.82699584960938,421.8680114746094)" opacity="1" style="display: block;"><g opacity="1" transform="matrix(2,0,0,2,0,0)"><path fill="rgb(89,63,133)" fill-opacity="1" d=" M-9.880999565124512,0.0010000000474974513 C-9.880999565124512,-2.188999891281128 -8.10099983215332,-3.9690001010894775 -5.910999774932861,-3.9690001010894775 C-5.910999774932861,-3.9690001010894775 5.908999919891357,-3.9690001010894775 5.908999919891357,-3.9690001010894775 C8.109000205993652,-3.9690001010894775 9.878999710083008,-2.188999891281128 9.878999710083008,0.0010000000474974513 C9.878999710083008,2.190999984741211 8.109000205993652,3.9709999561309814 5.908999919891357,3.9709999561309814 C5.908999919891357,3.9709999561309814 -5.910999774932861,3.9709999561309814 -5.910999774932861,3.9709999561309814 C-8.10099983215332,3.9709999561309814 -9.880999565124512,2.190999984741211 -9.880999565124512,0.0010000000474974513z"/></g></g><g transform="matrix(1,0,0,1,106.8270034790039,421.8680114746094)" opacity="1" style="display: block;"><g opacity="1" transform="matrix(2,0,0,2,0,0)"><path fill="rgb(89,63,133)" fill-opacity="1" d=" M-9.880999565124512,0.0010000000474974513 C-9.880999565124512,-2.188999891281128 -8.10099983215332,-3.9690001010894775 -5.910999774932861,-3.9690001010894775 C-5.910999774932861,-3.9690001010894775 5.908999919891357,-3.9690001010894775 5.908999919891357,-3.9690001010894775 C8.109000205993652,-3.9690001010894775 9.878999710083008,-2.188999891281128 9.878999710083008,0.0010000000474974513 C9.878999710083008,2.190999984741211 8.109000205993652,3.9709999561309814 5.908999919891357,3.9709999561309814 C5.908999919891357,3.9709999561309814 -5.910999774932861,3.9709999561309814 -5.910999774932861,3.9709999561309814 C-8.10099983215332,3.9709999561309814 -9.880999565124512,2.190999984741211 -9.880999565124512,0.0010000000474974513z"/></g></g><g transform="matrix(1,0,0,1,118.92500305175781,151.24200439453125)" opacity="1" style="display: block;"><g opacity="1" transform="matrix(2,0,0,2,0,0)"><path fill="rgb(165,112,255)" fill-opacity="1" d=" M-1.6449999809265137,-37.62099838256836 C14.045000076293945,-37.62099838256836 27.395000457763672,-26.201000213623047 29.834999084472656,-10.701000213623047 C29.834999084472656,-10.701000213623047 37.1349983215332,35.79899978637695 37.1349983215332,35.79899978637695 C37.275001525878906,36.659000396728516 36.685001373291016,37.46900177001953 35.82500076293945,37.5989990234375 C35.73500061035156,37.61899948120117 35.654998779296875,37.61899948120117 35.57500076293945,37.61899948120117 C35.57500076293945,37.61899948120117 -35.57600021362305,37.61899948120117 -35.57600021362305,37.61899948120117 C-36.44599914550781,37.61899948120117 -37.15599822998047,36.909000396728516 -37.15599822998047,36.03900146484375 C-37.15599822998047,35.979000091552734 -37.154998779296875,35.91899871826172 -37.14500045776367,35.86899948120117 C-37.14500045776367,35.86899948120117 -31.93600082397461,-10.541000366210938 -31.93600082397461,-10.541000366210938 C-30.20599937438965,-25.961000442504883 -17.165000915527344,-37.62099838256836 -1.6449999809265137,-37.62099838256836z"/></g></g><g transform="matrix(1,0,0,1,174.06300354003906,139.63699340820312)" opacity="1" style="display: block;"><g opacity="1" transform="matrix(2,0,0,2,0,0)"><path fill="rgb(255,198,182)" fill-opacity="1" d=" M-1.1670000553131104,-6.006999969482422 C-1.1670000553131104,-6.006999969482422 1.1729999780654907,-6.006999969482422 1.1729999780654907,-6.006999969482422 C4.493000030517578,-6.006999969482422 7.172999858856201,-3.316999912261963 7.172999858856201,0.003000000026077032 C7.172999858856201,3.312999963760376 4.493000030517578,6.002999782562256 1.1729999780654907,6.002999782562256 C1.1729999780654907,6.002999782562256 -1.1670000553131104,6.002999782562256 -1.1670000553131104,6.002999782562256 C-4.486999988555908,6.002999782562256 -7.177000045776367,3.312999963760376 -7.177000045776367,0.003000000026077032 C-7.177000045776367,-3.316999912261963 -4.486999988555908,-6.006999969482422 -1.1670000553131104,-6.006999969482422z"/></g></g><g transform="matrix(1,0,0,1,118.81400299072266,254.33599853515625)" opacity="1" style="display: block;"><g opacity="1" transform="matrix(2,0,0,2,0,0)"><path fill="rgb(89,62,133)" fill-opacity="1" d=" M-6.60099983215332,-28.75 C-6.60099983215332,-28.75 6.408999919891357,-28.75 6.408999919891357,-28.75 C6.968999862670898,-28.75 7.419000148773193,-28.299999237060547 7.419000148773193,-27.739999771118164 C7.419000148773193,-27.739999771118164 7.589000225067139,14.864999771118164 7.589000225067139,14.864999771118164 C7.589000225067139,15.425000190734863 7.138999938964844,15.875 6.578999996185303,15.875 C6.578999996185303,15.875 -6.431000232696533,15.875 -6.431000232696533,15.875 C-6.991000175476074,15.875 -7.440999984741211,15.425000190734863 -7.440999984741211,14.864999771118164 C-7.440999984741211,14.864999771118164 -7.611000061035156,-27.739999771118164 -7.611000061035156,-27.739999771118164 C-7.611000061035156,-28.299999237060547 -7.160999774932861,-28.75 -6.60099983215332,-28.75z"/></g></g><g transform="matrix(1,0,0,1,121.26900482177734,144.2869873046875)" opacity="1" style="display: block;"><g opacity="1" transform="matrix(2,0,0,2,0,0)"><path fill="rgb(255,197,183)" fill-opacity="1" d=" M0.6819999814033508,-29.400999069213867 C13.942000389099121,-29.400999069213867 25.082000732421875,-19.44099998474121 26.57200050354004,-6.261000156402588 C26.57200050354004,-6.261000156402588 28.98200035095215,15.08899974822998 28.98200035095215,15.08899974822998 C29.781999588012695,22.14900016784668 24.70199966430664,28.518999099731445 17.642000198364258,29.319000244140625 C17.16200065612793,29.378999710083008 16.68199920654297,29.39900016784668 16.20199966430664,29.39900016784668 C16.20199966430664,29.39900016784668 -16.197999954223633,29.39900016784668 -16.197999954223633,29.39900016784668 C-23.308000564575195,29.39900016784668 -29.06800079345703,23.638999938964844 -29.06800079345703,16.538999557495117 C-29.06800079345703,15.918999671936035 -29.027999877929688,15.309000015258789 -28.937999725341797,14.708999633789062 C-28.937999725341797,14.708999633789062 -25.917999267578125,-6.35099983215332 -25.917999267578125,-6.35099983215332 C-24.01799964904785,-19.58099937438965 -12.678000450134277,-29.400999069213867 0.6819999814033508,-29.400999069213867z"/></g></g><g transform="matrix(1,0,0,1,138.62200927734375,148.10899353027344)" opacity="1" style="display: block;"><g opacity="1" transform="matrix(2,0,0,2,0,0)"><path fill="rgb(255,255,255)" fill-opacity="1" d=" M6.947000026702881,-8.696000099182129 C6.947000026702881,-8.696000099182129 -0.003000000026077032,-8.696000099182129 -0.003000000026077032,-8.696000099182129 C-4.39300012588501,-8.696000099182129 -7.9629998207092285,-5.125999927520752 -7.9629998207092285,-0.7360000014305115 C-7.9629998207092285,-0.7360000014305115 -7.9629998207092285,4.814000129699707 -7.9629998207092285,4.814000129699707 C-7.9629998207092285,6.953999996185303 -6.2230000495910645,8.694000244140625 -4.083000183105469,8.694000244140625 C-4.083000183105469,8.694000244140625 -0.003000000026077032,8.694000244140625 -0.003000000026077032,8.694000244140625 C4.396999835968018,8.694000244140625 7.9670000076293945,5.133999824523926 7.9670000076293945,0.734000027179718 C7.9670000076293945,0.734000027179718 7.9670000076293945,-7.685999870300293 7.9670000076293945,-7.685999870300293 C7.9670000076293945,-8.246000289916992 7.506999969482422,-8.696000099182129 6.947000026702881,-8.696000099182129z"/></g></g><g mask="url(#__lottie_element_4425)" style="display: block;"><g transform="matrix(1,0,0,1,135.28700256347656,145.05899047851562)" opacity="1"><g opacity="1" transform="matrix(2,0,0,2,0,0)"><path fill="rgb(61,61,61)" fill-opacity="1" d=" M-0.004999999888241291,-5.820000171661377 C1.975000023841858,-5.820000171661377 3.575000047683716,-4.21999979019165 3.575000047683716,-2.25 C3.575000047683716,-2.25 3.575000047683716,2.240000009536743 3.575000047683716,2.240000009536743 C3.575000047683716,4.21999979019165 1.975000023841858,5.820000171661377 -0.004999999888241291,5.820000171661377 C-1.975000023841858,5.820000171661377 -3.575000047683716,4.21999979019165 -3.575000047683716,2.240000009536743 C-3.575000047683716,2.240000009536743 -3.575000047683716,-2.25 -3.575000047683716,-2.25 C-3.575000047683716,-4.21999979019165 -1.975000023841858,-5.820000171661377 -0.004999999888241291,-5.820000171661377z"/></g></g></g><g mask="url(#__lottie_element_4419)" style="display: block;"><g transform="matrix(1,0,0,1.589460015296936,140.69700622558594,128.30218505859375)" opacity="1"><g opacity="1" transform="matrix(2,0,0,2,0,0)"><path fill="rgb(165,112,255)" fill-opacity="1" d=" M-10.217000007629395,-6.671000003814697 C-10.217000007629395,-6.671000003814697 10.213000297546387,-6.671000003814697 10.213000297546387,-6.671000003814697 C10.213000297546387,-6.671000003814697 10.213000297546387,6.669000148773193 10.213000297546387,6.669000148773193 C10.213000297546387,6.669000148773193 -10.217000007629395,6.669000148773193 -10.217000007629395,6.669000148773193 C-10.217000007629395,6.669000148773193 -10.217000007629395,-6.671000003814697 -10.217000007629395,-6.671000003814697z"/></g></g></g><g transform="matrix(1,0,0,1,102.72000122070312,148.10899353027344)" opacity="1" style="display: block;"><g opacity="1" transform="matrix(2,0,0,2,0,0)"><path fill="rgb(255,255,255)" fill-opacity="1" d=" M-6.953000068664551,-8.696000099182129 C-6.953000068664551,-8.696000099182129 -0.003000000026077032,-8.696000099182129 -0.003000000026077032,-8.696000099182129 C4.396999835968018,-8.696000099182129 7.9670000076293945,-5.125999927520752 7.9670000076293945,-0.7360000014305115 C7.9670000076293945,-0.7360000014305115 7.9670000076293945,4.644000053405762 7.9670000076293945,4.644000053405762 C7.9670000076293945,6.883999824523926 6.146999835968018,8.694000244140625 3.9070000648498535,8.694000244140625 C3.9070000648498535,8.694000244140625 -0.003000000026077032,8.694000244140625 -0.003000000026077032,8.694000244140625 C-4.39300012588501,8.694000244140625 -7.9629998207092285,5.133999824523926 -7.9629998207092285,0.734000027179718 C-7.9629998207092285,0.734000027179718 -7.9629998207092285,-7.685999870300293 -7.9629998207092285,-7.685999870300293 C-7.9629998207092285,-8.246000289916992 -7.513000011444092,-8.696000099182129 -6.953000068664551,-8.696000099182129z"/></g></g><g mask="url(#__lottie_element_4415)" style="display: block;"><g transform="matrix(1,0,0,1,106.10400390625,145.05899047851562)" opacity="1"><g opacity="1" transform="matrix(2,0,0,2,0,0)"><path fill="rgb(61,61,61)" fill-opacity="1" d=" M-0.004999999888241291,-5.820000171661377 C1.975000023841858,-5.820000171661377 3.575000047683716,-4.21999979019165 3.575000047683716,-2.25 C3.575000047683716,-2.25 3.575000047683716,2.240000009536743 3.575000047683716,2.240000009536743 C3.575000047683716,4.21999979019165 1.975000023841858,5.820000171661377 -0.004999999888241291,5.820000171661377 C-1.975000023841858,5.820000171661377 -3.575000047683716,4.21999979019165 -3.575000047683716,2.240000009536743 C-3.575000047683716,2.240000009536743 -3.575000047683716,-2.25 -3.575000047683716,-2.25 C-3.575000047683716,-4.21999979019165 -1.975000023841858,-5.820000171661377 -0.004999999888241291,-5.820000171661377z"/></g></g></g><g mask="url(#__lottie_element_4409)" style="display: block;"><g transform="matrix(1,0,0,1.6473300457000732,104.03700256347656,127.69927215576172)" opacity="1"><g opacity="1" transform="matrix(2,0,0,2,0,0)"><path fill="rgb(165,112,255)" fill-opacity="1" d=" M-10.217000007629395,-6.671000003814697 C-10.217000007629395,-6.671000003814697 10.213000297546387,-6.671000003814697 10.213000297546387,-6.671000003814697 C10.213000297546387,-6.671000003814697 10.213000297546387,6.669000148773193 10.213000297546387,6.669000148773193 C10.213000297546387,6.669000148773193 -10.217000007629395,6.669000148773193 -10.217000007629395,6.669000148773193 C-10.217000007629395,6.669000148773193 -10.217000007629395,-6.671000003814697 -10.217000007629395,-6.671000003814697z"/></g></g></g><g transform="matrix(0.5027700066566467,0,0,0.2760300040245056,150.8990020751953,183.083984375)" opacity="1" style="display: block;"><path fill="rgb(255,198,183)" fill-opacity="1" d=" M0,-50 C27.594999313354492,-50 50,-27.594999313354492 50,0 C50,27.594999313354492 27.594999313354492,50 0,50 C-27.594999313354492,50 -50,27.594999313354492 -50,0 C-50,-27.594999313354492 -27.594999313354492,-50 0,-50z"/></g><g transform="matrix(1,0,0,1,137.0189971923828,180.40199279785156)" opacity="1" style="display: block;"><g opacity="1" transform="matrix(2,0,0,2,0,0)"><path fill="rgb(237,149,130)" fill-opacity="1" d=" M-4.0970001220703125,1.8819999694824219 C-1.7970000505447388,-2.5480000972747803 0.8130000233650208,-4.3480000495910645 3.6429998874664307,-2.937999963760376 C4.1529998779296875,-2.677999973297119 4.36299991607666,-2.058000087738037 4.103000164031982,-1.5379999876022339 C3.8529999256134033,-1.0180000066757202 3.2230000495910645,-0.8080000281333923 2.703000068664551,-1.0679999589920044 C1.2130000591278076,-1.8179999589920044 -0.40700000524520874,-0.7080000042915344 -2.246999979019165,2.8420000076293945 C-2.5169999599456787,3.361999988555908 -3.1470000743865967,3.552000045776367 -3.6570000648498535,3.2920000553131104 C-4.166999816894531,3.0220000743865967 -4.367000102996826,2.3919999599456787 -4.0970001220703125,1.8819999694824219z"/></g></g><g transform="matrix(1,0,0,1,120.33300018310547,166.85800170898438)" opacity="1" style="display: block;"><g opacity="1" transform="matrix(2,0,0,2,0,0)"><path fill="rgb(237,149,130)" fill-opacity="1" d=" M0.0010000000474974513,4.559999942779541 C1.7710000276565552,4.559999942779541 3.2109999656677246,3.130000114440918 3.2109999656677246,1.3700000047683716 C3.2109999656677246,-0.38999998569488525 0.0010000000474974513,-4.559999942779541 0.0010000000474974513,-4.559999942779541 C0.0010000000474974513,-4.559999942779541 -0.3889999985694885,-4.039999961853027 -0.3889999985694885,-4.039999961853027 C-1.2389999628067017,-2.869999885559082 -3.2090001106262207,-0.009999999776482582 -3.2090001106262207,1.3700000047683716 C-3.2090001106262207,3.130000114440918 -1.7690000534057617,4.559999942779541 0.0010000000474974513,4.559999942779541z"/></g></g><g mask="url(#__lottie_element_4398)" style="display: block;"><g transform="matrix(1,0,0,1,149.36900329589844,82.41497802734375)" opacity="1"><g opacity="1" transform="matrix(2,0,0,2,0,0)"><path fill="rgb(165,112,255)" fill-opacity="1" d=" M-21.60700035095215,-22.604000091552734 C-21.60700035095215,-22.604000091552734 21.613000869750977,-22.604000091552734 21.613000869750977,-22.604000091552734 C23.533000946044922,-22.604000091552734 25.08300018310547,-21.04400062561035 25.08300018310547,-19.124000549316406 C25.08300018310547,-19.124000549316406 25.08300018310547,19.125999450683594 25.08300018310547,19.125999450683594 C25.08300018310547,21.04599952697754 23.533000946044922,22.606000900268555 21.613000869750977,22.606000900268555 C21.613000869750977,22.606000900268555 -6.117000102996826,22.606000900268555 -6.117000102996826,22.606000900268555 C-16.597000122070312,22.606000900268555 -25.086999893188477,14.116000175476074 -25.086999893188477,3.635999917984009 C-25.086999893188477,3.635999917984009 -25.086999893188477,-19.124000549316406 -25.086999893188477,-19.124000549316406 C-25.086999893188477,-21.04400062561035 -23.527000427246094,-22.604000091552734 -21.60700035095215,-22.604000091552734z"/></g></g></g><g transform="matrix(1,0,0,1,79.33100128173828,148.14199829101562)" opacity="1" style="display: block;"><g opacity="1" transform="matrix(2,0,0,2,0,0)"><path fill="rgb(165,112,255)" fill-opacity="1" d=" M-1.440999984741211,-26.315000534057617 C-1.440999984741211,-26.315000534057617 -1.0509999990463257,-26.69499969482422 -1.0509999990463257,-26.69499969482422 C-1.0509999990463257,-26.69499969482422 8.08899974822998,-30.485000610351562 8.08899974822998,-30.485000610351562 C9.048999786376953,-30.895000457763672 10.159000396728516,-30.434999465942383 10.569000244140625,-29.46500015258789 C10.659000396728516,-29.235000610351562 10.708999633789062,-28.985000610351562 10.708999633789062,-28.735000610351562 C10.708999633789062,-28.735000610351562 10.708999633789062,29.05500030517578 10.708999633789062,29.05500030517578 C10.708999633789062,29.924999237060547 9.99899959564209,30.635000228881836 9.128999710083008,30.635000228881836 C9.128999710083008,30.635000228881836 -8.810999870300293,30.635000228881836 -8.810999870300293,30.635000228881836 C-9.861000061035156,30.635000228881836 -10.711000442504883,29.78499984741211 -10.711000442504883,28.735000610351562 C-10.711000442504883,28.735000610351562 -10.711000442504883,-3.944999933242798 -10.711000442504883,-3.944999933242798 C-10.711000442504883,-12.345000267028809 -7.370999813079834,-20.385000228881836 -1.440999984741211,-26.315000534057617 C-1.440999984741211,-26.315000534057617 -1.440999984741211,-26.315000534057617 -1.440999984741211,-26.315000534057617z"/></g></g><g transform="matrix(1,0,0,1,118.81400299072266,342.156005859375)" opacity="1" style="display: block;"><g opacity="1" transform="matrix(2,0,0,2,0,0)"><path fill="rgb(165,112,255)" fill-opacity="1" d=" M-6.505000114440918,-30.905000686645508 C-6.505000114440918,-30.905000686645508 6.505000114440918,-30.905000686645508 6.505000114440918,-30.905000686645508 C7.065000057220459,-30.905000686645508 7.514999866485596,-30.454999923706055 7.514999866485596,-29.895000457763672 C7.514999866485596,-29.895000457763672 7.514999866485596,29.895000457763672 7.514999866485596,29.895000457763672 C7.514999866485596,30.454999923706055 7.065000057220459,30.905000686645508 6.505000114440918,30.905000686645508 C6.505000114440918,30.905000686645508 -6.505000114440918,30.905000686645508 -6.505000114440918,30.905000686645508 C-7.065000057220459,30.905000686645508 -7.514999866485596,30.454999923706055 -7.514999866485596,29.895000457763672 C-7.514999866485596,29.895000457763672 -7.514999866485596,-29.895000457763672 -7.514999866485596,-29.895000457763672 C-7.514999866485596,-30.454999923706055 -7.065000057220459,-30.905000686645508 -6.505000114440918,-30.905000686645508z"/></g></g><g transform="matrix(1,0,0,1,119,253.0919952392578)" opacity="1" style="display: block;"><g opacity="1" transform="matrix(2,0,0,2,0,0)"><path fill="rgb(89,63,133)" fill-opacity="1" d=" M-0.2919999957084656,-16.45400047302246 C-0.2919999957084656,-16.45400047302246 0.2879999876022339,-16.45400047302246 0.2879999876022339,-16.45400047302246 C2.9179999828338623,-16.45400047302246 5.377999782562256,-15.144000053405762 6.8379998207092285,-12.954000473022461 C6.8379998207092285,-12.954000473022461 20.257999420166016,7.116000175476074 20.257999420166016,7.116000175476074 C22.097999572753906,9.87600040435791 21.357999801635742,13.595999717712402 18.607999801635742,15.446000099182129 C17.618000030517578,16.106000900268555 16.45800018310547,16.45599937438965 15.267999649047852,16.45599937438965 C15.267999649047852,16.45599937438965 -15.272000312805176,16.45599937438965 -15.272000312805176,16.45599937438965 C-18.582000732421875,16.45599937438965 -21.27199935913086,13.765999794006348 -21.27199935913086,10.456000328063965 C-21.27199935913086,9.265999794006348 -20.922000885009766,8.105999946594238 -20.261999130249023,7.116000175476074 C-20.261999130249023,7.116000175476074 -6.8420000076293945,-12.954000473022461 -6.8420000076293945,-12.954000473022461 C-5.381999969482422,-15.144000053405762 -2.921999931335449,-16.45400047302246 -0.2919999957084656,-16.45400047302246z"/></g></g><g transform="matrix(1,0,0,1,104.1550064086914,268.1990051269531)" opacity="1" style="display: block;"><g opacity="1" transform="matrix(2,0,0,2,0,0)"><path fill="rgb(255,198,182)" fill-opacity="1" d=" M-4.210000038146973,-3.5399999618530273 C-2.259999990463257,-5.860000133514404 1.2100000381469727,-6.170000076293945 3.5399999618530273,-4.210000038146973 C5.860000133514404,-2.259999990463257 6.170000076293945,1.2100000381469727 4.210000038146973,3.5399999618530273 C2.259999990463257,5.860000133514404 -1.2100000381469727,6.170000076293945 -3.5399999618530273,4.210000038146973 C-5.860000133514404,2.259999990463257 -6.170000076293945,-1.2100000381469727 -4.210000038146973,-3.5399999618530273z"/></g></g><g transform="matrix(1,0,0,1,130.90200805664062,269.7200012207031)" opacity="1" style="display: block;"><g opacity="1" transform="matrix(2,0,0,2,0,0)"><path fill="rgb(89,63,133)" fill-opacity="1" d=" M11.288999557495117,-2.306999921798706 C11.288999557495117,-2.306999921798706 -1.9509999752044678,-6.867000102996826 -1.9509999752044678,-6.867000102996826 C-7.080999851226807,-8.63700008392334 -12.670999526977539,-5.986999988555908 -14.560999870300293,-0.9369999766349792 C-14.560999870300293,-0.9369999766349792 -14.66100025177002,-0.6669999957084656 -14.66100025177002,-0.6669999957084656 C-14.66100025177002,-0.6669999957084656 8.029000282287598,7.14300012588501 8.029000282287598,7.14300012588501 C10.638999938964844,8.043000221252441 13.48900032043457,6.6529998779296875 14.388999938964844,4.043000221252441 C15.288999557495117,1.4329999685287476 13.89900016784668,-1.4170000553131104 11.288999557495117,-2.306999921798706z"/></g></g><g transform="matrix(1,0,0,1,117.5050048828125,276.3949890136719)" opacity="1" style="display: block;"><g opacity="1" transform="matrix(2,0,0,2,0,0)"><path fill="rgb(89,63,133)" fill-opacity="1" d=" M-14.5,-5 C-14.5,-5 2.625,-5.052999973297119 2.625,-5.052999973297119 C5.385000228881836,-5.052999973297119 7.625,-2.812999963760376 7.625,-0.05299999937415123 C7.625,2.7070000171661377 5.385000228881836,4.947000026702881 2.625,4.947000026702881 C2.625,4.947000026702881 -14.5,5 -14.5,5 C-17.260000228881836,5 -19.5,2.759999990463257 -19.5,0 C-19.5,-2.759999990463257 -17.260000228881836,-5 -14.5,-5z"/></g></g><g transform="matrix(1,0,0,1,136.10501098632812,263.38800048828125)" opacity="1" style="display: block;"><g opacity="1" transform="matrix(2,0,0,2,0,0)"><path fill="rgb(255,198,182)" fill-opacity="1" d=" M4.400000095367432,2.3949999809265137 C3.509999990463257,3.575000047683716 1.8300000429153442,3.815000057220459 0.6499999761581421,2.924999952316284 C0.5699999928474426,2.865000009536743 0.49000000953674316,2.7950000762939453 0.41999998688697815,2.7249999046325684 C0.41999998688697815,2.7249999046325684 -5,-2.4149999618530273 -5,-2.4149999618530273 C-5,-2.4149999618530273 -2.7200000286102295,-3.1449999809265137 -2.7200000286102295,-3.1449999809265137 C-0.6299999952316284,-3.815000057220459 1.649999976158142,-3.424999952316284 3.4100000858306885,-2.1050000190734863 C3.4100000858306885,-2.1050000190734863 3.809999942779541,-1.8049999475479126 3.809999942779541,-1.8049999475479126 C5.130000114440918,-0.8050000071525574 5.389999866485596,1.0750000476837158 4.400000095367432,2.3949999809265137z"/></g></g><g clip-path="url(#__lottie_element_4374)" transform="matrix(0.6427876353263855,0.7660444378852844,-0.7660444378852844,0.6427876353263855,242.8250274658203,2.4103240966796875)" opacity="0" style="display: block;"><g transform="matrix(1,0,0,1,106.75800323486328,269.3739929199219)" opacity="1" style="display: block;"><g opacity="1" transform="matrix(2,0,0,2,0,0)"><path fill="rgb(255,198,182)" fill-opacity="1" d=" M-0.3409999907016754,-4.914999961853027 C-0.3409999907016754,-4.914999961853027 3.4189999103546143,-3.5450000762939453 3.4189999103546143,-3.5450000762939453 C5.749000072479248,-2.694999933242798 6.959000110626221,-0.11500000208616257 6.109000205993652,2.2249999046325684 C5.258999824523926,4.554999828338623 2.678999900817871,5.764999866485596 0.33899998664855957,4.914999961853027 C0.33899998664855957,4.914999961853027 -3.4210000038146973,3.5450000762939453 -3.4210000038146973,3.5450000762939453 C-5.750999927520752,2.694999933242798 -6.960999965667725,0.11500000208616257 -6.111000061035156,-2.2249999046325684 C-5.261000156402588,-4.554999828338623 -2.680999994277954,-5.764999866485596 -0.3409999907016754,-4.914999961853027z"/></g></g><g transform="matrix(1,0,0,1,98.95899963378906,261.1929931640625)" opacity="1" style="display: block;"><g opacity="1" transform="matrix(2,0,0,2,0,0)"><path fill="rgb(255,198,182)" fill-opacity="1" d=" M-2.6089999675750732,-3.078000068664551 C-2.6089999675750732,-3.078000068664551 3.9709999561309814,-0.6779999732971191 3.9709999561309814,-0.6779999732971191 C5.011000156402588,-0.30799999833106995 5.551000118255615,0.8420000076293945 5.171000003814697,1.8819999694824219 C4.790999889373779,2.921999931335449 3.6410000324249268,3.4519999027252197 2.6010000705718994,3.072000026702881 C2.6010000705718994,3.072000026702881 -3.9690001010894775,0.6819999814033508 -3.9690001010894775,0.6819999814033508 C-5.008999824523926,0.3019999861717224 -5.548999786376953,-0.8479999899864197 -5.169000148773193,-1.878000020980835 C-4.789000034332275,-2.9179999828338623 -3.6389999389648438,-3.4579999446868896 -2.6089999675750732,-3.078000068664551z"/></g></g></g><g clip-path="url(#__lottie_element_4367)" transform="matrix(0.7313537001609802,0.6819983720779419,0.6819983720779419,-0.7313537001609802,-152.7284698486328,342.7719421386719)" opacity="0" style="display: block;"><g transform="matrix(1,0,0,1,116.26899719238281,247.7570037841797)" opacity="1" style="display: block;"><g opacity="1" transform="matrix(2,0,0,2,0,0)"><path fill="rgb(255,198,182)" fill-opacity="1" d=" M-3.4059998989105225,-3.6540000438690186 C-2.6059999465942383,-4.414000034332275 -1.3359999656677246,-4.363999843597412 -0.5860000252723694,-3.553999900817871 C-0.5860000252723694,-3.553999900817871 3.503999948501587,0.8259999752044678 3.503999948501587,0.8259999752044678 C4.263999938964844,1.6360000371932983 4.214000225067139,2.9059998989105225 3.4140000343322754,3.6559998989105225 C2.6040000915527344,4.406000137329102 1.3339999914169312,4.366000175476074 0.5839999914169312,3.555999994277954 C0.5839999914169312,3.555999994277954 -3.50600004196167,-0.8339999914169312 -3.50600004196167,-0.8339999914169312 C-4.265999794006348,-1.6339999437332153 -4.216000080108643,-2.9040000438690186 -3.4059998989105225,-3.6540000438690186z"/></g></g><g transform="matrix(1,0,0,1,126,242)" opacity="1" style="display: block;"><g opacity="1" transform="matrix(2,0,0,2,0,0)"><path fill="rgb(255,198,182)" fill-opacity="1" d=" M0,-8 C2.759999990463257,-8 5,-5.760000228881836 5,-3 C5,-3 5,3 5,3 C5,5.760000228881836 2.759999990463257,8 0,8 C0,8 -1,8 -1,8 C-3.2100000381469727,8 -5,6.210000038146973 -5,4 C-5,4 -5,-3 -5,-3 C-5,-5.760000228881836 -2.759999990463257,-8 0,-8z"/></g></g></g><g style="display: none;"><g><path/></g></g><g style="display: none;"><g><path/></g></g></g><g clip-path="url(#__lottie_element_4282)" style="display: block;" transform="matrix(1,0,0,1,0,0)" opacity="1"><g style="display: block;" transform="matrix(1,0,0,1,132.82699584960938,421.8680114746094)" opacity="1"><g opacity="1" transform="matrix(2,0,0,2,0,0)"><path fill="rgb(89,63,133)" fill-opacity="1" d=" M-9.880999565124512,0.0010000000474974513 C-9.880999565124512,-2.188999891281128 -8.10099983215332,-3.9690001010894775 -5.910999774932861,-3.9690001010894775 C-5.910999774932861,-3.9690001010894775 5.908999919891357,-3.9690001010894775 5.908999919891357,-3.9690001010894775 C8.109000205993652,-3.9690001010894775 9.878999710083008,-2.188999891281128 9.878999710083008,0.0010000000474974513 C9.878999710083008,2.190999984741211 8.109000205993652,3.9709999561309814 5.908999919891357,3.9709999561309814 C5.908999919891357,3.9709999561309814 -5.910999774932861,3.9709999561309814 -5.910999774932861,3.9709999561309814 C-8.10099983215332,3.9709999561309814 -9.880999565124512,2.190999984741211 -9.880999565124512,0.0010000000474974513z"/></g></g><g style="display: block;" transform="matrix(1,0,0,1,106.8270034790039,421.8680114746094)" opacity="1"><g opacity="1" transform="matrix(2,0,0,2,0,0)"><path fill="rgb(89,63,133)" fill-opacity="1" d=" M-9.880999565124512,0.0010000000474974513 C-9.880999565124512,-2.188999891281128 -8.10099983215332,-3.9690001010894775 -5.910999774932861,-3.9690001010894775 C-5.910999774932861,-3.9690001010894775 5.908999919891357,-3.9690001010894775 5.908999919891357,-3.9690001010894775 C8.109000205993652,-3.9690001010894775 9.878999710083008,-2.188999891281128 9.878999710083008,0.0010000000474974513 C9.878999710083008,2.190999984741211 8.109000205993652,3.9709999561309814 5.908999919891357,3.9709999561309814 C5.908999919891357,3.9709999561309814 -5.910999774932861,3.9709999561309814 -5.910999774932861,3.9709999561309814 C-8.10099983215332,3.9709999561309814 -9.880999565124512,2.190999984741211 -9.880999565124512,0.0010000000474974513z"/></g></g><g style="display: block;" transform="matrix(1,0,0,1,118.92500305175781,151.24200439453125)" opacity="1"><g opacity="1" transform="matrix(2,0,0,2,0,0)"><path fill="rgb(165,112,255)" fill-opacity="1" d=" M-1.6449999809265137,-37.62099838256836 C14.045000076293945,-37.62099838256836 27.395000457763672,-26.201000213623047 29.834999084472656,-10.701000213623047 C29.834999084472656,-10.701000213623047 37.1349983215332,35.79899978637695 37.1349983215332,35.79899978637695 C37.275001525878906,36.659000396728516 36.685001373291016,37.46900177001953 35.82500076293945,37.5989990234375 C35.73500061035156,37.61899948120117 35.654998779296875,37.61899948120117 35.57500076293945,37.61899948120117 C35.57500076293945,37.61899948120117 -35.57600021362305,37.61899948120117 -35.57600021362305,37.61899948120117 C-36.44599914550781,37.61899948120117 -37.15599822998047,36.909000396728516 -37.15599822998047,36.03900146484375 C-37.15599822998047,35.979000091552734 -37.154998779296875,35.91899871826172 -37.14500045776367,35.86899948120117 C-37.14500045776367,35.86899948120117 -31.93600082397461,-10.541000366210938 -31.93600082397461,-10.541000366210938 C-30.20599937438965,-25.961000442504883 -17.165000915527344,-37.62099838256836 -1.6449999809265137,-37.62099838256836z"/></g></g><g style="display: block;" transform="matrix(1,0,0,1,174.06300354003906,139.63699340820312)" opacity="1"><g opacity="1" transform="matrix(2,0,0,2,0,0)"><path fill="rgb(255,198,182)" fill-opacity="1" d=" M-1.1670000553131104,-6.006999969482422 C-1.1670000553131104,-6.006999969482422 1.1729999780654907,-6.006999969482422 1.1729999780654907,-6.006999969482422 C4.493000030517578,-6.006999969482422 7.172999858856201,-3.316999912261963 7.172999858856201,0.003000000026077032 C7.172999858856201,3.312999963760376 4.493000030517578,6.002999782562256 1.1729999780654907,6.002999782562256 C1.1729999780654907,6.002999782562256 -1.1670000553131104,6.002999782562256 -1.1670000553131104,6.002999782562256 C-4.486999988555908,6.002999782562256 -7.177000045776367,3.312999963760376 -7.177000045776367,0.003000000026077032 C-7.177000045776367,-3.316999912261963 -4.486999988555908,-6.006999969482422 -1.1670000553131104,-6.006999969482422z"/></g></g><g style="display: block;" transform="matrix(1,0,0,1,118.81400299072266,254.33599853515625)" opacity="1"><g opacity="1" transform="matrix(2,0,0,2,0,0)"><path fill="rgb(89,62,133)" fill-opacity="1" d=" M-6.60099983215332,-28.75 C-6.60099983215332,-28.75 6.408999919891357,-28.75 6.408999919891357,-28.75 C6.968999862670898,-28.75 7.419000148773193,-28.299999237060547 7.419000148773193,-27.739999771118164 C7.419000148773193,-27.739999771118164 7.589000225067139,14.864999771118164 7.589000225067139,14.864999771118164 C7.589000225067139,15.425000190734863 7.138999938964844,15.875 6.578999996185303,15.875 C6.578999996185303,15.875 -6.431000232696533,15.875 -6.431000232696533,15.875 C-6.991000175476074,15.875 -7.440999984741211,15.425000190734863 -7.440999984741211,14.864999771118164 C-7.440999984741211,14.864999771118164 -7.611000061035156,-27.739999771118164 -7.611000061035156,-27.739999771118164 C-7.611000061035156,-28.299999237060547 -7.160999774932861,-28.75 -6.60099983215332,-28.75z"/></g></g><g style="display: block;" transform="matrix(1,0,0,1,121.26900482177734,144.2869873046875)" opacity="1"><g opacity="1" transform="matrix(2,0,0,2,0,0)"><path fill="rgb(255,197,183)" fill-opacity="1" d=" M0.6819999814033508,-29.400999069213867 C13.942000389099121,-29.400999069213867 25.082000732421875,-19.44099998474121 26.57200050354004,-6.261000156402588 C26.57200050354004,-6.261000156402588 28.98200035095215,15.08899974822998 28.98200035095215,15.08899974822998 C29.781999588012695,22.14900016784668 24.70199966430664,28.518999099731445 17.642000198364258,29.319000244140625 C17.16200065612793,29.378999710083008 16.68199920654297,29.39900016784668 16.20199966430664,29.39900016784668 C16.20199966430664,29.39900016784668 -16.197999954223633,29.39900016784668 -16.197999954223633,29.39900016784668 C-23.308000564575195,29.39900016784668 -29.06800079345703,23.638999938964844 -29.06800079345703,16.538999557495117 C-29.06800079345703,15.918999671936035 -29.027999877929688,15.309000015258789 -28.937999725341797,14.708999633789062 C-28.937999725341797,14.708999633789062 -25.917999267578125,-6.35099983215332 -25.917999267578125,-6.35099983215332 C-24.01799964904785,-19.58099937438965 -12.678000450134277,-29.400999069213867 0.6819999814033508,-29.400999069213867z"/></g></g><g style="display: block;" transform="matrix(1,0,0,1,138.62200927734375,148.10899353027344)" opacity="1"><g opacity="1" transform="matrix(2,0,0,2,0,0)"><path fill="rgb(255,255,255)" fill-opacity="1" d=" M6.947000026702881,-8.696000099182129 C6.947000026702881,-8.696000099182129 -0.003000000026077032,-8.696000099182129 -0.003000000026077032,-8.696000099182129 C-4.39300012588501,-8.696000099182129 -7.9629998207092285,-5.125999927520752 -7.9629998207092285,-0.7360000014305115 C-7.9629998207092285,-0.7360000014305115 -7.9629998207092285,4.814000129699707 -7.9629998207092285,4.814000129699707 C-7.9629998207092285,6.953999996185303 -6.2230000495910645,8.694000244140625 -4.083000183105469,8.694000244140625 C-4.083000183105469,8.694000244140625 -0.003000000026077032,8.694000244140625 -0.003000000026077032,8.694000244140625 C4.396999835968018,8.694000244140625 7.9670000076293945,5.133999824523926 7.9670000076293945,0.734000027179718 C7.9670000076293945,0.734000027179718 7.9670000076293945,-7.685999870300293 7.9670000076293945,-7.685999870300293 C7.9670000076293945,-8.246000289916992 7.506999969482422,-8.696000099182129 6.947000026702881,-8.696000099182129z"/></g></g><g mask="url(#__lottie_element_4347)" style="display: block;"><g transform="matrix(1,0,0,1,135.28700256347656,145.05899047851562)" opacity="1"><g opacity="1" transform="matrix(2,0,0,2,0,0)"><path fill="rgb(61,61,61)" fill-opacity="1" d=" M-0.004999999888241291,-5.820000171661377 C1.975000023841858,-5.820000171661377 3.575000047683716,-4.21999979019165 3.575000047683716,-2.25 C3.575000047683716,-2.25 3.575000047683716,2.240000009536743 3.575000047683716,2.240000009536743 C3.575000047683716,4.21999979019165 1.975000023841858,5.820000171661377 -0.004999999888241291,5.820000171661377 C-1.975000023841858,5.820000171661377 -3.575000047683716,4.21999979019165 -3.575000047683716,2.240000009536743 C-3.575000047683716,2.240000009536743 -3.575000047683716,-2.25 -3.575000047683716,-2.25 C-3.575000047683716,-4.21999979019165 -1.975000023841858,-5.820000171661377 -0.004999999888241291,-5.820000171661377z"/></g></g></g><g mask="url(#__lottie_element_4341)" style="display: block;"><g transform="matrix(1,0,0,1.589460015296936,140.69700622558594,128.318115234375)" opacity="1"><g opacity="1" transform="matrix(2,0,0,2,0,0)"><path fill="rgb(165,112,255)" fill-opacity="1" d=" M-10.217000007629395,-6.671000003814697 C-10.217000007629395,-6.671000003814697 10.213000297546387,-6.671000003814697 10.213000297546387,-6.671000003814697 C10.213000297546387,-6.671000003814697 10.213000297546387,6.669000148773193 10.213000297546387,6.669000148773193 C10.213000297546387,6.669000148773193 -10.217000007629395,6.669000148773193 -10.217000007629395,6.669000148773193 C-10.217000007629395,6.669000148773193 -10.217000007629395,-6.671000003814697 -10.217000007629395,-6.671000003814697z"/></g></g></g><g style="display: block;" transform="matrix(1,0,0,1,102.72000122070312,148.10899353027344)" opacity="1"><g opacity="1" transform="matrix(2,0,0,2,0,0)"><path fill="rgb(255,255,255)" fill-opacity="1" d=" M-6.953000068664551,-8.696000099182129 C-6.953000068664551,-8.696000099182129 -0.003000000026077032,-8.696000099182129 -0.003000000026077032,-8.696000099182129 C4.396999835968018,-8.696000099182129 7.9670000076293945,-5.125999927520752 7.9670000076293945,-0.7360000014305115 C7.9670000076293945,-0.7360000014305115 7.9670000076293945,4.644000053405762 7.9670000076293945,4.644000053405762 C7.9670000076293945,6.883999824523926 6.146999835968018,8.694000244140625 3.9070000648498535,8.694000244140625 C3.9070000648498535,8.694000244140625 -0.003000000026077032,8.694000244140625 -0.003000000026077032,8.694000244140625 C-4.39300012588501,8.694000244140625 -7.9629998207092285,5.133999824523926 -7.9629998207092285,0.734000027179718 C-7.9629998207092285,0.734000027179718 -7.9629998207092285,-7.685999870300293 -7.9629998207092285,-7.685999870300293 C-7.9629998207092285,-8.246000289916992 -7.513000011444092,-8.696000099182129 -6.953000068664551,-8.696000099182129z"/></g></g><g mask="url(#__lottie_element_4337)" style="display: block;"><g transform="matrix(1,0,0,1,106.10400390625,145.05899047851562)" opacity="1"><g opacity="1" transform="matrix(2,0,0,2,0,0)"><path fill="rgb(61,61,61)" fill-opacity="1" d=" M-0.004999999888241291,-5.820000171661377 C1.975000023841858,-5.820000171661377 3.575000047683716,-4.21999979019165 3.575000047683716,-2.25 C3.575000047683716,-2.25 3.575000047683716,2.240000009536743 3.575000047683716,2.240000009536743 C3.575000047683716,4.21999979019165 1.975000023841858,5.820000171661377 -0.004999999888241291,5.820000171661377 C-1.975000023841858,5.820000171661377 -3.575000047683716,4.21999979019165 -3.575000047683716,2.240000009536743 C-3.575000047683716,2.240000009536743 -3.575000047683716,-2.25 -3.575000047683716,-2.25 C-3.575000047683716,-4.21999979019165 -1.975000023841858,-5.820000171661377 -0.004999999888241291,-5.820000171661377z"/></g></g></g><g mask="url(#__lottie_element_4331)" style="display: block;"><g transform="matrix(1,0,0,1.6473300457000732,104.03700256347656,127.69927215576172)" opacity="1"><g opacity="1" transform="matrix(2,0,0,2,0,0)"><path fill="rgb(165,112,255)" fill-opacity="1" d=" M-10.217000007629395,-6.671000003814697 C-10.217000007629395,-6.671000003814697 10.213000297546387,-6.671000003814697 10.213000297546387,-6.671000003814697 C10.213000297546387,-6.671000003814697 10.213000297546387,6.669000148773193 10.213000297546387,6.669000148773193 C10.213000297546387,6.669000148773193 -10.217000007629395,6.669000148773193 -10.217000007629395,6.669000148773193 C-10.217000007629395,6.669000148773193 -10.217000007629395,-6.671000003814697 -10.217000007629395,-6.671000003814697z"/></g></g></g><g style="display: block;" transform="matrix(0.5027700066566467,0,0,0.2760300040245056,150.8990020751953,183.083984375)" opacity="1"><path fill="rgb(255,198,183)" fill-opacity="1" d=" M0,-50 C27.594999313354492,-50 50,-27.594999313354492 50,0 C50,27.594999313354492 27.594999313354492,50 0,50 C-27.594999313354492,50 -50,27.594999313354492 -50,0 C-50,-27.594999313354492 -27.594999313354492,-50 0,-50z"/></g><g style="display: block;" transform="matrix(1,0,0,1,137.0189971923828,180.40199279785156)" opacity="1"><g opacity="1" transform="matrix(2,0,0,2,0,0)"><path fill="rgb(237,149,130)" fill-opacity="1" d=" M-4.0970001220703125,1.8819999694824219 C-1.7970000505447388,-2.5480000972747803 0.8130000233650208,-4.3480000495910645 3.6429998874664307,-2.937999963760376 C4.1529998779296875,-2.677999973297119 4.36299991607666,-2.058000087738037 4.103000164031982,-1.5379999876022339 C3.8529999256134033,-1.0180000066757202 3.2230000495910645,-0.8080000281333923 2.703000068664551,-1.0679999589920044 C1.2130000591278076,-1.8179999589920044 -0.40700000524520874,-0.7080000042915344 -2.246999979019165,2.8420000076293945 C-2.5169999599456787,3.361999988555908 -3.1470000743865967,3.552000045776367 -3.6570000648498535,3.2920000553131104 C-4.166999816894531,3.0220000743865967 -4.367000102996826,2.3919999599456787 -4.0970001220703125,1.8819999694824219z"/></g></g><g style="display: block;" transform="matrix(1,0,0,1,120.33300018310547,166.85800170898438)" opacity="1"><g opacity="1" transform="matrix(2,0,0,2,0,0)"><path fill="rgb(237,149,130)" fill-opacity="1" d=" M0.0010000000474974513,4.559999942779541 C1.7710000276565552,4.559999942779541 3.2109999656677246,3.130000114440918 3.2109999656677246,1.3700000047683716 C3.2109999656677246,-0.38999998569488525 0.0010000000474974513,-4.559999942779541 0.0010000000474974513,-4.559999942779541 C0.0010000000474974513,-4.559999942779541 -0.3889999985694885,-4.039999961853027 -0.3889999985694885,-4.039999961853027 C-1.2389999628067017,-2.869999885559082 -3.2090001106262207,-0.009999999776482582 -3.2090001106262207,1.3700000047683716 C-3.2090001106262207,3.130000114440918 -1.7690000534057617,4.559999942779541 0.0010000000474974513,4.559999942779541z"/></g></g><g mask="url(#__lottie_element_4320)" style="display: block;"><g transform="matrix(1,0,0,1,149.36900329589844,82.41497802734375)" opacity="1"><g opacity="1" transform="matrix(2,0,0,2,0,0)"><path fill="rgb(165,112,255)" fill-opacity="1" d=" M-21.60700035095215,-22.604000091552734 C-21.60700035095215,-22.604000091552734 21.613000869750977,-22.604000091552734 21.613000869750977,-22.604000091552734 C23.533000946044922,-22.604000091552734 25.08300018310547,-21.04400062561035 25.08300018310547,-19.124000549316406 C25.08300018310547,-19.124000549316406 25.08300018310547,19.125999450683594 25.08300018310547,19.125999450683594 C25.08300018310547,21.04599952697754 23.533000946044922,22.606000900268555 21.613000869750977,22.606000900268555 C21.613000869750977,22.606000900268555 -6.117000102996826,22.606000900268555 -6.117000102996826,22.606000900268555 C-16.597000122070312,22.606000900268555 -25.086999893188477,14.116000175476074 -25.086999893188477,3.635999917984009 C-25.086999893188477,3.635999917984009 -25.086999893188477,-19.124000549316406 -25.086999893188477,-19.124000549316406 C-25.086999893188477,-21.04400062561035 -23.527000427246094,-22.604000091552734 -21.60700035095215,-22.604000091552734z"/></g></g></g><g style="display: block;" transform="matrix(1,0,0,1,79.33100128173828,148.14199829101562)" opacity="1"><g opacity="1" transform="matrix(2,0,0,2,0,0)"><path fill="rgb(165,112,255)" fill-opacity="1" d=" M-1.440999984741211,-26.315000534057617 C-1.440999984741211,-26.315000534057617 -1.0509999990463257,-26.69499969482422 -1.0509999990463257,-26.69499969482422 C-1.0509999990463257,-26.69499969482422 8.08899974822998,-30.485000610351562 8.08899974822998,-30.485000610351562 C9.048999786376953,-30.895000457763672 10.159000396728516,-30.434999465942383 10.569000244140625,-29.46500015258789 C10.659000396728516,-29.235000610351562 10.708999633789062,-28.985000610351562 10.708999633789062,-28.735000610351562 C10.708999633789062,-28.735000610351562 10.708999633789062,29.05500030517578 10.708999633789062,29.05500030517578 C10.708999633789062,29.924999237060547 9.99899959564209,30.635000228881836 9.128999710083008,30.635000228881836 C9.128999710083008,30.635000228881836 -8.810999870300293,30.635000228881836 -8.810999870300293,30.635000228881836 C-9.861000061035156,30.635000228881836 -10.711000442504883,29.78499984741211 -10.711000442504883,28.735000610351562 C-10.711000442504883,28.735000610351562 -10.711000442504883,-3.944999933242798 -10.711000442504883,-3.944999933242798 C-10.711000442504883,-12.345000267028809 -7.370999813079834,-20.385000228881836 -1.440999984741211,-26.315000534057617 C-1.440999984741211,-26.315000534057617 -1.440999984741211,-26.315000534057617 -1.440999984741211,-26.315000534057617z"/></g></g><g style="display: block;" transform="matrix(1,0,0,1,118.81400299072266,342.156005859375)" opacity="1"><g opacity="1" transform="matrix(2,0,0,2,0,0)"><path fill="rgb(165,112,255)" fill-opacity="1" d=" M-6.505000114440918,-30.905000686645508 C-6.505000114440918,-30.905000686645508 6.505000114440918,-30.905000686645508 6.505000114440918,-30.905000686645508 C7.065000057220459,-30.905000686645508 7.514999866485596,-30.454999923706055 7.514999866485596,-29.895000457763672 C7.514999866485596,-29.895000457763672 7.514999866485596,29.895000457763672 7.514999866485596,29.895000457763672 C7.514999866485596,30.454999923706055 7.065000057220459,30.905000686645508 6.505000114440918,30.905000686645508 C6.505000114440918,30.905000686645508 -6.505000114440918,30.905000686645508 -6.505000114440918,30.905000686645508 C-7.065000057220459,30.905000686645508 -7.514999866485596,30.454999923706055 -7.514999866485596,29.895000457763672 C-7.514999866485596,29.895000457763672 -7.514999866485596,-29.895000457763672 -7.514999866485596,-29.895000457763672 C-7.514999866485596,-30.454999923706055 -7.065000057220459,-30.905000686645508 -6.505000114440918,-30.905000686645508z"/></g></g><g style="display: block;" transform="matrix(1,0,0,1,119,253.0919952392578)" opacity="1"><g opacity="1" transform="matrix(2,0,0,2,0,0)"><path fill="rgb(89,63,133)" fill-opacity="1" d=" M-0.2919999957084656,-16.45400047302246 C-0.2919999957084656,-16.45400047302246 0.2879999876022339,-16.45400047302246 0.2879999876022339,-16.45400047302246 C2.9179999828338623,-16.45400047302246 5.377999782562256,-15.144000053405762 6.8379998207092285,-12.954000473022461 C6.8379998207092285,-12.954000473022461 20.257999420166016,7.116000175476074 20.257999420166016,7.116000175476074 C22.097999572753906,9.87600040435791 21.357999801635742,13.595999717712402 18.607999801635742,15.446000099182129 C17.618000030517578,16.106000900268555 16.45800018310547,16.45599937438965 15.267999649047852,16.45599937438965 C15.267999649047852,16.45599937438965 -15.272000312805176,16.45599937438965 -15.272000312805176,16.45599937438965 C-18.582000732421875,16.45599937438965 -21.27199935913086,13.765999794006348 -21.27199935913086,10.456000328063965 C-21.27199935913086,9.265999794006348 -20.922000885009766,8.105999946594238 -20.261999130249023,7.116000175476074 C-20.261999130249023,7.116000175476074 -6.8420000076293945,-12.954000473022461 -6.8420000076293945,-12.954000473022461 C-5.381999969482422,-15.144000053405762 -2.921999931335449,-16.45400047302246 -0.2919999957084656,-16.45400047302246z"/></g></g><g style="display: block;" transform="matrix(1,0,0,1,104.1550064086914,268.1990051269531)" opacity="1"><g opacity="1" transform="matrix(2,0,0,2,0,0)"><path fill="rgb(255,198,182)" fill-opacity="1" d=" M-4.210000038146973,-3.5399999618530273 C-2.259999990463257,-5.860000133514404 1.2100000381469727,-6.170000076293945 3.5399999618530273,-4.210000038146973 C5.860000133514404,-2.259999990463257 6.170000076293945,1.2100000381469727 4.210000038146973,3.5399999618530273 C2.259999990463257,5.860000133514404 -1.2100000381469727,6.170000076293945 -3.5399999618530273,4.210000038146973 C-5.860000133514404,2.259999990463257 -6.170000076293945,-1.2100000381469727 -4.210000038146973,-3.5399999618530273z"/></g></g><g style="display: block;" transform="matrix(1,0,0,1,130.90200805664062,269.7200012207031)" opacity="1"><g opacity="1" transform="matrix(2,0,0,2,0,0)"><path fill="rgb(89,63,133)" fill-opacity="1" d=" M11.288999557495117,-2.306999921798706 C11.288999557495117,-2.306999921798706 -1.9509999752044678,-6.867000102996826 -1.9509999752044678,-6.867000102996826 C-7.080999851226807,-8.63700008392334 -12.670999526977539,-5.986999988555908 -14.560999870300293,-0.9369999766349792 C-14.560999870300293,-0.9369999766349792 -14.66100025177002,-0.6669999957084656 -14.66100025177002,-0.6669999957084656 C-14.66100025177002,-0.6669999957084656 8.029000282287598,7.14300012588501 8.029000282287598,7.14300012588501 C10.638999938964844,8.043000221252441 13.48900032043457,6.6529998779296875 14.388999938964844,4.043000221252441 C15.288999557495117,1.4329999685287476 13.89900016784668,-1.4170000553131104 11.288999557495117,-2.306999921798706z"/></g></g><g style="display: block;" transform="matrix(1,0,0,1,117.5050048828125,276.3949890136719)" opacity="1"><g opacity="1" transform="matrix(2,0,0,2,0,0)"><path fill="rgb(89,63,133)" fill-opacity="1" d=" M-14.5,-5 C-14.5,-5 2.625,-5.052999973297119 2.625,-5.052999973297119 C5.385000228881836,-5.052999973297119 7.625,-2.812999963760376 7.625,-0.05299999937415123 C7.625,2.7070000171661377 5.385000228881836,4.947000026702881 2.625,4.947000026702881 C2.625,4.947000026702881 -14.5,5 -14.5,5 C-17.260000228881836,5 -19.5,2.759999990463257 -19.5,0 C-19.5,-2.759999990463257 -17.260000228881836,-5 -14.5,-5z"/></g></g><g style="display: block;" transform="matrix(1,0,0,1,136.10501098632812,263.38800048828125)" opacity="1"><g opacity="1" transform="matrix(2,0,0,2,0,0)"><path fill="rgb(255,198,182)" fill-opacity="1" d=" M4.400000095367432,2.3949999809265137 C3.509999990463257,3.575000047683716 1.8300000429153442,3.815000057220459 0.6499999761581421,2.924999952316284 C0.5699999928474426,2.865000009536743 0.49000000953674316,2.7950000762939453 0.41999998688697815,2.7249999046325684 C0.41999998688697815,2.7249999046325684 -5,-2.4149999618530273 -5,-2.4149999618530273 C-5,-2.4149999618530273 -2.7200000286102295,-3.1449999809265137 -2.7200000286102295,-3.1449999809265137 C-0.6299999952316284,-3.815000057220459 1.649999976158142,-3.424999952316284 3.4100000858306885,-2.1050000190734863 C3.4100000858306885,-2.1050000190734863 3.809999942779541,-1.8049999475479126 3.809999942779541,-1.8049999475479126 C5.130000114440918,-0.8050000071525574 5.389999866485596,1.0750000476837158 4.400000095367432,2.3949999809265137z"/></g></g><g clip-path="url(#__lottie_element_4296)" style="display: block;" transform="matrix(0.6427876353263855,0.7660444378852844,-0.7660444378852844,0.6427876353263855,242.8250274658203,2.4103240966796875)" opacity="0"><g style="display: block;" transform="matrix(1,0,0,1,106.75800323486328,269.3739929199219)" opacity="1"><g opacity="1" transform="matrix(2,0,0,2,0,0)"><path fill="rgb(255,198,182)" fill-opacity="1" d=" M-0.3409999907016754,-4.914999961853027 C-0.3409999907016754,-4.914999961853027 3.4189999103546143,-3.5450000762939453 3.4189999103546143,-3.5450000762939453 C5.749000072479248,-2.694999933242798 6.959000110626221,-0.11500000208616257 6.109000205993652,2.2249999046325684 C5.258999824523926,4.554999828338623 2.678999900817871,5.764999866485596 0.33899998664855957,4.914999961853027 C0.33899998664855957,4.914999961853027 -3.4210000038146973,3.5450000762939453 -3.4210000038146973,3.5450000762939453 C-5.750999927520752,2.694999933242798 -6.960999965667725,0.11500000208616257 -6.111000061035156,-2.2249999046325684 C-5.261000156402588,-4.554999828338623 -2.680999994277954,-5.764999866485596 -0.3409999907016754,-4.914999961853027z"/></g></g><g style="display: block;" transform="matrix(1,0,0,1,98.95899963378906,261.1929931640625)" opacity="1"><g opacity="1" transform="matrix(2,0,0,2,0,0)"><path fill="rgb(255,198,182)" fill-opacity="1" d=" M-2.6089999675750732,-3.078000068664551 C-2.6089999675750732,-3.078000068664551 3.9709999561309814,-0.6779999732971191 3.9709999561309814,-0.6779999732971191 C5.011000156402588,-0.30799999833106995 5.551000118255615,0.8420000076293945 5.171000003814697,1.8819999694824219 C4.790999889373779,2.921999931335449 3.6410000324249268,3.4519999027252197 2.6010000705718994,3.072000026702881 C2.6010000705718994,3.072000026702881 -3.9690001010894775,0.6819999814033508 -3.9690001010894775,0.6819999814033508 C-5.008999824523926,0.3019999861717224 -5.548999786376953,-0.8479999899864197 -5.169000148773193,-1.878000020980835 C-4.789000034332275,-2.9179999828338623 -3.6389999389648438,-3.4579999446868896 -2.6089999675750732,-3.078000068664551z"/></g></g></g><g clip-path="url(#__lottie_element_4289)" style="display: block;" transform="matrix(0.7313537001609802,0.6819983720779419,0.6819983720779419,-0.7313537001609802,-152.7284698486328,342.7719421386719)" opacity="0"><g style="display: block;" transform="matrix(1,0,0,1,116.26899719238281,247.7570037841797)" opacity="1"><g opacity="1" transform="matrix(2,0,0,2,0,0)"><path fill="rgb(255,198,182)" fill-opacity="1" d=" M-3.4059998989105225,-3.6540000438690186 C-2.6059999465942383,-4.414000034332275 -1.3359999656677246,-4.363999843597412 -0.5860000252723694,-3.553999900817871 C-0.5860000252723694,-3.553999900817871 3.503999948501587,0.8259999752044678 3.503999948501587,0.8259999752044678 C4.263999938964844,1.6360000371932983 4.214000225067139,2.9059998989105225 3.4140000343322754,3.6559998989105225 C2.6040000915527344,4.406000137329102 1.3339999914169312,4.366000175476074 0.5839999914169312,3.555999994277954 C0.5839999914169312,3.555999994277954 -3.50600004196167,-0.8339999914169312 -3.50600004196167,-0.8339999914169312 C-4.265999794006348,-1.6339999437332153 -4.216000080108643,-2.9040000438690186 -3.4059998989105225,-3.6540000438690186z"/></g></g><g style="display: block;" transform="matrix(1,0,0,1,126,242)" opacity="1"><g opacity="1" transform="matrix(2,0,0,2,0,0)"><path fill="rgb(255,198,182)" fill-opacity="1" d=" M0,-8 C2.759999990463257,-8 5,-5.760000228881836 5,-3 C5,-3 5,3 5,3 C5,5.760000228881836 2.759999990463257,8 0,8 C0,8 -1,8 -1,8 C-3.2100000381469727,8 -5,6.210000038146973 -5,4 C-5,4 -5,-3 -5,-3 C-5,-5.760000228881836 -2.759999990463257,-8 0,-8z"/></g></g></g><g style="display: none;"><g><path/></g></g><g style="display: none;"><g><path/></g></g></g></g></svg>