<svg xmlns="http://www.w3.org/2000/svg" viewBox="0 0 118 175" preserveAspectRatio="xMidYMid meet" style="width: 100%; height: 100%; transform: translate3d(0px, 0px, 0px);"><defs><clipPath id="__lottie_element_17499"><rect width="118" height="175" x="0" y="0"/></clipPath><clipPath id="__lottie_element_17502"><path d="M0,0 L236,0 L236,430 L0,430z"/></clipPath><clipPath id="__lottie_element_17509"><path d="M0,0 L236,0 L236,430 L0,430z"/></clipPath><clipPath id="__lottie_element_17576"><path d="M0,0 L236,0 L236,430 L0,430z"/></clipPath><mask id="__lottie_element_17579" mask-type="alpha"><g transform="matrix(1,0,0,1,118.45099639892578,303.5920104980469)" opacity="1" style="display: block;"><g opacity="1" transform="matrix(2,0,0,2,0,0)"><path fill="rgb(255,177,0)" fill-opacity="1" d=" M-6.534999847412109,-28.275999069213867 C-6.534999847412109,-28.275999069213867 6.525000095367432,-28.275999069213867 6.525000095367432,-28.275999069213867 C16.601999282836914,-28.275999069213867 22.711999893188477,-28.29599952697754 32.64500045776367,-28.325000762939453 C40.275001525878906,-21.28499984741211 45.053001403808594,-11.199000358581543 45.053001403808594,0.004000000189989805 C45.053001403808594,0.004000000189989805 45.053001403808594,33.88399887084961 45.053001403808594,33.88399887084961 C45.053001403808594,36.45399856567383 42.983001708984375,38.52399826049805 40.42300033569336,38.52399826049805 C40.42300033569336,38.52399826049805 -40.41699981689453,38.52399826049805 -40.41699981689453,38.52399826049805 C-42.97700119018555,38.52399826049805 -45.05699920654297,36.45399856567383 -45.05699920654297,33.88399887084961 C-45.05699920654297,33.88399887084961 -45.05699920654297,0.004000000189989805 -45.05699920654297,0.004000000189989805 C-45.05699920654297,-11.178000450134277 -40.292999267578125,-21.24799919128418 -32.685001373291016,-28.285999298095703 C-20.100000381469727,-28.29599952697754 -16.632999420166016,-28.275999069213867 -6.534999847412109,-28.275999069213867z"/></g></g></mask><clipPath id="__lottie_element_17582"><path d="M0,0 L236,0 L236,430 L0,430z"/></clipPath><mask id="__lottie_element_17604" mask-type="alpha"><g transform="matrix(1,0,0,1,196.4239959716797,303.00299072265625)" opacity="1" style="display: block;"><g opacity="1" transform="matrix(2,0,0,2,0,0)"><path fill="rgb(255,177,0)" fill-opacity="1" d=" M-3.203000068664551,-25.381000518798828 C-6.433000087738037,-28.930999755859375 -11.932999610900879,-29.19099998474121 -15.482999801635742,-25.951000213623047 C-19.033000946044922,-22.72100067138672 -19.292999267578125,-17.231000900268555 -16.05299949645996,-13.680999755859375 C-5.752999782562256,-2.371000051498413 -0.19300000369548798,8.74899959564209 0.9169999957084656,19.729000091552734 C0.9169999957084656,19.729000091552734 0.9670000076293945,20.288999557495117 0.9670000076293945,20.288999557495117 C1.3869999647140503,25.069000244140625 5.60699987411499,28.608999252319336 10.38700008392334,28.18899917602539 C15.166999816894531,27.768999099731445 18.707000732421875,23.55900001525879 18.28700065612793,18.768999099731445 C16.957000732421875,3.509000062942505 9.687000274658203,-11.241000175476074 -3.203000068664551,-25.381000518798828z"/></g></g></mask><mask id="__lottie_element_17608" mask-type="alpha"><g transform="matrix(1,0,0,1,40.42399978637695,303.00299072265625)" opacity="1" style="display: block;"><g opacity="1" transform="matrix(2,0,0,2,0,0)"><path fill="rgb(255,177,0)" fill-opacity="1" d=" M3.2070000171661377,-25.381000518798828 C6.436999797821045,-28.930999755859375 11.937000274658203,-29.19099998474121 15.487000465393066,-25.951000213623047 C19.03700065612793,-22.72100067138672 19.28700065612793,-17.231000900268555 16.05699920654297,-13.680999755859375 C5.577000141143799,-2.180999994277954 0.007000000216066837,9.119000434875488 -0.9729999899864197,20.288999557495117 C-1.3930000066757202,25.069000244140625 -5.603000164031982,28.608999252319336 -10.383000373840332,28.18899917602539 C-15.17300033569336,27.768999099731445 -18.702999114990234,23.55900001525879 -18.292999267578125,18.768999099731445 C-16.952999114990234,3.509000062942505 -9.682999610900879,-11.241000175476074 3.2070000171661377,-25.381000518798828z"/></g></g></mask><mask id="__lottie_element_17617" mask-type="alpha"><g transform="matrix(0.9999995231628418,0.0009773842757567763,-0.0009773842757567763,0.9999995231628418,117.58364868164062,168.04949951171875)" opacity="1" style="display: block;"><g opacity="1" transform="matrix(2,0,0,2,0,0)"><path fill="rgb(61,61,61)" fill-opacity="1" d=" M-15.21399974822998,-26.3700008392334 C-15.21399974822998,-26.3700008392334 15.215999603271484,-26.3700008392334 15.215999603271484,-26.3700008392334 C29.775999069213867,-26.3700008392334 41.58599853515625,-14.5600004196167 41.58599853515625,0 C41.58599853515625,14.5600004196167 29.775999069213867,26.3700008392334 15.215999603271484,26.3700008392334 C15.215999603271484,26.3700008392334 -15.21399974822998,26.3700008392334 -15.21399974822998,26.3700008392334 C-29.77400016784668,26.3700008392334 -41.58399963378906,14.5600004196167 -41.58399963378906,0 C-41.58399963378906,-14.5600004196167 -29.77400016784668,-26.3700008392334 -15.21399974822998,-26.3700008392334z"/></g></g></mask></defs><g clip-path="url(#__lottie_element_17499)"><g clip-path="url(#__lottie_element_17502)" transform="matrix(0.5,0,0,0.5,0,0)" opacity="1" style="display: block;"><g transform="matrix(1,0,0,1,118.45099639892578,400.60400390625)" opacity="1" style="display: block;"><g opacity="1" transform="matrix(2,0,0,2,0,0)"><path fill="rgb(255,149,0)" fill-opacity="1" d=" M-14.08899974822998,-0.003000000026077032 C-14.08899974822998,-2.193000078201294 -12.319000244140625,-3.9630000591278076 -10.128999710083008,-3.9630000591278076 C-10.128999710083008,-3.9630000591278076 10.130999565124512,-3.9630000591278076 10.130999565124512,-3.9630000591278076 C12.310999870300293,-3.9630000591278076 14.090999603271484,-2.193000078201294 14.090999603271484,-0.003000000026077032 C14.090999603271484,2.187000036239624 12.310999870300293,3.9670000076293945 10.130999565124512,3.9670000076293945 C10.130999565124512,3.9670000076293945 -10.128999710083008,3.9670000076293945 -10.128999710083008,3.9670000076293945 C-12.319000244140625,3.9670000076293945 -14.08899974822998,2.187000036239624 -14.08899974822998,-0.003000000026077032z"/></g></g><g transform="matrix(0.9999995231628418,0.0009773842757567763,-0.0009773842757567763,0.9999995231628418,120.05905151367188,83.73688507080078)" opacity="1" style="display: block;"><g opacity="1" transform="matrix(2,0,0,2,0,0)"><path fill="rgb(61,61,61)" fill-opacity="1" d=" M0,-12.694999694824219 C7.046935558319092,-12.694999694824219 12.768500328063965,-7.006370544433594 12.768500328063965,0 C12.768500328063965,7.006370544433594 7.046935558319092,12.694999694824219 0,12.694999694824219 C-7.046935558319092,12.694999694824219 -12.768500328063965,7.006370544433594 -12.768500328063965,0 C-12.768500328063965,-7.006370544433594 -7.046935558319092,-12.694999694824219 0,-12.694999694824219z"/></g></g><g transform="matrix(0.9999995231628418,0.0009773842757567763,-0.0009773842757567763,0.9999995231628418,118.17850494384766,197.86509704589844)" opacity="1" style="display: block;"><path fill="rgb(255,203,163)" fill-opacity="1" d=" M0,-65 C35.87350082397461,-65 65,-35.87350082397461 65,0 C65,35.87350082397461 35.87350082397461,65 0,65 C-35.87350082397461,65 -65,35.87350082397461 -65,0 C-65,-35.87350082397461 -35.87350082397461,-65 0,-65z"/></g><g clip-path="url(#__lottie_element_17576)" transform="matrix(0.9999995231628418,0.0009773842757567763,-0.0009773842757567763,0.9999995231628418,0.37195098400115967,-0.11514990776777267)" opacity="1" style="display: block;"><g transform="matrix(1,0,0,1,40.42399978637695,303.00299072265625)" opacity="1" style="display: block;"><g opacity="1" transform="matrix(2,0,0,2,0,0)"><path fill="rgb(255,177,0)" fill-opacity="1" d=" M3.2070000171661377,-25.381000518798828 C6.436999797821045,-28.930999755859375 11.937000274658203,-29.19099998474121 15.487000465393066,-25.951000213623047 C19.03700065612793,-22.72100067138672 19.28700065612793,-17.231000900268555 16.05699920654297,-13.680999755859375 C5.577000141143799,-2.180999994277954 0.007000000216066837,9.119000434875488 -0.9729999899864197,20.288999557495117 C-1.3930000066757202,25.069000244140625 -5.603000164031982,28.608999252319336 -10.383000373840332,28.18899917602539 C-15.17300033569336,27.768999099731445 -18.702999114990234,23.55900001525879 -18.292999267578125,18.768999099731445 C-16.952999114990234,3.509000062942505 -9.682999610900879,-11.241000175476074 3.2070000171661377,-25.381000518798828z"/></g></g><g transform="matrix(1,0,0,1,196.4239959716797,303.00299072265625)" opacity="1" style="display: block;"><g opacity="1" transform="matrix(2,0,0,2,0,0)"><path fill="rgb(255,177,0)" fill-opacity="1" d=" M-3.203000068664551,-25.381000518798828 C-6.433000087738037,-28.930999755859375 -11.932999610900879,-29.19099998474121 -15.482999801635742,-25.951000213623047 C-19.033000946044922,-22.72100067138672 -19.292999267578125,-17.231000900268555 -16.05299949645996,-13.680999755859375 C-5.752999782562256,-2.371000051498413 -0.19300000369548798,8.74899959564209 0.9169999957084656,19.729000091552734 C0.9169999957084656,19.729000091552734 0.9670000076293945,20.288999557495117 0.9670000076293945,20.288999557495117 C1.3869999647140503,25.069000244140625 5.60699987411499,28.608999252319336 10.38700008392334,28.18899917602539 C15.166999816894531,27.768999099731445 18.707000732421875,23.55900001525879 18.28700065612793,18.768999099731445 C16.957000732421875,3.509000062942505 9.687000274658203,-11.241000175476074 -3.203000068664551,-25.381000518798828z"/></g></g><g mask="url(#__lottie_element_17608)" style="display: block;"><g transform="matrix(1,0,0,1,20.2450008392334,359.71600341796875)" opacity="1"><g opacity="1" transform="matrix(2,0,0,2,0,0)"><path fill="rgb(255,202,163)" fill-opacity="1" d=" M-13.836000442504883,-19.464000701904297 C-13.836000442504883,-19.464000701904297 12.793999671936035,-14.234000205993652 12.793999671936035,-14.234000205993652 C12.793999671936035,-14.234000205993652 14.534000396728516,18.45599937438965 14.534000396728516,18.45599937438965 C14.534000396728516,18.45599937438965 -14.53600025177002,19.465999603271484 -14.53600025177002,19.465999603271484 C-14.53600025177002,19.465999603271484 -13.836000442504883,-19.464000701904297 -13.836000442504883,-19.464000701904297z"/></g></g></g><g mask="url(#__lottie_element_17604)" style="display: block;"><g transform="matrix(1,0,0,1,217.531005859375,359.71600341796875)" opacity="1"><g opacity="1" transform="matrix(2,0,0,2,0,0)"><path fill="rgb(255,202,163)" fill-opacity="1" d=" M13.833999633789062,-19.464000701904297 C13.833999633789062,-19.464000701904297 -12.795999526977539,-14.234000205993652 -12.795999526977539,-14.234000205993652 C-12.795999526977539,-14.234000205993652 -14.53600025177002,18.45599937438965 -14.53600025177002,18.45599937438965 C-14.53600025177002,18.45599937438965 14.534000396728516,19.465999603271484 14.534000396728516,19.465999603271484 C14.534000396728516,19.465999603271484 13.833999633789062,-19.464000701904297 13.833999633789062,-19.464000701904297z"/></g></g></g><g style="display: none;"><g><path stroke-linecap="round" stroke-linejoin="miter" fill-opacity="0" stroke-miterlimit="4"/></g></g><g style="display: none;"><g><path stroke-linecap="round" stroke-linejoin="miter" fill-opacity="0" stroke-miterlimit="4"/></g></g><g style="display: none;"><g><path stroke-linecap="round" stroke-linejoin="miter" fill-opacity="0" stroke-miterlimit="4"/></g></g><g style="display: none;"><g><path stroke-linecap="round" stroke-linejoin="miter" fill-opacity="0" stroke-miterlimit="4"/></g></g><g transform="matrix(1,0,0,1,118.45099639892578,303.5920104980469)" opacity="1" style="display: block;"><g opacity="1" transform="matrix(2,0,0,2,0,0)"><path fill="rgb(255,177,0)" fill-opacity="1" d=" M-6.534999847412109,-28.275999069213867 C-6.534999847412109,-28.275999069213867 6.525000095367432,-28.275999069213867 6.525000095367432,-28.275999069213867 C16.601999282836914,-28.275999069213867 22.711999893188477,-28.29599952697754 32.64500045776367,-28.325000762939453 C40.275001525878906,-21.28499984741211 45.053001403808594,-11.199000358581543 45.053001403808594,0.004000000189989805 C45.053001403808594,0.004000000189989805 45.053001403808594,33.88399887084961 45.053001403808594,33.88399887084961 C45.053001403808594,36.45399856567383 42.983001708984375,38.52399826049805 40.42300033569336,38.52399826049805 C40.42300033569336,38.52399826049805 -40.41699981689453,38.52399826049805 -40.41699981689453,38.52399826049805 C-42.97700119018555,38.52399826049805 -45.05699920654297,36.45399856567383 -45.05699920654297,33.88399887084961 C-45.05699920654297,33.88399887084961 -45.05699920654297,0.004000000189989805 -45.05699920654297,0.004000000189989805 C-45.05699920654297,-11.178000450134277 -40.292999267578125,-21.24799919128418 -32.685001373291016,-28.285999298095703 C-20.100000381469727,-28.29599952697754 -16.632999420166016,-28.275999069213867 -6.534999847412109,-28.275999069213867z"/></g></g><g transform="matrix(1,0,0,1,117.06120300292969,291.2864074707031)" opacity="1" style="display: block;"><g opacity="1" transform="matrix(2,0,0,2,0,0)"><path fill="rgb(255,255,255)" fill-opacity="1" d=" M0,-3.622499942779541 C1.9992576837539673,-3.622499942779541 3.622499942779541,-1.9992576837539673 3.622499942779541,0 C3.622499942779541,1.9992576837539673 1.9992576837539673,3.622499942779541 0,3.622499942779541 C-1.9992576837539673,3.622499942779541 -3.622499942779541,1.9992576837539673 -3.622499942779541,0 C-3.622499942779541,-1.9992576837539673 -1.9992576837539673,-3.622499942779541 0,-3.622499942779541z"/></g></g><g mask="url(#__lottie_element_17579)" style="display: block;"><g clip-path="url(#__lottie_element_17582)" transform="matrix(1,0,0,1,-0.0000017434358596801758,-0.000004336237907409668)" opacity="1"><g transform="matrix(1,0,0,1,38.4640007019043,305.5)" opacity="1" style="display: block;"><g opacity="1" transform="matrix(2,0,0,2,0,0)"><path fill="rgb(255,149,0)" fill-opacity="1" d=" M-21.437999725341797,-44.95600128173828 C-21.437999725341797,-44.95600128173828 24.79199981689453,-44.95600128173828 24.79199981689453,-44.95600128173828 C24.79199981689453,-44.95600128173828 24.87299919128418,25.68400001525879 24.87299919128418,25.68400001525879 C24.87299919128418,27.634000778198242 23.30299949645996,29.20400047302246 21.35300064086914,29.20400047302246 C21.35300064086914,29.20400047302246 -21.35700035095215,29.20400047302246 -21.35700035095215,29.20400047302246 C-23.297000885009766,29.20400047302246 -24.87700080871582,27.634000778198242 -24.87700080871582,25.68400001525879 C-24.87700080871582,25.68400001525879 -24.95800018310547,-41.43600082397461 -24.95800018310547,-41.43600082397461 C-24.95800018310547,-43.375999450683594 -23.378000259399414,-44.95600128173828 -21.437999725341797,-44.95600128173828z"/></g></g><g transform="matrix(1,0,0,1,195.5019989013672,305.5)" opacity="1" style="display: block;"><g opacity="1" transform="matrix(2,0,0,2,0,0)"><path fill="rgb(255,149,0)" fill-opacity="1" d=" M-24.81399917602539,-44.95600128173828 C-24.81399917602539,-44.95600128173828 21.416000366210938,-44.95600128173828 21.416000366210938,-44.95600128173828 C23.365999221801758,-44.95600128173828 24.93600082397461,-43.375999450683594 24.93600082397461,-41.43600082397461 C24.93600082397461,-41.43600082397461 24.87299919128418,25.68400001525879 24.87299919128418,25.68400001525879 C24.87299919128418,27.634000778198242 23.30299949645996,29.20400047302246 21.35300064086914,29.20400047302246 C21.35300064086914,29.20400047302246 -21.35700035095215,29.20400047302246 -21.35700035095215,29.20400047302246 C-23.297000885009766,29.20400047302246 -24.87700080871582,27.634000778198242 -24.87700080871582,25.68400001525879 C-24.87700080871582,25.68400001525879 -24.81399917602539,-44.95600128173828 -24.81399917602539,-44.95600128173828z"/></g></g><g transform="matrix(1,0,0,1,103.9209976196289,251.36599731445312)" opacity="1" style="display: block;"><g opacity="1" transform="matrix(2,0,0,2,0,0)"><path fill="rgb(255,255,255)" fill-opacity="1" d=" M0.00800000037997961,-18.2549991607666 C4.3480000495910645,-18.2549991607666 7.857999801635742,-14.734999656677246 7.857999801635742,-10.404999732971191 C7.857999801635742,-10.404999732971191 7.8480000495910645,2.6549999713897705 7.8480000495910645,2.6549999713897705 C7.8480000495910645,6.985000133514404 4.3379998207092285,10.505000114440918 -0.0020000000949949026,10.505000114440918 C-4.331999778747559,10.505000114440918 -7.8520002365112305,6.985000133514404 -7.8520002365112305,2.6549999713897705 C-7.8520002365112305,2.6549999713897705 -7.8420000076293945,-10.404999732971191 -7.8420000076293945,-10.404999732971191 C-7.8420000076293945,-14.734999656677246 -4.322000026702881,-18.2549991607666 0.00800000037997961,-18.2549991607666z"/></g></g><g transform="matrix(1,0,0,1,130.0449981689453,251.36599731445312)" opacity="1" style="display: block;"><g opacity="1" transform="matrix(2,0,0,2,0,0)"><path fill="rgb(255,255,255)" fill-opacity="1" d=" M0.019999999552965164,-18.5049991607666 C4.360000133514404,-18.5049991607666 7.869999885559082,-14.984999656677246 7.869999885559082,-10.654999732971191 C7.869999885559082,-10.654999732971191 7.8480000495910645,2.6549999713897705 7.8480000495910645,2.6549999713897705 C7.8480000495910645,6.985000133514404 4.3379998207092285,10.505000114440918 -0.0020000000949949026,10.505000114440918 C-4.331999778747559,10.505000114440918 -7.8520002365112305,6.985000133514404 -7.8520002365112305,2.6549999713897705 C-7.8520002365112305,2.6549999713897705 -7.829999923706055,-10.654999732971191 -7.829999923706055,-10.654999732971191 C-7.829999923706055,-14.984999656677246 -4.309999942779541,-18.5049991607666 0.019999999552965164,-18.5049991607666z"/></g></g></g></g></g><g transform="matrix(0.9999995231628418,0.0009773842757567763,-0.0009773842757567763,0.9999995231628418,117.58364868164062,168.04949951171875)" opacity="1" style="display: block;"><g opacity="1" transform="matrix(2,0,0,2,0,0)"><path fill="rgb(61,61,61)" fill-opacity="1" d=" M-15.21399974822998,-26.3700008392334 C-15.21399974822998,-26.3700008392334 15.215999603271484,-26.3700008392334 15.215999603271484,-26.3700008392334 C29.775999069213867,-26.3700008392334 41.58599853515625,-14.5600004196167 41.58599853515625,0 C41.58599853515625,14.5600004196167 29.775999069213867,26.3700008392334 15.215999603271484,26.3700008392334 C15.215999603271484,26.3700008392334 -15.21399974822998,26.3700008392334 -15.21399974822998,26.3700008392334 C-29.77400016784668,26.3700008392334 -41.58399963378906,14.5600004196167 -41.58399963378906,0 C-41.58399963378906,-14.5600004196167 -29.77400016784668,-26.3700008392334 -15.21399974822998,-26.3700008392334z"/></g></g><g mask="url(#__lottie_element_17617)" style="display: block;"><g transform="matrix(0.9999995231628418,0.0009773842757567763,-0.0009773842757567763,0.9999995231628418,115.81604766845703,198.32977294921875)" opacity="1"><g opacity="1" transform="matrix(2,0,0,2,0,0)"><path fill="rgb(202,200,200)" fill-opacity="1" d=" M-60.41999816894531,-11.809000015258789 C-60.41999816894531,-11.809000015258789 60.41999816894531,-11.809000015258789 60.41999816894531,-11.809000015258789 C60.41999816894531,-11.809000015258789 60.41999816894531,11.810999870300293 60.41999816894531,11.810999870300293 C60.41999816894531,11.810999870300293 -60.41999816894531,11.810999870300293 -60.41999816894531,11.810999870300293 C-60.41999816894531,11.810999870300293 -60.41999816894531,-11.809000015258789 -60.41999816894531,-11.809000015258789z"/></g></g></g><g transform="matrix(0.9999995231628418,0.0009773842757567763,-0.0009773842757567763,0.9999995231628418,118.19690704345703,190.29010009765625)" opacity="1" style="display: block;"><g opacity="1" transform="matrix(2,0,0,2,0,0)"><path fill="rgb(255,202,163)" fill-opacity="1" d=" M0.004999999888241291,-28.54599952697754 C18.03499984741211,-28.54599952697754 32.654998779296875,-13.925999641418457 32.654998779296875,4.113999843597412 C32.654998779296875,4.113999843597412 32.654998779296875,28.54400062561035 32.654998779296875,28.54400062561035 C32.654998779296875,28.54400062561035 21.993999481201172,28.386999130249023 0.24500000476837158,28.54400062561035 C-21.0049991607666,28.697999954223633 -32.654998779296875,28.54400062561035 -32.654998779296875,28.54400062561035 C-32.654998779296875,28.54400062561035 -32.654998779296875,4.113999843597412 -32.654998779296875,4.113999843597412 C-32.654998779296875,-13.925999641418457 -18.03499984741211,-28.54599952697754 0.004999999888241291,-28.54599952697754z"/></g></g><g transform="matrix(0.9999995231628418,0.0009773842757567763,-0.0009773842757567763,0.9999995231628418,102.91305541992188,176.8341522216797)" opacity="1" style="display: block;"><g opacity="1" transform="matrix(2,0,0,2,0,0)"><path fill="rgb(255,255,255)" fill-opacity="1" d=" M0,-8.91100025177002 C3.759999990463257,-8.91100025177002 6.809999942779541,-5.861000061035156 6.809999942779541,-2.1010000705718994 C6.809999942779541,-2.1010000705718994 6.809999942779541,2.0989999771118164 6.809999942779541,2.0989999771118164 C6.809999942779541,5.859000205993652 3.759999990463257,8.909000396728516 0,8.909000396728516 C-3.759999990463257,8.909000396728516 -6.809999942779541,5.859000205993652 -6.809999942779541,2.0989999771118164 C-6.809999942779541,2.0989999771118164 -6.809999942779541,-2.1010000705718994 -6.809999942779541,-2.1010000705718994 C-6.809999942779541,-5.861000061035156 -3.759999990463257,-8.91100025177002 0,-8.91100025177002z"/></g></g><g transform="matrix(0.9999995231628418,0.0009773842757567763,-0.0009773842757567763,0.9999995231628418,135.16603088378906,176.8656768798828)" opacity="1" style="display: block;"><g opacity="1" transform="matrix(2,0,0,2,0,0)"><path fill="rgb(255,255,255)" fill-opacity="1" d=" M0,-8.91100025177002 C3.759999990463257,-8.91100025177002 6.809999942779541,-5.861000061035156 6.809999942779541,-2.1010000705718994 C6.809999942779541,-2.1010000705718994 6.809999942779541,2.0989999771118164 6.809999942779541,2.0989999771118164 C6.809999942779541,5.859000205993652 3.759999990463257,8.909000396728516 0,8.909000396728516 C-3.759999990463257,8.909000396728516 -6.809999942779541,5.859000205993652 -6.809999942779541,2.0989999771118164 C-6.809999942779541,2.0989999771118164 -6.809999942779541,-2.1010000705718994 -6.809999942779541,-2.1010000705718994 C-6.809999942779541,-5.861000061035156 -3.759999990463257,-8.91100025177002 0,-8.91100025177002z"/></g></g><g transform="matrix(0.9999995231628418,0.0009773842757567763,-0.0009773842757567763,0.9999995231628418,106.38790893554688,176.9815673828125)" opacity="1" style="display: block;"><g opacity="1" transform="matrix(2,0,0,2,0,0)"><path fill="rgb(61,61,61)" fill-opacity="1" d=" M0.003000000026077032,-4.993000030517578 C1.6929999589920044,-4.993000030517578 3.062999963760376,-3.622999906539917 3.062999963760376,-1.9229999780654907 C3.062999963760376,-1.9229999780654907 3.062999963760376,1.9270000457763672 3.062999963760376,1.9270000457763672 C3.062999963760376,3.617000102996826 1.6929999589920044,4.997000217437744 0.003000000026077032,4.997000217437744 C-1.6970000267028809,4.997000217437744 -3.066999912261963,3.617000102996826 -3.066999912261963,1.9270000457763672 C-3.066999912261963,1.9270000457763672 -3.066999912261963,-1.9229999780654907 -3.066999912261963,-1.9229999780654907 C-3.066999912261963,-1.9229999780654907 -3.056999921798706,-2.122999906539917 -3.056999921798706,-2.122999906539917 C-3.056999921798706,-2.122999906539917 -3.056999921798706,-2.122999906539917 -3.056999921798706,-2.122999906539917 C-2.947000026702881,-2.1029999256134033 -2.8269999027252197,-2.0929999351501465 -2.7070000171661377,-2.0929999351501465 C-1.4670000076293945,-2.0929999351501465 -0.4569999873638153,-3.1029999256134033 -0.4569999873638153,-4.3429999351501465 C-0.4569999873638153,-4.552999973297119 -0.4869999885559082,-4.752999782562256 -0.5370000004768372,-4.942999839782715 C-0.367000013589859,-4.9730000495910645 -0.18700000643730164,-4.993000030517578 0.003000000026077032,-4.993000030517578z"/></g></g><g transform="matrix(0.9999995231628418,0.0009773842757567763,-0.0009773842757567763,0.9999995231628418,131.87789916992188,177.00648498535156)" opacity="1" style="display: block;"><g opacity="1" transform="matrix(2,0,0,2,0,0)"><path fill="rgb(61,61,61)" fill-opacity="1" d=" M0.003000000026077032,-4.993000030517578 C1.6929999589920044,-4.993000030517578 3.062999963760376,-3.622999906539917 3.062999963760376,-1.9229999780654907 C3.062999963760376,-1.9229999780654907 3.062999963760376,1.9270000457763672 3.062999963760376,1.9270000457763672 C3.062999963760376,3.617000102996826 1.6929999589920044,4.997000217437744 0.003000000026077032,4.997000217437744 C-1.6970000267028809,4.997000217437744 -3.066999912261963,3.617000102996826 -3.066999912261963,1.9270000457763672 C-3.066999912261963,1.9270000457763672 -3.066999912261963,-1.9229999780654907 -3.066999912261963,-1.9229999780654907 C-3.066999912261963,-2.0329999923706055 -3.056999921798706,-2.1429998874664307 -3.046999931335449,-2.253000020980835 C-2.796999931335449,-2.1530001163482666 -2.5169999599456787,-2.0929999351501465 -2.2170000076293945,-2.0929999351501465 C-0.9769999980926514,-2.0929999351501465 0.023000000044703484,-3.1029999256134033 0.023000000044703484,-4.3429999351501465 C0.023000000044703484,-4.563000202178955 -0.007000000216066837,-4.7829999923706055 -0.06700000166893005,-4.993000030517578 C-0.06700000166893005,-4.993000030517578 0.003000000026077032,-4.993000030517578 0.003000000026077032,-4.993000030517578z"/></g></g><g transform="matrix(0.9999995231628418,0.0009773842757567763,-0.0009773842757567763,0.9999995231628418,99.83599853515625,205.53717041015625)" opacity="1" style="display: block;"><g opacity="1" transform="matrix(2,0,0,2,0,0)"><path fill="rgb(255,202,163)" fill-opacity="1" d=" M-6.283999919891357,-9.465999603271484 C-6.283999919891357,-9.465999603271484 5.205999851226807,-8.666000366210938 9.53600025177002,-5.995999813079834 C13.866000175476074,-3.3259999752044678 2.2360000610351562,9.46399974822998 2.2360000610351562,9.46399974822998 C2.2360000610351562,9.46399974822998 -10.71399974822998,-1.656000018119812 -10.71399974822998,-1.656000018119812 C-10.71399974822998,-1.656000018119812 -6.283999919891357,-9.465999603271484 -6.283999919891357,-9.465999603271484z"/></g></g><g transform="matrix(0.9999995231628418,0.0009773842757567763,-0.0009773842757567763,0.9999995231628418,140.3421173095703,206.457763671875)" opacity="1" style="display: block;"><g opacity="1" transform="matrix(2,0,0,2,0,0)"><path fill="rgb(255,202,163)" fill-opacity="1" d=" M6.285999774932861,-9.465999603271484 C-1.3739999532699585,-8.935999870300293 -6.6539998054504395,-7.776000022888184 -9.534000396728516,-5.995999813079834 C-12.423999786376953,-4.216000080108643 -9.994000434875488,0.9340000152587891 -2.24399995803833,9.46399974822998 C-2.24399995803833,9.46399974822998 10.715999603271484,-1.656000018119812 10.715999603271484,-1.656000018119812 C10.715999603271484,-1.656000018119812 6.285999774932861,-9.465999603271484 6.285999774932861,-9.465999603271484z"/></g></g><g transform="matrix(0.9999995231628418,0.0009773842757567763,-0.0009773842757567763,0.9999995231628418,115.7492904663086,204.21871948242188)" opacity="1" style="display: block;"><g opacity="1" transform="matrix(2,0,0,2,0,0)"><path fill="rgb(232,149,100)" fill-opacity="1" d=" M-9.01099967956543,-3.3269999027252197 C-8.611000061035156,-3.6570000648498535 -8.020999908447266,-3.5969998836517334 -7.690999984741211,-3.187000036239624 C-3.3310000896453857,2.1730000972747803 1.7790000438690186,3.072999954223633 7.948999881744385,-0.44699999690055847 C8.409000396728516,-0.7070000171661377 8.979000091552734,-0.546999990940094 9.23900032043457,-0.09700000286102295 C9.49899959564209,0.3630000054836273 9.33899974822998,0.9330000281333923 8.888999938964844,1.1929999589920044 C1.9190000295639038,5.163000106811523 -4.201000213623047,4.083000183105469 -9.151000022888184,-1.996999979019165 C-9.480999946594238,-2.4070000648498535 -9.420999526977539,-2.996999979019165 -9.01099967956543,-3.3269999027252197z"/></g></g><g style="display: none;"><g><path stroke-linecap="round" stroke-linejoin="miter" fill-opacity="0" stroke-miterlimit="4"/></g></g><g transform="matrix(0.9999995231628418,0.0009773842757567763,-0.0009773842757567763,0.9999995231628418,118.16233825683594,225.66209411621094)" opacity="1" style="display: block;"><g opacity="1" transform="matrix(2,0,0,2,0,0)"><path fill="rgb(246,177,133)" fill-opacity="1" d=" M5.111999988555908,-1.4950000047683716 C5.452000141143799,-1.7050000429153442 5.9019999504089355,-1.6050000190734863 6.111999988555908,-1.274999976158142 C6.331999778747559,-0.9350000023841858 6.23199987411499,-0.48500001430511475 5.892000198364258,-0.2750000059604645 C1.9919999837875366,2.234999895095825 -1.9880000352859497,2.234999895095825 -5.8979997634887695,-0.2750000059604645 C-6.228000164031982,-0.48500001430511475 -6.328000068664551,-0.9350000023841858 -6.118000030517578,-1.274999976158142 C-5.8979997634887695,-1.6050000190734863 -5.447999954223633,-1.7050000429153442 -5.107999801635742,-1.4950000047683716 C-1.6779999732971191,0.7049999833106995 1.6820000410079956,0.7049999833106995 5.111999988555908,-1.4950000047683716z"/></g></g><g transform="matrix(0.9999995231628418,0.0009773842757567763,-0.0009773842757567763,0.9999995231628418,118.24420928955078,130.64312744140625)" opacity="1" style="display: block;"><path fill="rgb(255,203,163)" fill-opacity="1" d=" M36.25,27 C36.25,27 36.25,50 36.25,50 C36.25,50 1.9240000247955322,50 1.9240000247955322,50 C1.9240000247955322,50 -10.142999649047852,50 -10.142999649047852,50 C-10.142999649047852,50 -36.875,50 -36.875,50 C-36.875,50 -36.875,27 -36.875,27 C-36.875,27 36.25,27 36.25,27z"/></g><g transform="matrix(0.9999995231628418,0.0009773842757567763,-0.0009773842757567763,0.9999995231628418,119.076904296875,190.29296875)" opacity="1" style="display: block;"><g opacity="1" transform="matrix(2,0,0,2,0,0)"><path fill="rgb(231,149,101)" fill-opacity="1" d=" M-0.0020000000949949026,4.769999980926514 C1.8279999494552612,4.769999980926514 3.2980000972747803,3.2799999713897705 3.2980000972747803,1.4299999475479126 C3.2980000972747803,-0.4099999964237213 -0.0020000000949949026,-4.769999980926514 -0.0020000000949949026,-4.769999980926514 C-0.0020000000949949026,-4.769999980926514 -0.2919999957084656,-4.369999885559082 -0.2919999957084656,-4.369999885559082 C-1.1019999980926514,-3.25 -3.302000045776367,-0.07000000029802322 -3.302000045776367,1.4299999475479126 C-3.302000045776367,3.2799999713897705 -1.8220000267028809,4.769999980926514 -0.0020000000949949026,4.769999980926514z"/></g></g><g transform="matrix(0.9999995231628418,0.0009773842757567763,-0.0009773842757567763,0.9999995231628418,157.39205932617188,180.93740844726562)" opacity="1" style="display: block;"><g opacity="1" transform="matrix(2,0,0,2,0,0)"><path fill="rgb(242,165,119)" fill-opacity="1" d=" M2.364000082015991,-2.938999891281128 C2.7339999675750732,-3.0989999771118164 3.1540000438690186,-2.9189999103546143 3.313999891281128,-2.5490000247955322 C3.4539999961853027,-2.2190001010894775 3.313999891281128,-1.8300000429153442 3.003999948501587,-1.649999976158142 C3.003999948501587,-1.649999976158142 2.9240000247955322,-1.6089999675750732 2.9240000247955322,-1.6089999675750732 C2.9240000247955322,-1.6089999675750732 -0.8159999847412109,-0.04899999871850014 -0.8159999847412109,-0.04899999871850014 C-0.8159999847412109,-0.04899999871850014 2.934000015258789,1.6109999418258667 2.934000015258789,1.6109999418258667 C3.2739999294281006,1.7610000371932983 3.434000015258789,2.130000114440918 3.3340001106262207,2.4800000190734863 C3.3340001106262207,2.4800000190734863 3.303999900817871,2.569999933242798 3.303999900817871,2.569999933242798 C3.1540000438690186,2.9000000953674316 2.7839999198913574,3.071000099182129 2.444000005722046,2.9709999561309814 C2.444000005722046,2.9709999561309814 2.3440001010894775,2.940000057220459 2.3440001010894775,2.940000057220459 C2.3440001010894775,2.940000057220459 -2.936000108718872,0.5899999737739563 -2.936000108718872,0.5899999737739563 C-3.4760000705718994,0.3499999940395355 -3.50600004196167,-0.39899998903274536 -3.0260000228881836,-0.6890000104904175 C-3.0260000228881836,-0.6890000104904175 -2.9159998893737793,-0.7400000095367432 -2.9159998893737793,-0.7400000095367432 C-2.9159998893737793,-0.7400000095367432 2.364000082015991,-2.938999891281128 2.364000082015991,-2.938999891281128z"/></g></g><g transform="matrix(0.9999995231628418,0.0009773842757567763,-0.0009773842757567763,0.9999995231628418,78.43310546875,180.8602294921875)" opacity="1" style="display: block;"><g opacity="1" transform="matrix(2,0,0,2,0,0)"><path fill="rgb(242,165,119)" fill-opacity="1" d=" M-2.365999937057495,-2.938999891281128 C-2.7360000610351562,-3.0989999771118164 -3.1559998989105225,-2.9189999103546143 -3.305999994277954,-2.5490000247955322 C-3.4560000896453857,-2.2190001010894775 -3.315999984741211,-1.8300000429153442 -3.00600004196167,-1.649999976158142 C-3.00600004196167,-1.649999976158142 -2.9159998893737793,-1.6089999675750732 -2.9159998893737793,-1.6089999675750732 C-2.9159998893737793,-1.6089999675750732 0.8140000104904175,-0.04899999871850014 0.8140000104904175,-0.04899999871850014 C0.8140000104904175,-0.04899999871850014 -2.936000108718872,1.6109999418258667 -2.936000108718872,1.6109999418258667 C-3.2660000324249268,1.7610000371932983 -3.436000108718872,2.130000114440918 -3.3359999656677246,2.4800000190734863 C-3.3359999656677246,2.4800000190734863 -3.305999994277954,2.569999933242798 -3.305999994277954,2.569999933242798 C-3.1559998989105225,2.9000000953674316 -2.7860000133514404,3.071000099182129 -2.436000108718872,2.9709999561309814 C-2.436000108718872,2.9709999561309814 -2.3459999561309814,2.940000057220459 -2.3459999561309814,2.940000057220459 C-2.3459999561309814,2.940000057220459 2.934000015258789,0.5899999737739563 2.934000015258789,0.5899999737739563 C3.4839999675750732,0.3499999940395355 3.503999948501587,-0.39899998903274536 3.0239999294281006,-0.6890000104904175 C3.0239999294281006,-0.6890000104904175 2.9240000247955322,-0.7400000095367432 2.9240000247955322,-0.7400000095367432 C2.9240000247955322,-0.7400000095367432 -2.365999937057495,-2.938999891281128 -2.365999937057495,-2.938999891281128z"/></g></g><g transform="matrix(1,0,0,1,119.28275299072266,215.00218200683594)" opacity="1" style="display: block;"><g opacity="1" transform="matrix(1,0,0,1,0,0)"><path stroke-linecap="round" stroke-linejoin="miter" fill-opacity="0" stroke-miterlimit="4" stroke="rgb(61,61,61)" stroke-opacity="1" stroke-width="10" d=" M-16.75,-54.9379997253418 C-11.425999641418457,-57.43600082397461 -4.822999954223633,-58.722999572753906 1.7510000467300415,-58.67399978637695 C7.677999973297119,-58.630001068115234 13.581000328063965,-57.499000549316406 18.5,-55.1879997253418"/></g></g><g style="display: none;"><g><path stroke-linecap="round" stroke-linejoin="miter" fill-opacity="0" stroke-miterlimit="4"/></g><g><path stroke-linecap="round" stroke-linejoin="miter" fill-opacity="0" stroke-miterlimit="4"/></g></g><g transform="matrix(0.9999995231628418,0.0009773842757567763,-0.0009773842757567763,0.9999995231628418,62.31608200073242,152.2254638671875)" opacity="1" style="display: block;"><g opacity="1" transform="matrix(2,0,0,2,0,0)"><path fill="rgb(61,61,61)" fill-opacity="1" d=" M3.243000030517578,-11.189000129699707 C7.043000221252441,-11.189000129699707 10.123000144958496,-8.109000205993652 10.123000144958496,-4.309000015258789 C10.123000144958496,-4.309000015258789 10.123000144958496,3.243000030517578 10.123000144958496,3.243000030517578 C10.123000144958496,7.043000221252441 7.043000221252441,10.123000144958496 3.243000030517578,10.123000144958496 C3.243000030517578,10.123000144958496 -3.246999979019165,10.123000144958496 -3.246999979019165,10.123000144958496 C-7.046999931335449,10.123000144958496 -10.126999855041504,7.043000221252441 -10.126999855041504,3.243000030517578 C-10.126999855041504,3.243000030517578 3.243000030517578,-11.189000129699707 3.243000030517578,-11.189000129699707z"/></g></g><g transform="matrix(0.9999995231628418,0.0009773842757567763,-0.0009773842757567763,0.9999995231628418,173.270751953125,151.59991455078125)" opacity="1" style="display: block;"><g opacity="1" transform="matrix(2,0,0,2,0,0)"><path fill="rgb(61,61,61)" fill-opacity="1" d=" M-2.805999994277954,-10.619000434875488 C-2.805999994277954,-10.619000434875488 9.684000015258789,3.6059999465942383 9.684000015258789,3.6059999465942383 C9.684000015258789,7.415999889373779 6.604000091552734,10.496000289916992 2.803999900817871,10.496000289916992 C2.803999900817871,10.496000289916992 -2.805999994277954,10.496000289916992 -2.805999994277954,10.496000289916992 C-6.605999946594238,10.496000289916992 -9.685999870300293,7.415999889373779 -9.685999870300293,3.6059999465942383 C-9.685999870300293,3.6059999465942383 -9.685999870300293,-3.614000082015991 -9.685999870300293,-3.614000082015991 C-9.685999870300293,-7.414000034332275 -6.605999946594238,-10.619000434875488 -2.805999994277954,-10.619000434875488z"/></g></g><g transform="matrix(0.9999995231628418,0.0009773842757567763,-0.0009773842757567763,0.9999995231628418,120.74869537353516,136.28457641601562)" opacity="1" style="display: block;"><g opacity="1" transform="matrix(2,0,0,2,0,0)"><path fill="rgb(61,61,61)" fill-opacity="1" d=" M-23.849000930786133,-2.9519999027252197 C-23.849000930786133,-2.9519999027252197 23.85099983215332,-2.9519999027252197 23.85099983215332,-2.9519999027252197 C23.85099983215332,-2.9519999027252197 23.85099983215332,3.8910000324249268 23.85099983215332,3.8910000324249268 C23.85099983215332,3.8910000324249268 -23.849000930786133,3.8910000324249268 -23.849000930786133,3.8910000324249268 C-23.849000930786133,3.8910000324249268 -23.849000930786133,-2.9519999027252197 -23.849000930786133,-2.9519999027252197z"/></g></g><g style="display: none;"><g><path/></g></g><g style="display: none;"><g><path/></g></g><g style="display: none;"><g><path/></g></g><g style="display: none;"><g><path/></g></g><g style="display: none;"><g><path/></g></g><g style="display: none;"><g><path/></g></g><g clip-path="url(#__lottie_element_17509)" transform="matrix(0.9999995231628418,0.0009773842757567763,-0.0009773842757567763,0.9999995231628418,0.81588214635849,57.25130844116211)" opacity="0" style="display: block;"><g transform="matrix(1,0,0,1,132.0970001220703,120.44100189208984)" opacity="1" style="display: block;"><g opacity="1" transform="matrix(2,0,0,2,0,0)"><path fill="rgb(203,124,76)" fill-opacity="1" d=" M-3.434999942779541,2.2239999771118164 C-3.5350000858306885,2.7739999294281006 -4.054999828338623,3.134000062942505 -4.59499979019165,3.0339999198913574 C-5.135000228881836,2.9240000247955322 -5.494999885559082,2.4040000438690186 -5.394999980926514,1.8639999628067017 C-4.795000076293945,-1.3960000276565552 -1.6649999618530273,-3.5460000038146973 1.5850000381469727,-2.946000099182129 C3.015000104904175,-2.686000108718872 4.295000076293945,-1.9160000085830688 5.195000171661377,-0.7760000228881836 C5.545000076293945,-0.34599998593330383 5.465000152587891,0.2840000092983246 5.034999847412109,0.6240000128746033 C4.605000019073486,0.9739999771118164 3.9749999046325684,0.8939999938011169 3.634999990463257,0.46399998664855957 C3.0350000858306885,-0.28600001335144043 2.174999952316284,-0.8059999942779541 1.225000023841858,-0.9760000109672546 C-0.9449999928474426,-1.3760000467300415 -3.0350000858306885,0.05400000140070915 -3.434999942779541,2.2239999771118164z"/></g></g><g transform="matrix(1,0,0,1,154.9239959716797,124.0999984741211)" opacity="1" style="display: block;"><g opacity="1" transform="matrix(2,0,0,2,0,0)"><path fill="rgb(242,165,119)" fill-opacity="1" d=" M2.1070001125335693,1.9290000200271606 C2.3369998931884766,2.249000072479248 2.2669999599456787,2.7090001106262207 1.937000036239624,2.938999891281128 C1.6069999933242798,3.1689999103546143 1.156999945640564,3.0889999866485596 0.9269999861717224,2.7690000534057617 C0.027000000700354576,1.4989999532699585 -1.3530000448226929,0.29899999499320984 -3.2230000495910645,-0.8209999799728394 C-3.703000068664551,-1.1109999418258667 -3.683000087738037,-1.8209999799728394 -3.183000087738037,-2.0810000896453857 C-1.1729999780654907,-3.1410000324249268 0.9169999957084656,-3.3510000705718994 3.056999921798706,-2.7009999752044678 C3.447000026702881,-2.5810000896453857 3.6570000648498535,-2.1710000038146973 3.5369999408721924,-1.7910000085830688 C3.427000045776367,-1.4110000133514404 3.0169999599456787,-1.190999984741211 2.63700008392334,-1.3109999895095825 C1.2869999408721924,-1.7209999561309814 -0.023000000044703484,-1.7209999561309814 -1.3029999732971191,-1.3109999895095825 C0.15700000524520874,-0.3009999990463257 1.2970000505447388,0.7789999842643738 2.1070001125335693,1.9290000200271606z"/></g></g><g transform="matrix(1,0,0,1,104.04000091552734,120.44200134277344)" opacity="1" style="display: block;"><g opacity="1" transform="matrix(2,0,0,2,0,0)"><path fill="rgb(203,124,76)" fill-opacity="1" d=" M-3.634999990463257,0.46399998664855957 C-3.9749999046325684,0.8939999938011169 -4.605000019073486,0.9739999771118164 -5.034999847412109,0.6240000128746033 C-5.465000152587891,0.2840000092983246 -5.545000076293945,-0.3449999988079071 -5.195000171661377,-0.7749999761581421 C-3.134999990463257,-3.375 0.6349999904632568,-3.805000066757202 3.2249999046325684,-1.7450000047683716 C4.364999771118164,-0.8450000286102295 5.135000228881836,0.4350000023841858 5.394999980926514,1.8650000095367432 C5.494999885559082,2.4049999713897705 5.135000228881836,2.9240000247955322 4.59499979019165,3.0239999294281006 C4.054999828338623,3.124000072479248 3.5350000858306885,2.7750000953674316 3.434999942779541,2.2249999046325684 C3.255000114440918,1.274999976158142 2.744999885559082,0.42399999499320984 1.9850000143051147,-0.17599999904632568 C0.2549999952316284,-1.555999994277954 -2.255000114440918,-1.2660000324249268 -3.634999990463257,0.46399998664855957z"/></g></g><g transform="matrix(1,0,0,1,81.55000305175781,124.0999984741211)" opacity="1" style="display: block;"><g opacity="1" transform="matrix(2,0,0,2,0,0)"><path fill="rgb(242,165,119)" fill-opacity="1" d=" M-2.11299991607666,1.9290000200271606 C-1.2929999828338623,0.7789999842643738 -0.15299999713897705,-0.3009999990463257 1.3070000410079956,-1.3109999895095825 C0.017000000923871994,-1.7209999561309814 -1.2829999923706055,-1.7209999561309814 -2.632999897003174,-1.3109999895095825 C-3.0230000019073486,-1.190999984741211 -3.4230000972747803,-1.4110000133514404 -3.5429999828338623,-1.7910000085830688 C-3.6630001068115234,-2.1710000038146973 -3.443000078201294,-2.5810000896453857 -3.062999963760376,-2.7009999752044678 C-0.9229999780654907,-3.3510000705718994 1.1770000457763672,-3.1410000324249268 3.187000036239624,-2.0810000896453857 C3.687000036239624,-1.8209999799728394 3.7070000171661377,-1.1109999418258667 3.2170000076293945,-0.8209999799728394 C1.347000002861023,0.29899999499320984 -0.032999999821186066,1.4989999532699585 -0.9229999780654907,2.7690000534057617 C-1.1629999876022339,3.0889999866485596 -1.6130000352859497,3.1689999103546143 -1.9329999685287476,2.938999891281128 C-2.263000011444092,2.7090001106262207 -2.3429999351501465,2.249000072479248 -2.11299991607666,1.9290000200271606z"/></g></g><g transform="matrix(1,0,0,1,118.01599884033203,131.5399932861328)" opacity="1" style="display: block;"><g opacity="1" transform="matrix(2,0,0,2,0,0)"><path fill="rgb(231,149,101)" fill-opacity="1" d=" M-0.0020000000949949026,4.769999980926514 C1.8279999494552612,4.769999980926514 3.2980000972747803,3.2799999713897705 3.2980000972747803,1.4299999475479126 C3.2980000972747803,-0.4099999964237213 -0.0020000000949949026,-4.769999980926514 -0.0020000000949949026,-4.769999980926514 C-0.0020000000949949026,-4.769999980926514 -0.2919999957084656,-4.369999885559082 -0.2919999957084656,-4.369999885559082 C-1.1019999980926514,-3.25 -3.302000045776367,-0.07000000029802322 -3.302000045776367,1.4299999475479126 C-3.302000045776367,3.2799999713897705 -1.8220000267028809,4.769999980926514 -0.0020000000949949026,4.769999980926514z"/></g></g><g transform="matrix(1,0,0,1,118,121.5)" opacity="1" style="display: block;"><path stroke-linecap="round" stroke-linejoin="miter" fill-opacity="0" stroke-miterlimit="4" stroke="rgb(255,255,255)" stroke-opacity="1" stroke-width="7" d=" M6.091000080108643,31.929000854492188 C4.118000030517578,32.30400085449219 2.0810000896453857,32.5 0,32.5 C-2.0810000896453857,32.5 -4.118000030517578,32.30400085449219 -6.091000080108643,31.929000854492188"/></g></g></g></g></svg>