<svg xmlns="http://www.w3.org/2000/svg" viewBox="0 0 236 350" preserveAspectRatio="xMidYMid meet" style="width: 100%; height: 100%; transform: translate3d(0px, 0px, 0px);"><defs><clipPath id="__lottie_element_11385"><rect width="236" height="350" x="0" y="0"/></clipPath><clipPath id="__lottie_element_11387"><path d="M0,0 L236,0 L236,430 L0,430z"/></clipPath><mask id="__lottie_element_11436" mask-type="alpha"><g transform="matrix(1,0,0,1,117.62799835205078,266.7850036621094)" opacity="1" style="display: block;"><g opacity="1" transform="matrix(2,0,0,2,0,0)"><path fill="rgb(218,142,116)" fill-opacity="1" d=" M0.0010000000474974513,-67.40499877929688 C20.72100067138672,-67.40499877929688 37.520999908447266,-50.60499954223633 37.520999908447266,-29.885000228881836 C37.520999908447266,-29.885000228881836 37.520999908447266,29.885000228881836 37.520999908447266,29.885000228881836 C37.520999908447266,50.60499954223633 20.72100067138672,67.40499877929688 0.0010000000474974513,67.40499877929688 C-20.7189998626709,67.40499877929688 -37.51900100708008,50.60499954223633 -37.51900100708008,29.885000228881836 C-37.51900100708008,29.885000228881836 -37.51900100708008,-29.885000228881836 -37.51900100708008,-29.885000228881836 C-37.51900100708008,-50.60499954223633 -20.7189998626709,-67.40499877929688 0.0010000000474974513,-67.40499877929688z"/></g></g></mask><mask id="__lottie_element_11444" mask-type="alpha"><g transform="matrix(1.0099999904632568,0,0,1.0099999904632568,117.62799835205078,266.7850036621094)" opacity="1" style="display: block;"><g opacity="1" transform="matrix(2,0,0,2,0,0)"><path fill="rgb(218,142,116)" fill-opacity="1" d=" M0.0010000000474974513,-67.40499877929688 C20.72100067138672,-67.40499877929688 37.520999908447266,-50.60499954223633 37.520999908447266,-29.885000228881836 C37.520999908447266,-29.885000228881836 37.520999908447266,29.885000228881836 37.520999908447266,29.885000228881836 C37.520999908447266,50.60499954223633 20.72100067138672,67.40499877929688 0.0010000000474974513,67.40499877929688 C-20.7189998626709,67.40499877929688 -37.51900100708008,50.60499954223633 -37.51900100708008,29.885000228881836 C-37.51900100708008,29.885000228881836 -37.51900100708008,-29.885000228881836 -37.51900100708008,-29.885000228881836 C-37.51900100708008,-50.60499954223633 -20.7189998626709,-67.40499877929688 0.0010000000474974513,-67.40499877929688z"/></g></g></mask><mask id="__lottie_element_11449" mask-type="alpha"><g transform="matrix(1.0099999904632568,0,0,1.0099999904632568,117.62799835205078,266.7850036621094)" opacity="1" style="display: block;"><g opacity="1" transform="matrix(2,0,0,2,0,0)"><path fill="rgb(218,142,116)" fill-opacity="1" d=" M0.0010000000474974513,-67.40499877929688 C20.72100067138672,-67.40499877929688 37.520999908447266,-50.60499954223633 37.520999908447266,-29.885000228881836 C37.520999908447266,-29.885000228881836 37.520999908447266,29.885000228881836 37.520999908447266,29.885000228881836 C37.520999908447266,50.60499954223633 20.72100067138672,67.40499877929688 0.0010000000474974513,67.40499877929688 C-20.7189998626709,67.40499877929688 -37.51900100708008,50.60499954223633 -37.51900100708008,29.885000228881836 C-37.51900100708008,29.885000228881836 -37.51900100708008,-29.885000228881836 -37.51900100708008,-29.885000228881836 C-37.51900100708008,-50.60499954223633 -20.7189998626709,-67.40499877929688 0.0010000000474974513,-67.40499877929688z"/></g></g></mask><mask id="__lottie_element_11466" mask-type="alpha"><g style="display: none;"><g><path/></g></g></mask></defs><g clip-path="url(#__lottie_element_11385)"><g clip-path="url(#__lottie_element_11387)" transform="matrix(1,0,0,1,0,0)" opacity="1" style="display: block;"><g style="display: none;"><g><path/></g></g><g transform="matrix(1,0,0,1,74.4749984741211,294.6839904785156)" opacity="1" style="display: block;"><g opacity="1" transform="matrix(2,0,0,2,0,0)"><path fill="rgb(255,170,221)" fill-opacity="1" d=" M0.8140000104904175,-24.17099952697754 C0.8140000104904175,-24.17099952697754 24.86400032043457,-10.270999908447266 24.86400032043457,-10.270999908447266 C29.643999099731445,-7.511000156402588 31.284000396728516,-1.3910000324249268 28.52400016784668,3.3889999389648438 C28.224000930786133,3.8989999294281006 27.884000778198242,4.388999938964844 27.503999710083008,4.839000225067139 C27.503999710083008,4.839000225067139 13.053999900817871,21.958999633789062 13.053999900817871,21.958999633789062 C10.434000015258789,25.069000244140625 6.184000015258789,26.27899932861328 2.313999891281128,25.018999099731445 C2.313999891281128,25.018999099731445 -22.965999603271484,16.768999099731445 -22.965999603271484,16.768999099731445 C-28.215999603271484,15.048999786376953 -31.086000442504883,9.409000396728516 -29.365999221801758,4.158999919891357 C-29.076000213623047,3.239000082015991 -28.645999908447266,2.378999948501587 -28.09600067138672,1.5889999866485596 C-28.09600067138672,1.5889999866485596 -12.425999641418457,-21.180999755859375 -12.425999641418457,-21.180999755859375 C-9.47599983215332,-25.481000900268555 -3.7060000896453857,-26.7810001373291 0.8140000104904175,-24.17099952697754z"/></g></g><g transform="matrix(1,0,0,1,161.5240020751953,294.68402099609375)" opacity="1" style="display: block;"><g opacity="1" transform="matrix(2,0,0,2,0,0)"><path fill="rgb(255,170,221)" fill-opacity="1" d=" M-0.8059999942779541,-24.17099952697754 C-0.8059999942779541,-24.17099952697754 -24.865999221801758,-10.270999908447266 -24.865999221801758,-10.270999908447266 C-29.645999908447266,-7.511000156402588 -31.285999298095703,-1.3910000324249268 -28.525999069213867,3.3889999389648438 C-28.22599983215332,3.8989999294281006 -27.88599967956543,4.388999938964844 -27.506000518798828,4.839000225067139 C-27.506000518798828,4.839000225067139 -13.055999755859375,21.958999633789062 -13.055999755859375,21.958999633789062 C-10.435999870300293,25.069000244140625 -6.185999870300293,26.27899932861328 -2.315999984741211,25.018999099731445 C-2.315999984741211,25.018999099731445 22.964000701904297,16.768999099731445 22.964000701904297,16.768999099731445 C28.214000701904297,15.048999786376953 31.083999633789062,9.409000396728516 29.36400032043457,4.158999919891357 C29.073999404907227,3.239000082015991 28.643999099731445,2.378999948501587 28.104000091552734,1.5889999866485596 C28.104000091552734,1.5889999866485596 12.434000015258789,-21.180999755859375 12.434000015258789,-21.180999755859375 C9.473999977111816,-25.481000900268555 3.7039999961853027,-26.7810001373291 -0.8059999942779541,-24.17099952697754z"/></g></g><g style="display: none;"><g><path/></g></g><g style="display: none;"><g><path/></g></g><g mask="url(#__lottie_element_11466)" style="display: none;"><g><g><path/></g></g></g><g style="display: none;"><g><path/></g></g><g style="display: none;"><g><path/></g></g><g transform="matrix(1,0,0,1,117.3030014038086,156.66299438476562)" opacity="1" style="display: block;"><g opacity="1" transform="matrix(2,0,0,2,0,0)"><path fill="rgb(61,61,61)" fill-opacity="1" d=" M-7.985000133514404,-38.332000732421875 C2.2850000858306885,-38.332000732421875 10.925000190734863,-31.29199981689453 13.345000267028809,-21.761999130249023 C13.345000267028809,-21.761999130249023 13.3149995803833,-21.841999053955078 13.3149995803833,-21.841999053955078 C15.024999618530273,-17.18199920654297 18.774999618530273,-15.031999588012695 24.44499969482422,-14.942000389099121 C24.44499969482422,-14.942000389099121 24.815000534057617,-14.942000389099121 24.815000534057617,-14.942000389099121 C24.915000915527344,-14.942000389099121 25.0049991607666,-14.942000389099121 25.104999542236328,-14.932000160217285 C25.104999542236328,-14.932000160217285 25.274999618530273,-14.942000389099121 25.274999618530273,-14.942000389099121 C25.274999618530273,-14.942000389099121 25.594999313354492,-14.942000389099121 25.594999313354492,-14.942000389099121 C34.96500015258789,-14.942000389099121 42.55500030517578,-7.381999969482422 42.55500030517578,1.9479999542236328 C42.55500030517578,11.277999877929688 34.96500015258789,18.83799934387207 25.594999313354492,18.83799934387207 C21.125,18.83799934387207 17.05500030517578,17.118000030517578 14.024999618530273,14.288000106811523 C14.024999618530273,14.288000106811523 14.024999618530273,16.31800079345703 14.024999618530273,16.31800079345703 C14.024999618530273,28.357999801635742 4.364999771118164,38.13800048828125 -7.625,38.327999114990234 C-7.625,38.327999114990234 -8.154999732971191,38.327999114990234 -8.154999732971191,38.327999114990234 C-19.665000915527344,38.327999114990234 -29.104999542236328,29.49799919128418 -30.084999084472656,18.24799919128418 C-37.275001525878906,16.288000106811523 -42.55500030517578,9.727999687194824 -42.55500030517578,1.9479999542236328 C-42.55500030517578,-5.802000045776367 -37.314998626708984,-12.342000007629395 -30.165000915527344,-14.321999549865723 C-30.165000915527344,-14.321999549865723 -30.165000915527344,-16.32200050354004 -30.165000915527344,-16.32200050354004 C-30.165000915527344,-28.36199951171875 -20.5049991607666,-38.13199996948242 -8.515000343322754,-38.332000732421875 C-8.515000343322754,-38.332000732421875 -7.985000133514404,-38.332000732421875 -7.985000133514404,-38.332000732421875z"/></g></g><g transform="matrix(1,0,0,1,40.63999938964844,188.4980010986328)" opacity="1" style="display: block;"><g opacity="1" transform="matrix(2,0,0,2,0,0)"><path fill="rgb(218,142,116)" fill-opacity="1" d=" M0,-6.171999931335449 C3.4063267707824707,-6.171999931335449 6.171999931335449,-3.4063267707824707 6.171999931335449,0 C6.171999931335449,3.4063267707824707 3.4063267707824707,6.171999931335449 0,6.171999931335449 C-3.4063267707824707,6.171999931335449 -6.171999931335449,3.4063267707824707 -6.171999931335449,0 C-6.171999931335449,-3.4063267707824707 -3.4063267707824707,-6.171999931335449 0,-6.171999931335449z"/></g></g><g transform="matrix(1,0,0,1,193.96600341796875,188.4980010986328)" opacity="1" style="display: block;"><g opacity="1" transform="matrix(2,0,0,2,0,0)"><path fill="rgb(218,142,116)" fill-opacity="1" d=" M0,-6.171999931335449 C3.4063267707824707,-6.171999931335449 6.171999931335449,-3.4063267707824707 6.171999931335449,0 C6.171999931335449,3.4063267707824707 3.4063267707824707,6.171999931335449 0,6.171999931335449 C-3.4063267707824707,6.171999931335449 -6.171999931335449,3.4063267707824707 -6.171999931335449,0 C-6.171999931335449,-3.4063267707824707 -3.4063267707824707,-6.171999931335449 0,-6.171999931335449z"/></g></g><g transform="matrix(1,0,0,1,117.62799835205078,266.7850036621094)" opacity="1" style="display: block;"><g opacity="1" transform="matrix(2,0,0,2,0,0)"><path fill="rgb(218,142,116)" fill-opacity="1" d=" M0.0010000000474974513,-67.40499877929688 C20.72100067138672,-67.40499877929688 37.520999908447266,-50.60499954223633 37.520999908447266,-29.885000228881836 C37.520999908447266,-29.885000228881836 37.520999908447266,29.885000228881836 37.520999908447266,29.885000228881836 C37.520999908447266,50.60499954223633 20.72100067138672,67.40499877929688 0.0010000000474974513,67.40499877929688 C-20.7189998626709,67.40499877929688 -37.51900100708008,50.60499954223633 -37.51900100708008,29.885000228881836 C-37.51900100708008,29.885000228881836 -37.51900100708008,-29.885000228881836 -37.51900100708008,-29.885000228881836 C-37.51900100708008,-50.60499954223633 -20.7189998626709,-67.40499877929688 0.0010000000474974513,-67.40499877929688z"/></g></g><g mask="url(#__lottie_element_11449)" style="display: block;"><g transform="matrix(1,0,0,1,48.5989990234375,161.04901123046875)" opacity="1"><g opacity="1" transform="matrix(2,0,0,2,0,0)"><path fill="rgb(61,61,61)" fill-opacity="1" d=" M0.003000000026077032,-14.536999702453613 C5.072999954223633,-14.536999702453613 9.17300033569336,-10.427000045776367 9.17300033569336,-5.35699987411499 C9.17300033569336,-5.35699987411499 9.17300033569336,5.36299991607666 9.17300033569336,5.36299991607666 C9.17300033569336,10.42300033569336 5.072999954223633,14.532999992370605 0.003000000026077032,14.532999992370605 C-5.066999912261963,14.532999992370605 -9.177000045776367,10.42300033569336 -9.177000045776367,5.36299991607666 C-9.177000045776367,5.36299991607666 -9.177000045776367,-5.35699987411499 -9.177000045776367,-5.35699987411499 C-9.177000045776367,-10.427000045776367 -5.066999912261963,-14.536999702453613 0.003000000026077032,-14.536999702453613z"/></g></g></g><g mask="url(#__lottie_element_11444)" style="display: block;"><g transform="matrix(1,0,0,1,187.30699157714844,161.69900512695312)" opacity="1"><g opacity="1" transform="matrix(2,0,0,2,0,0)"><path fill="rgb(61,61,61)" fill-opacity="1" d=" M0.003000000026077032,-13.237000465393066 C5.072999954223633,-13.237000465393066 9.17300033569336,-9.126999855041504 9.17300033569336,-4.057000160217285 C9.17300033569336,-4.057000160217285 9.17300033569336,4.063000202178955 9.17300033569336,4.063000202178955 C9.17300033569336,9.133000373840332 5.072999954223633,13.232999801635742 0.003000000026077032,13.232999801635742 C-5.066999912261963,13.232999801635742 -9.177000045776367,9.133000373840332 -9.177000045776367,4.063000202178955 C-9.177000045776367,4.063000202178955 -9.177000045776367,-4.057000160217285 -9.177000045776367,-4.057000160217285 C-9.177000045776367,-9.126999855041504 -5.066999912261963,-13.237000465393066 0.003000000026077032,-13.237000465393066z"/></g></g></g><g transform="matrix(1,0,0,1,117.6209945678711,283.7220153808594)" opacity="1" style="display: block;"><g opacity="1" transform="matrix(2,0,0,2,0,0)"><path fill="rgb(255,170,221)" fill-opacity="1" d=" M-37.51900100708008,-11.206999778747559 C-37.51900100708008,-11.206999778747559 16.378999710083008,-11.206999778747559 16.378999710083008,-11.206999778747559 C16.378999710083008,-11.206999778747559 37.520999908447266,-11.206999778747559 37.520999908447266,-11.206999778747559 C37.520999908447266,-11.206999778747559 37.520999908447266,11.20300006866455 37.520999908447266,11.20300006866455 C37.520999908447266,11.20300006866455 -37.51900100708008,11.20300006866455 -37.51900100708008,11.20300006866455 C-37.51900100708008,11.20300006866455 -37.51900100708008,-11.206999778747559 -37.51900100708008,-11.206999778747559z"/></g></g><g transform="matrix(1,0,0,1,117.78399658203125,273.1650085449219)" opacity="1" style="display: block;"><g opacity="1" transform="matrix(2,0,0,2,0,0)"><path fill="rgb(218,142,116)" fill-opacity="1" d=" M0.0010000000474974513,6.256999969482422 C0.0010000000474974513,6.256999969482422 10.640999794006348,-6.252999782562256 10.640999794006348,-6.252999782562256 C10.640999794006348,-6.252999782562256 -10.638999938964844,-6.252999782562256 -10.638999938964844,-6.252999782562256 C-10.638999938964844,-6.252999782562256 0.0010000000474974513,6.256999969482422 0.0010000000474974513,6.256999969482422z"/></g></g><g mask="url(#__lottie_element_11436)" style="display: block;"><g transform="matrix(1,0,0,1,118.11499786376953,358.71600341796875)" opacity="1"><g opacity="1" transform="matrix(2,0,0,2,0,0)"><path fill="rgb(42,230,155)" fill-opacity="1" d=" M-39.0620002746582,-23.551000595092773 C-39.0620002746582,-23.551000595092773 39.05799865722656,-23.551000595092773 39.05799865722656,-23.551000595092773 C39.05799865722656,-23.551000595092773 39.05799865722656,23.548999786376953 39.05799865722656,23.548999786376953 C39.05799865722656,23.548999786376953 -39.0620002746582,23.548999786376953 -39.0620002746582,23.548999786376953 C-39.0620002746582,23.548999786376953 -39.0620002746582,-23.551000595092773 -39.0620002746582,-23.551000595092773z"/></g></g></g><g transform="matrix(1,0,0,1,117.62799835205078,314.5369873046875)" opacity="1" style="display: block;"><g opacity="1" transform="matrix(2,0,0,2,0,0)"><path fill="rgb(165,102,68)" fill-opacity="1" d=" M-37.51900100708008,-4.2230000495910645 C-37.51900100708008,-4.2230000495910645 37.520999908447266,-4.2230000495910645 37.520999908447266,-4.2230000495910645 C37.520999908447266,-4.2230000495910645 37.520999908447266,4.2270002365112305 37.520999908447266,4.2270002365112305 C37.520999908447266,4.2270002365112305 -37.51900100708008,4.2270002365112305 -37.51900100708008,4.2270002365112305 C-37.51900100708008,4.2270002365112305 -37.51900100708008,-4.2230000495910645 -37.51900100708008,-4.2230000495910645z"/></g></g><g transform="matrix(1,0,0,1,74.26100158691406,318.43499755859375)" opacity="1" style="display: block;"><g opacity="1" transform="matrix(2,0,0,2,0,0)"><path fill="rgb(42,230,156)" fill-opacity="1" d=" M-2.680000066757202,-6.171999931335449 C-2.680000066757202,-6.171999931335449 2.680000066757202,-6.171999931335449 2.680000066757202,-6.171999931335449 C2.680000066757202,-6.171999931335449 2.680000066757202,6.168000221252441 2.680000066757202,6.168000221252441 C2.680000066757202,6.168000221252441 -2.680000066757202,6.168000221252441 -2.680000066757202,6.168000221252441 C-2.680000066757202,6.168000221252441 -2.680000066757202,-6.171999931335449 -2.680000066757202,-6.171999931335449z"/></g></g><g transform="matrix(1,0,0,1,160.33799743652344,318.43499755859375)" opacity="1" style="display: block;"><g opacity="1" transform="matrix(2,0,0,2,0,0)"><path fill="rgb(42,230,156)" fill-opacity="1" d=" M-2.680000066757202,-6.171999931335449 C-2.680000066757202,-6.171999931335449 2.680000066757202,-6.171999931335449 2.680000066757202,-6.171999931335449 C2.680000066757202,-6.171999931335449 2.680000066757202,6.168000221252441 2.680000066757202,6.168000221252441 C2.680000066757202,6.168000221252441 -2.680000066757202,6.168000221252441 -2.680000066757202,6.168000221252441 C-2.680000066757202,6.168000221252441 -2.680000066757202,-6.171999931335449 -2.680000066757202,-6.171999931335449z"/></g></g><g transform="matrix(1,0,0,1,99.48600006103516,175.3380126953125)" opacity="1" style="display: block;"><g opacity="1" transform="matrix(2,0,0,2,0,0)"><path fill="rgb(255,255,255)" fill-opacity="1" d=" M0.0020000000949949026,-9.987000465393066 C4.23199987411499,-9.987000465393066 7.6620001792907715,-6.557000160217285 7.6620001792907715,-2.3269999027252197 C7.6620001792907715,-2.3269999027252197 7.6620001792907715,2.3329999446868896 7.6620001792907715,2.3329999446868896 C7.6620001792907715,6.563000202178955 4.23199987411499,9.982999801635742 0.0020000000949949026,9.982999801635742 C-4.228000164031982,9.982999801635742 -7.6579999923706055,6.563000202178955 -7.6579999923706055,2.3329999446868896 C-7.6579999923706055,2.3329999446868896 -7.6579999923706055,-2.3269999027252197 -7.6579999923706055,-2.3269999027252197 C-7.6579999923706055,-6.557000160217285 -4.228000164031982,-9.987000465393066 0.0020000000949949026,-9.987000465393066z"/></g></g><g transform="matrix(1,0,0,1,103.71499633789062,175.6540069580078)" opacity="1" style="display: block;"><g opacity="1" transform="matrix(2,0,0,2,0,0)"><path fill="rgb(61,61,61)" fill-opacity="1" d=" M0.0020000000949949026,-5.5970001220703125 C1.9019999504089355,-5.5970001220703125 3.441999912261963,-4.057000160217285 3.441999912261963,-2.1570000648498535 C3.441999912261963,-2.1570000648498535 3.441999912261963,2.1630001068115234 3.441999912261963,2.1630001068115234 C3.441999912261963,4.063000202178955 1.9019999504089355,5.5929999351501465 0.0020000000949949026,5.5929999351501465 C-1.8980000019073486,5.5929999351501465 -3.437999963760376,4.063000202178955 -3.437999963760376,2.1630001068115234 C-3.437999963760376,2.1630001068115234 -3.437999963760376,-2.1570000648498535 -3.437999963760376,-2.1570000648498535 C-3.437999963760376,-4.057000160217285 -1.8980000019073486,-5.5970001220703125 0.0020000000949949026,-5.5970001220703125z"/></g></g><g transform="matrix(1,0,0,1,118,224.75)" opacity="1" style="display: block;"><path stroke-linecap="butt" stroke-linejoin="miter" fill-opacity="0" stroke-miterlimit="4" stroke="rgb(218,142,116)" stroke-opacity="1" stroke-width="22" d=" M-50.25,-5.25 C-50.25,-5.25 -23.25,-28.25 -1.5,-10"/></g><g transform="matrix(1,0,0,1,136.19200134277344,175.3380126953125)" opacity="1" style="display: block;"><g opacity="1" transform="matrix(2,0,0,2,0,0)"><path fill="rgb(255,255,255)" fill-opacity="1" d=" M0.0020000000949949026,-9.987000465393066 C4.23199987411499,-9.987000465393066 7.6620001792907715,-6.557000160217285 7.6620001792907715,-2.3269999027252197 C7.6620001792907715,-2.3269999027252197 7.6620001792907715,2.3329999446868896 7.6620001792907715,2.3329999446868896 C7.6620001792907715,6.563000202178955 4.23199987411499,9.982999801635742 0.0020000000949949026,9.982999801635742 C-4.228000164031982,9.982999801635742 -7.6579999923706055,6.563000202178955 -7.6579999923706055,2.3329999446868896 C-7.6579999923706055,2.3329999446868896 -7.6579999923706055,-2.3269999027252197 -7.6579999923706055,-2.3269999027252197 C-7.6579999923706055,-6.557000160217285 -4.228000164031982,-9.987000465393066 0.0020000000949949026,-9.987000465393066z"/></g></g><g transform="matrix(1,0,0,1,132.93800354003906,175.6540069580078)" opacity="1" style="display: block;"><g opacity="1" transform="matrix(2,0,0,2,0,0)"><path fill="rgb(61,61,61)" fill-opacity="1" d=" M0.0020000000949949026,-5.5970001220703125 C1.9019999504089355,-5.5970001220703125 3.441999912261963,-4.057000160217285 3.441999912261963,-2.1570000648498535 C3.441999912261963,-2.1570000648498535 3.441999912261963,2.1630001068115234 3.441999912261963,2.1630001068115234 C3.441999912261963,4.063000202178955 1.9019999504089355,5.5929999351501465 0.0020000000949949026,5.5929999351501465 C-1.8980000019073486,5.5929999351501465 -3.437999963760376,4.063000202178955 -3.437999963760376,2.1630001068115234 C-3.437999963760376,2.1630001068115234 -3.437999963760376,-2.1570000648498535 -3.437999963760376,-2.1570000648498535 C-3.437999963760376,-4.057000160217285 -1.8980000019073486,-5.5970001220703125 0.0020000000949949026,-5.5970001220703125z"/></g></g><g transform="matrix(1,0,0,1,164.75,224.75)" opacity="1" style="display: block;"><path stroke-linecap="butt" stroke-linejoin="miter" fill-opacity="0" stroke-miterlimit="4" stroke="rgb(218,142,116)" stroke-opacity="1" stroke-width="22" d=" M-50.25,-5.25 C-50.25,-5.25 -23.25,-28.25 -1.5,-10"/></g><g transform="matrix(1,0,0,1,117.87899780273438,165.0449981689453)" opacity="1" style="display: block;"><g opacity="1" transform="matrix(2,0,0,2,0,0)"><path fill="rgb(218,142,116)" fill-opacity="1" d=" M-21.940000534057617,-5.521999835968018 C-21.940000534057617,-5.521999835968018 21.940000534057617,-5.521999835968018 21.940000534057617,-5.521999835968018 C21.940000534057617,-5.521999835968018 21.940000534057617,5.51800012588501 21.940000534057617,5.51800012588501 C21.940000534057617,5.51800012588501 -21.940000534057617,5.51800012588501 -21.940000534057617,5.51800012588501 C-21.940000534057617,5.51800012588501 -21.940000534057617,-5.521999835968018 -21.940000534057617,-5.521999835968018z"/></g></g><g style="display: none;"><g><path/></g></g><g transform="matrix(1,0,0,1,99.69300079345703,219.3350067138672)" opacity="1" style="display: block;"><g opacity="1" transform="matrix(2,0,0,2,0,0)"><path fill="rgb(61,61,61)" fill-opacity="1" d=" M12.520000457763672,-7.224999904632568 C9.739999771118164,-12.045000076293945 3.5799999237060547,-13.694999694824219 -1.2400000095367432,-10.914999961853027 C-1.2400000095367432,-10.914999961853027 -8.829999923706055,-6.525000095367432 -8.829999923706055,-6.525000095367432 C-13.649999618530273,-3.744999885559082 -15.300000190734863,2.4149999618530273 -12.520000457763672,7.224999904632568 C-9.739999771118164,12.045000076293945 -3.5799999237060547,13.694999694824219 1.2400000095367432,10.914999961853027 C1.2400000095367432,10.914999961853027 8.829999923706055,6.525000095367432 8.829999923706055,6.525000095367432 C13.649999618530273,3.744999885559082 15.300000190734863,-2.4149999618530273 12.520000457763672,-7.224999904632568z"/></g></g><g transform="matrix(1,0,0,1,118.60299682617188,226.1800079345703)" opacity="1" style="display: block;"><g opacity="1" transform="matrix(2,0,0,2,0,0)"><path fill="rgb(61,61,61)" fill-opacity="1" d=" M-13.968000411987305,-6.822000026702881 C-13.968000411987305,-6.822000026702881 13.972000122070312,-6.822000026702881 13.972000122070312,-6.822000026702881 C13.972000122070312,-6.822000026702881 13.972000122070312,6.817999839782715 13.972000122070312,6.817999839782715 C13.972000122070312,6.817999839782715 -13.968000411987305,6.817999839782715 -13.968000411987305,6.817999839782715 C-13.968000411987305,6.817999839782715 -13.968000411987305,-6.822000026702881 -13.968000411987305,-6.822000026702881z"/></g></g><g transform="matrix(1,0,0,1,134.56900024414062,219.3350067138672)" opacity="1" style="display: block;"><g opacity="1" transform="matrix(2,0,0,2,0,0)"><path fill="rgb(61,61,61)" fill-opacity="1" d=" M-12.520000457763672,-7.224999904632568 C-9.739999771118164,-12.045000076293945 -3.5799999237060547,-13.694999694824219 1.2400000095367432,-10.914999961853027 C1.2400000095367432,-10.914999961853027 8.829999923706055,-6.525000095367432 8.829999923706055,-6.525000095367432 C13.649999618530273,-3.744999885559082 15.300000190734863,2.4149999618530273 12.520000457763672,7.224999904632568 C9.739999771118164,12.045000076293945 3.5799999237060547,13.694999694824219 -1.2400000095367432,10.914999961853027 C-1.2400000095367432,10.914999961853027 -8.829999923706055,6.525000095367432 -8.829999923706055,6.525000095367432 C-13.649999618530273,3.744999885559082 -15.300000190734863,-2.4149999618530273 -12.520000457763672,-7.224999904632568z"/></g></g><g transform="matrix(1,0,0,1,116.65399932861328,246.32000732421875)" opacity="1" style="display: block;"><g opacity="1" transform="matrix(2,0,0,2,0,0)"><path fill="rgb(218,142,116)" fill-opacity="1" d=" M-6.25600004196167,-3.13700008392334 C-0.8460000157356262,-6.4770002365112305 3.2939999103546143,-5.2270002365112305 7.033999919891357,-3.13700008392334 C10.784000396728516,-1.0369999408721924 4.573999881744385,5.192999839782715 4.573999881744385,5.192999839782715 C4.573999881744385,5.192999839782715 -3.6760001182556152,5.192999839782715 -3.6760001182556152,5.192999839782715 C-3.6760001182556152,5.192999839782715 -11.675999641418457,0.21299999952316284 -6.25600004196167,-3.13700008392334z"/></g></g><g transform="matrix(1,0,0,1,135.4949951171875,169.65701293945312)" opacity="1" style="display: block;"><g opacity="1" transform="matrix(2,0,0,2,0,0)"><path fill="rgb(61,61,61)" fill-opacity="1" d=" M-6.170000076293945,-3.8980000019073486 C-6.170000076293945,-3.8980000019073486 1.5190000534057617,-3.8980000019073486 1.5190000534057617,-3.8980000019073486 C1.5190000534057617,-3.8980000019073486 6.170000076293945,-3.8980000019073486 6.170000076293945,-3.8980000019073486 C8.329999923706055,-3.8980000019073486 10.069999694824219,-2.1480000019073486 10.069999694824219,0.0020000000949949026 C10.069999694824219,2.1519999504089355 8.329999923706055,3.9019999504089355 6.170000076293945,3.9019999504089355 C6.170000076293945,3.9019999504089355 0.3569999933242798,3.9019999504089355 0.3569999933242798,3.9019999504089355 C0.3569999933242798,3.9019999504089355 -6.170000076293945,3.9019999504089355 -6.170000076293945,3.9019999504089355 C-8.319999694824219,3.9019999504089355 -10.069999694824219,2.1519999504089355 -10.069999694824219,0.0020000000949949026 C-10.069999694824219,-2.1480000019073486 -8.319999694824219,-3.8980000019073486 -6.170000076293945,-3.8980000019073486z"/></g></g><g style="display: none;"><g><path/></g></g><g transform="matrix(1,0,0,1,99.11199951171875,154.06399536132812)" opacity="1" style="display: block;"><g opacity="1" transform="matrix(2,0,0,2,0,0)"><path fill="rgb(61,61,61)" fill-opacity="1" d=" M-6.170000076293945,-3.8980000019073486 C-6.170000076293945,-3.8980000019073486 0.6129999756813049,-3.8980000019073486 0.6129999756813049,-3.8980000019073486 C0.6129999756813049,-3.8980000019073486 6.170000076293945,-3.8980000019073486 6.170000076293945,-3.8980000019073486 C8.329999923706055,-3.8980000019073486 10.069999694824219,-2.1480000019073486 10.069999694824219,0.0020000000949949026 C10.069999694824219,2.1519999504089355 8.329999923706055,3.9019999504089355 6.170000076293945,3.9019999504089355 C6.170000076293945,3.9019999504089355 -6.170000076293945,3.9019999504089355 -6.170000076293945,3.9019999504089355 C-8.319999694824219,3.9019999504089355 -10.069999694824219,2.1519999504089355 -10.069999694824219,0.0020000000949949026 C-10.069999694824219,-2.1480000019073486 -8.319999694824219,-3.8980000019073486 -6.170000076293945,-3.8980000019073486z"/></g></g><g style="display: none;"><g><path/></g></g><g transform="matrix(1,0,0,1,117.30400085449219,193.69500732421875)" opacity="1" style="display: block;"><g opacity="1" transform="matrix(2,0,0,2,0,0)"><path fill="rgb(218,142,116)" fill-opacity="1" d=" M0,-4.872499942779541 C2.6891326904296875,-4.872499942779541 4.872499942779541,-2.6891326904296875 4.872499942779541,0 C4.872499942779541,2.6891326904296875 2.6891326904296875,4.872499942779541 0,4.872499942779541 C-2.6891326904296875,4.872499942779541 -4.872499942779541,2.6891326904296875 -4.872499942779541,0 C-4.872499942779541,-2.6891326904296875 -2.6891326904296875,-4.872499942779541 0,-4.872499942779541z"/></g></g><g transform="matrix(1,0,0,1,141.99200439453125,418.48699951171875)" opacity="1" style="display: block;"><g opacity="1" transform="matrix(2,0,0,2,0,0)"><path fill="rgb(28,175,246)" fill-opacity="1" d=" M-10.720000267028809,-0.003000000026077032 C-10.720000267028809,-2.693000078201294 -8.539999961853027,-4.873000144958496 -5.849999904632568,-4.873000144958496 C-5.849999904632568,-4.873000144958496 5.849999904632568,-4.873000144958496 5.849999904632568,-4.873000144958496 C8.539999961853027,-4.873000144958496 10.720000267028809,-2.693000078201294 10.720000267028809,-0.003000000026077032 C10.720000267028809,2.687000036239624 8.539999961853027,4.876999855041504 5.849999904632568,4.876999855041504 C5.849999904632568,4.876999855041504 -5.849999904632568,4.876999855041504 -5.849999904632568,4.876999855041504 C-8.539999961853027,4.876999855041504 -10.720000267028809,2.687000036239624 -10.720000267028809,-0.003000000026077032z"/></g></g><g transform="matrix(1,0,0,1,88.71700286865234,418.48699951171875)" opacity="1" style="display: block;"><g opacity="1" transform="matrix(2,0,0,2,0,0)"><path fill="rgb(28,175,246)" fill-opacity="1" d=" M-10.720000267028809,-0.003000000026077032 C-10.720000267028809,-2.693000078201294 -8.539999961853027,-4.873000144958496 -5.849999904632568,-4.873000144958496 C-5.849999904632568,-4.873000144958496 5.849999904632568,-4.873000144958496 5.849999904632568,-4.873000144958496 C8.539999961853027,-4.873000144958496 10.720000267028809,-2.693000078201294 10.720000267028809,-0.003000000026077032 C10.720000267028809,2.687000036239624 8.539999961853027,4.876999855041504 5.849999904632568,4.876999855041504 C5.849999904632568,4.876999855041504 -5.849999904632568,4.876999855041504 -5.849999904632568,4.876999855041504 C-8.539999961853027,4.876999855041504 -10.720000267028809,2.687000036239624 -10.720000267028809,-0.003000000026077032z"/></g></g></g></g></svg>